<?xml version="1.0" encoding="UTF-8" standalone="no"?>
<!-- Created with Inkscape (http://www.inkscape.org/) -->

<svg
   xmlns:dc="http://purl.org/dc/elements/1.1/"
   xmlns:cc="http://creativecommons.org/ns#"
   xmlns:rdf="http://www.w3.org/1999/02/22-rdf-syntax-ns#"
   xmlns:svg="http://www.w3.org/2000/svg"
   xmlns="http://www.w3.org/2000/svg"
   xmlns:sodipodi="http://sodipodi.sourceforge.net/DTD/sodipodi-0.dtd"
   xmlns:inkscape="http://www.inkscape.org/namespaces/inkscape"
   width="25"
   height="25"
   viewBox="0 0 6.6145832 6.6145835"
   version="1.1"
   id="svg8"
   inkscape:version="0.92.4 (5da689c313, 2019-01-14)"
   sodipodi:docname="icon_octoprint.svg">
  <defs
     id="defs2">
    <clipPath
       clipPathUnits="userSpaceOnUse"
       id="clipPath2999">
      <path
         d="m0,600l800,0l0,-600l-800,0l0,600z"
         id="path3001" />
    </clipPath>
    <clipPath
       clipPathUnits="userSpaceOnUse"
       id="clipPath3179">
      <path
         d="m-6.473043,537.069355l133,0l0,-134.101l-133,0l0,134.101z"
         id="path3181" />
    </clipPath>
    <clipPath
       clipPathUnits="userSpaceOnUse"
       id="clipPath3195">
      <path
         d="m4.126957,522.468355l19.5,0l0,-19l-19.5,0l0,19z"
         id="path3197" />
    </clipPath>
    <clipPath
       clipPathUnits="userSpaceOnUse"
       id="clipPath3211">
      <path
         d="m-5.773043,487.569355l16,0l0,-15l-16,0l0,15z"
         id="path3213" />
    </clipPath>
    <clipPath
       clipPathUnits="userSpaceOnUse"
       id="clipPath3227">
      <path
         d="m-13.373043,481.368355l8.3,0l0,-3.9l-8.3,0l0,3.9z"
         id="path3229" />
    </clipPath>
    <clipPath
       clipPathUnits="userSpaceOnUse"
       id="clipPath3243">
      <path
         d="m-16.573043,454.069355l44.9,0l0,-51l-44.9,0l0,51z"
         id="path3245" />
    </clipPath>
    <clipPath
       clipPathUnits="userSpaceOnUse"
       id="clipPath3259">
      <path
         d="m-5.773043,457.168355l63.7,0l0,-48.3l-63.7,0l0,48.3z"
         id="path3261" />
    </clipPath>
    <clipPath
       clipPathUnits="userSpaceOnUse"
       id="clipPath3299">
      <path
         d="m28.326957,411.668355l53.4,0l0,-9.275l-53.4,0l0,9.275z"
         id="path3301" />
    </clipPath>
    <clipPath
       clipPathUnits="userSpaceOnUse"
       id="clipPath3323">
      <path
         d="m69.426957,412.368355l18,0l0,-3.6l-18,0l0,3.6z"
         id="path3325" />
    </clipPath>
  </defs>
  <sodipodi:namedview
     id="base"
     pagecolor="#ffffff"
     bordercolor="#666666"
     borderopacity="1.0"
     inkscape:pageopacity="0.0"
     inkscape:pageshadow="2"
     inkscape:zoom="13.348997"
     inkscape:cx="-2.4491587"
     inkscape:cy="-4.6328545"
     inkscape:document-units="px"
     inkscape:current-layer="g211"
     showgrid="true"
     units="px"
     inkscape:window-width="1920"
     inkscape:window-height="1017"
     inkscape:window-x="-8"
     inkscape:window-y="-8"
     inkscape:window-maximized="1">
    <inkscape:grid
       type="xygrid"
       id="grid4485" />
  </sodipodi:namedview>
  <metadata
     id="metadata5">
    <rdf:RDF>
      <cc:Work
         rdf:about="">
        <dc:format>image/svg+xml</dc:format>
        <dc:type
           rdf:resource="http://purl.org/dc/dcmitype/StillImage" />
        <dc:title />
      </cc:Work>
    </rdf:RDF>
  </metadata>
  <g
     inkscape:label="Layer 1"
     inkscape:groupmode="layer"
     id="layer1"
     transform="translate(0,-290.3854)">
    <g
       id="g398"
       transform="matrix(0.01645417,0,0,0.01645417,0.01645417,290.85789)">
      <g
         id="g49">
        <title
           id="title46">background</title>
        <rect
           x="-1"
           y="-1"
           width="402"
           height="402"
           id="canvas_background"
           style="fill:none" />
      </g>
      <g
         id="g211">
        <title
           id="title51">Layer 1</title>
        <g
           id="g2993"
           transform="matrix(0.97141497,0,0,-0.97141497,147.86459,696.84717)">
          <path
             id="path3660"
             d="M 128.37777,463.61896"
             inkscape:connector-curvature="0"
             style="fill:#ffffff" />
          <g
             id="g3003">
            <path
               d="m 108.12705,572.26866 c 0.7,-0.6 1,-1.5 1,-2.4 0,-0.9 -0.3,-1.8 -1,-2.4 -0.6,-0.7 -1.5,-1 -2.4,-1 -1,0 -1.8,0.3 -2.5,1 -0.6,0.6 -1,1.5 -1,2.4 0,0.9 0.4,1.8 1,2.4 0.7,0.7 1.5,1 2.5,1 0.9,0 1.8,-0.3 2.4,-1 m 1,15.4 c 1,-1 1.6,-2.4 1.6,-3.9 0,-1.5 -0.6,-2.7 -1.6,-3.8 -1,-1 -2.4,-1.6 -3.9,-1.6 -1.5,0 -2.7,0.6 -3.8,1.6 -1,1.1 -1.599996,2.3 -1.599996,3.8 0,1.5 0.599996,2.9 1.599996,3.9 1.1,1 2.3,1.6 3.8,1.6 1.5,0 2.9,-0.6 3.9,-1.6 m 20.7,9.2 c 1,3.6 1.7,5.8 2.1,6.8 -0.3,-0.1 -0.4,-0.4 -0.7,-0.6 -7.3,-7.4 -16.2,-11 -26.7,-11 -2.6,0 -5.099996,0.2 -7.499996,0.6 -1,0.3 -2,0.5 -3,0.8 l -13.1,3 c -1.3,0.5 -2.5,1.1 -3.8,1.6 -1.9,0.9 -3.5,1.8 -4.7,2.7 0.2,-0.7 0.6,-1.6 1.2,-2.8 0.7,-1.7 1.2,-2.8 1.4,-3.3 0.6,-1.6 2.7,-3.6 6.5,-6.1 1.2,-0.9 2.4,-1.6 3.4,-2.4 1.2,-0.5 1.8,-0.9 2.1,-1 0.6,-0.5 1.3,-0.9 1.9,-1.3 l 0.3,-0.2 0.2,-0.1 c 1.7,-1.5 3.2,-3.2 4.3,-5.1 0.3,-0.6 1.2,-2.3 2.7,-5.3 0.6,-1.1 1.2,-2.9 2.1,-5.2 0.9,-2.3 1.599996,-4 2.199996,-5.3 0.6,-0.9 1.2,-1.7 1.8,-2.5 0.6,-0.7 1.5,-1.4 2.4,-2 1.3,-1.1 2.7,-1.9 4.2,-2.5 0.1,0.8 0.3,1.5 0.5,2.4 0.1,0 0.1,0.1 0.1,0.2 0.8,3 2.2,6.4 4.4,10 4.2,6 7.2,10.9 9,14.4 1.6,3 2.9,5.4 3.7,7 1.4,3 2.4,5.4 3,7.2"
               id="path3005"
               inkscape:connector-curvature="0"
               style="fill:#169300;fill-rule:nonzero" />
          </g>
          <g
             id="g3007">
            <path
               d="m 110.72715,583.76866 c 0,1.5 -0.6,2.9 -1.6,3.9 -1,1 -2.4,1.6 -3.9,1.6 -1.5,0 -2.7,-0.6 -3.8,-1.6 -1,-1 -1.599998,-2.4 -1.599998,-3.9 0,-1.5 0.599998,-2.7 1.599998,-3.8 1.1,-1 2.3,-1.6 3.8,-1.6 1.5,0 2.9,0.6 3.9,1.6 1,1.1 1.6,2.3 1.6,3.8"
               id="path3009"
               inkscape:connector-curvature="0"
               style="fill:#13c100;fill-rule:nonzero" />
          </g>
          <g
             id="g3011">
            <path
               d="m 109.12705,569.86876 c 0,0.9 -0.3,1.8 -1,2.4 -0.6,0.7 -1.5,1 -2.4,1 -1,0 -1.8,-0.3 -2.5,-1 -0.6,-0.6 -1,-1.5 -1,-2.4 0,-0.9 0.4,-1.8 1,-2.4 0.7,-0.7 1.5,-1 2.5,-1 0.9,0 1.8,0.3 2.4,1 0.7,0.6 1,1.5 1,2.4"
               id="path3013"
               inkscape:connector-curvature="0"
               style="fill:#13c100;fill-rule:nonzero" />
          </g>
          <g
             id="g3015">
            <path
               d="m -25.872946,477.16856 c 0.1,0.1 0.2,0.1 0.3,0.1 0.2,0 0.5,0 0.7,-0.1 z m 58,35.9 v -0.9 h -0.1 c -0.2,-0.6 -0.5,-1.4 -1,-2.2 -0.6,-0.9 -1,-1.7 -1.3,-2 -1.1,-1.8 -2.9,-4.5 -5.5,-8.3 -1.6,-2.4 -4.2,-5.1 -7.8,-8.2 l -0.2,-0.2 c -0.2,-0.1 -0.6,-0.3 -0.8,-0.5 -1.7,-1.2 -3.4,-2.3 -5.2,-3.2 -0.8,-0.5 -1.6,-0.9 -2.5,-1.3 -2.5,-1 -4.9,-2 -7.3,-3 -0.6,-0.4 -1.5,-0.8 -2.9,-1.2 -0.1,-0.1 -1,-0.3 -2.6,-0.7 -0.2,-0.1 -0.4,-0.1 -0.6,-0.2 -1.1,-0.3 -1.9,-0.5 -2.7,-0.8 -0.2,-0.6 -0.4,-1.3 -0.4,-2.2 -0.8,0.3 -1.5,0.5 -2,0.5 -1,0.3 -1.8,0.4 -2.3,0.1 h -0.3 c -0.3,0.1 -0.6,0.2 -0.9,0.2 h -0.1 c 0,0.1 -0.1,0.1 -0.1,0.1 h -0.4 c -0.5,0 -1,0.1 -1.4,0.1 h -0.2 c -0.3,0 -0.6,0 -0.9,0.1 -0.9,0.1 -1.7,0.2 -2.5,0.4 h -0.8 c -0.6,0.1 -1.1,0.2 -1.6,0.3 -3.7,0.5 -6.2,0.8 -7.5,1 h -4.7 c -2.6,0.2 -4.6,0.5 -5.9,0.6 h -0.5 v 0.1 h 10.2 c 0.3,0 0.7,0.1 1.2,0.2 0.6,0.1 1.7,0.1 3.5,0.2 3.8,0.3 7.2,0.7 10.4,1.2 1.3,0.3 2.7,0.5 3.9,0.8 1.3,0.2 2.9,0.6 4.8,1.1 0.9,0.3 1.8,0.6 2.8,0.9 h 0.1 0.1 c 0.9,0.3 2.4,0.9 4.5,1.6 2,0.7 3.5,1.3 4.4,1.7 2.1,0.9 4.2,2.1 6.3,3.3 0.7,0.5 1.4,1 2.1,1.4 2.7,1.7 5.1,3.5 6.8,5.1 2.9,2.6 5.9,6 9.3,10.2 0.4,0.5 1,1.3 1.9,2.6 0.2,0.3 0.5,0.7 0.7,1.1 m -92.5,-70.5 c 0.1,0.2 0.1,0.4 0.1,0.6 0,0.9 -0.1,1.4 -0.1,1.4 0,1.5 0.8,2.8 2.3,4 0.9,0.8 2.2,1.5 3.7,2.3 1.3,1 3.6,2.1 7.3,3.2 3.7,1.1 7,1.9 9.9,2.3 3.1,0.5 6.8,1.2 11.4,2 2.3,0.3 4.9,0.7 7.9,1 0.8,0 1.6,0.1 2.5,0.2 2.6,0.2 5.6,0.5 8.9,0.6 h 15.3 l 0.4,0.2 h 5.6 l 0.4,0.1 h 8.8 c 2.8,-0.1 6.1,-0.6 10,-1.5 1.1,-0.3 2.2,-0.5 3.1,-0.8 h -0.6 -1 -10.5 l -1.5,-0.2 h -4 c -3.2,-0.1 -6.1,-0.4 -8.8,-0.8 -0.4,0 -0.8,0 -1.3,-0.1 h -2.4 c -1.8,-0.4 -2.9,-0.7 -3.5,-0.9 -0.1,0 -0.2,0 -0.3,-0.1 -3.3,-0.6 -6.3,-1.3 -9,-2 h -0.1 c -1.4,-0.4 -2.6,-0.9 -3.7,-1.2 -0.8,-0.4 -1.5,-0.7 -2.2,-1 -1.7,-0.9 -3.4,-1.7 -4.8,-2.4 -1.5,-0.8 -2.8,-1.3 -4,-1.9 h 0.2 c -1.3,-0.7 -2.4,-1.2 -3.3,-1.8 -3.7,-2.1 -6.6,-3.8 -8.6,-4.9 -2.6,-0.9 -5.6,-1.7 -8.6,-2.6 -1.5,-0.4 -2.9,-0.7 -4.1,-1.1 -2,-0.2 -3.3,-0.3 -3.8,-0.3 -4.6,0 -8.1,1.3 -10.6,4 -0.3,0.3 -0.6,0.8 -0.9,1.5 0,0 0,0.2 -0.1,0.2 m -4.6,82.3 v 1.2 c 0,1.5 0.6,2.9 1.7,4.1 1.4,1.5 3.7,2.5 6.7,2.8 h 2.7 c 1.5,0 3,-0.3 4.3,-0.8 2.2,-0.6 4.3,-1.7 6.3,-3.4 0.3,-0.2 1.5,-1.6 3.8,-4 0.7,-0.7 1.6,-1.6 2.6,-2.6 0.4,-0.6 1,-1.1 1.5,-1.7 0.2,-0.3 0.4,-0.4 0.6,-0.7 0.4,-0.3 0.8,-0.6 1.2,-0.9 -0.1,-0.1 -0.1,-0.2 -0.1,-0.2 2.2,-2.1 4.3,-3.9 6.5,-5.2 0.8,-0.7 1.8,-1.5 3.2,-2.3 0.7,-0.5 1.5,-1 2.2,-1.4 0.4,-0.1 0.7,-0.1 0.9,-0.2 1.8,-1.1 3.5,-2 5,-2.8 -0.4,0.1 -0.7,0 -1,-0.1 0.5,0 1,-0.1 1.6,-0.1 2.3,-1.1 4.4,-1.9 6.3,-2.3 0.9,-0.3 1.7,-0.6 2.5,-0.7 1.1,-0.4 2.1,-0.5 2.9,-0.4 h 0.5 c 0.2,-0.1 0.5,-0.1 0.7,-0.1 h 2.6 c 0.1,-0.1 0.2,-0.1 0.3,-0.1 h -0.4 c 0,0 -0.1,0 -0.1,-0.1 -0.3,0 -0.5,0 -0.8,-0.1 -0.5,0 -1.1,-0.1 -1.5,-0.1 -0.1,-0.1 -0.3,-0.1 -0.5,-0.1 h -5.6 c -1.5,0.1 -3,0.4 -4.5,0.5 -7,0.8 -12.9,1.6 -17.6,2.5 -4.9,0.8 -9.6,1.9 -14.2,3.1 -6.3,1.8 -10.8,4 -13.4,6.5 -0.3,0.3 -0.5,0.6 -0.8,0.9 -0.4,0.2 -0.6,0.5 -1,0.7 -3.1,2.6 -4.8,5.2 -5,7.6 0,0.2 0,0.3 -0.1,0.4 z m 7.7,45.3 c 0.2,-0.1 0.3,-0.2 0.4,-0.2 0,-0.2 0,-0.3 -0.1,-0.4 -0.1,0.2 -0.2,0.4 -0.3,0.6 m 99.9,-30.1 c -0.1,0.1 -0.2,0.2 -0.3,0.4 -0.9,1.3 -1.9,3.1 -3.2,5.3 -5.5,10.8 -9.2,21.8 -11.1,33 17.2,-2.6 34.6,-2.6 51.8,0 -1.9,-11.2 -5.7,-22.2 -11.2,-33 -1.2,-2.2 -2.2,-4 -3.1,-5.3 -0.1,-0.2 -0.2,-0.3 -0.3,-0.4 -2.6,-4.1 -6.3,-6.3 -10.9,-6.6 -0.1,0.1 -0.1,0.1 -0.2,0 h -0.6 v 0.1 c -4.6,0.3 -8.3,2.5 -10.9,6.5 m -12.5,0.6 c 0.1,0.4 0.3,0.7 0.3,1.1 0.1,0.1 0.2,0.4 0.2,0.9 0.3,-1 0.6,-2 0.9,-2.6 1.2,-2.6 2.8,-5.1 4.6,-7.4 5.1,-6.4 10.9,-9.7 17.4,-10 h 0.4 0.4 c 6.6,0.3 12.3,3.6 17.3,10 1.9,2.3 3.4,4.8 4.6,7.4 0.4,0.6 0.7,1.6 0.9,2.6 0.1,-0.5 0.1,-0.8 0.3,-0.9 0,-0.4 0.1,-0.7 0.2,-1.1 1.1,-5.5 0,-10.8 -3.5,-16 -3.5,-5.3 -8.4,-8.5 -14.7,-9.5 -1.7,-0.4 -3.3,-0.5 -5.1,-0.5 h -0.2 -0.4 -0.2 c -1.8,0 -3.5,0.1 -5.1,0.5 -6.4,1 -11.3,4.2 -14.8,9.5 -3.4,5.2 -4.5,10.5 -3.5,16 m 23.3,100.8 h 0.2 -0.1 z m -25.5,5.3 c 2.7,-3.5 4.6,-7.4 5.4,-11.7 l 0.6,-5.6 v -0.5 l -0.6,-5.7 c -0.8,-4.5 -2.6,-8.5 -5.4,-12.1 -0.8,-1 -1.7,-2 -2.7,-3 -5.1,-5.1 -11.1,-8 -18.1,-8.5 -0.9,0 -1.8,-0.1 -2.6,-0.1 -1.8,0 -3.4,0.1 -5.1,0.4 -3.7,0.6 -7,1.8 -10.2,3.7 -2,1.3 -3.8,2.8 -5.6,4.5 -0.1,0.2 -0.4,0.4 -0.5,0.6 -0.6,0.7 -1.2,1.3 -1.7,2 -2.6,3.1 -4.3,6.6 -5.3,10.4 -0.3,1 -0.5,1.9 -0.6,2.8 l -0.4,5 v 0.5 l 0.5,5.7 c 0.4,2 1,3.8 1.8,5.6 1.5,3.3 3.6,6.3 6.2,9 2.9,2.9 6,5 9.5,6.4 0.7,0.3 1.5,0.6 2.3,0.8 2.8,1 5.8,1.4 9.1,1.4 8.1,0 15,-2.9 20.7,-8.6 0.2,-0.1 0.3,-0.2 0.4,-0.3 0.8,-0.8 1.5,-1.7 2.3,-2.7 m 89.499996,-193.9 c -1.2,0.3 -2.4,0.8 -3.8,1.2 -2.6,0.7 -5.7,1.4 -9.1,2 0,0.1 -0.1,0.1 -0.3,0.1 -0.5,0.2 -1.6,0.5 -3.4,0.9 h -2.399996 c -3.1,0.5 -6.4,0.8 -10.1,0.9 h -4 l -1.5,0.2 h -10.5 -1.1 -0.6 c 1,0.3 2,0.5 3.2,0.8 3.8,0.9 7.2,1.4 9.9,1.5 h 8.8 l 0.5,-0.1 h 5.5 l 0.5,-0.2 h 15.299996 c 3.3,-0.1 6.2,-0.4 8.9,-0.6 1.7,-0.2 3.2,-0.4 4.7,-0.5 2.1,-0.2 4,-0.4 5.7,-0.7 4.5,-0.8 8.3,-1.5 11.4,-2 2.9,-0.4 6.2,-1.2 9.9,-2.3 3.6,-1.1 6,-2.2 7.2,-3.2 1.6,-0.8 2.9,-1.5 3.8,-2.3 1.5,-1.2 2.2,-2.5 2.2,-4 0,0 0,-0.5 -0.1,-1.4 0.1,-0.2 0.1,-0.4 0.1,-0.6 0,0 0,-0.2 -0.1,-0.2 -0.3,-0.7 -0.5,-1.2 -0.9,-1.5 -2.5,-2.7 -6,-4 -10.5,-4 -0.5,0 -1.8,0.1 -3.9,0.3 -1.2,0.4 -2.6,0.7 -4.1,1.1 -3,0.9 -5.9,1.7 -8.5,2.6 -2.1,1.1 -5,2.8 -8.6,4.9 -0.9,0.6 -2,1.1 -3.4,1.8 h 0.3 c -0.6,0.3 -1.3,0.6 -1.9,0.9 -2,1 -4.4,2.1 -7,3.4 -0.6,0.3 -1.3,0.6 -2.1,1 m 15.2,24.3 c 0.3,0.1 0.5,0.1 0.8,0.1 0.1,0 0.2,0 0.2,-0.1 z m -40.599996,-13.8 c 2.1,-0.7 3.6,-1.3 4.5,-1.6 h 0.2 c 1,-0.3 1.8,-0.6 2.7,-0.9 1.999996,-0.5 3.499996,-0.9 4.899996,-1.1 1.9,-0.4 4,-0.8 6.2,-1.1 2.5,-0.3 5.2,-0.7 8.1,-0.9 1.7,-0.1 2.8,-0.1 3.5,-0.2 0.4,-0.1 0.8,-0.2 1.2,-0.2 h 10.1 v -0.1 h -0.5 c 14,24.2 12,23.9 9.3,23.7 h -4.7 c -1.4,-0.3 -4.5,-0.7 -9.2,-1.3 h -0.7 c -0.4,-0.1 -0.7,-0.2 -1.1,-0.2 -1.3,-0.2 -2.6,-0.3 -4.2,-0.4 -0.1,0 -0.1,0 -0.2,-0.1 h -0.1 c -0.3,0 -0.5,-0.1 -0.9,-0.2 h -0.2 c -0.3,0.2 -0.7,0.2 -1.2,0.2 -0.3,-0.1 -0.7,-0.2 -1.2,-0.3 -0.5,0 -1.1,-0.2 -1.9,-0.5 -0.1,0.8 -0.2,1.4 -0.3,1.9 -1.3,0.5 -2.4,0.9 -3.2,1.2 -0.7,0.3 -1.5,0.5 -2.2,0.8 -3.6,1.2 -7.2,2.7 -10.8,4.2 -2.699996,1.3 -5.299996,2.8 -7.699996,4.5 -0.3,0.2 -0.6,0.4 -0.9,0.5 l -0.1,0.2 c -3.6,3.1 -6.2,5.8 -7.8,8.2 -2.6,3.8 -4.5,6.5 -5.5,8.3 -0.3,0.3 -0.7,1.1 -1.3,2 -0.5,0.8 -0.8,1.6 -1.1,2.2 0,0.3 -0.1,0.6 -0.1,0.9 0.3,-0.4 0.5,-0.8 0.8,-1.1 0.8,-1.3 1.5,-2.1 1.9,-2.6 3.3,-4.2 6.3,-7.6 9.2,-10.2 1.8,-1.6 4.1,-3.4 6.9,-5.1 2.7,-1.9 5.599996,-3.4 8.299996,-4.7 1,-0.4 2.5,-1 4.5,-1.7 m 63.9,42.5 c 1.1,-1.2 1.6,-2.6 1.6,-4.1 v -1.2 -0.1 c 0,-0.1 -0.1,-0.2 -0.1,-0.4 -0.1,-2.4 -1.8,-5 -5,-7.6 -0.3,-0.2 -0.6,-0.5 -1,-0.7 -0.2,-0.3 -0.5,-0.6 -0.7,-0.9 -2.6,-2.5 -7.1,-4.7 -13.4,-6.5 -4.6,-1.2 -9.3,-2.3 -14.2,-3.1 -4.7,-0.9 -10.7,-1.7 -17.7,-2.5 -1.1,-0.1 -2.4,-0.3 -3.5,-0.4 -0.4,0 -0.6,0 -1,-0.1 h -5.6 c -0.6,0.1 -1.3,0.1 -2,0.2 -0.4,0.1 -0.9,0.2 -1.2,0.2 0.1,0 0.2,0 0.3,0.1 h 0.5 c 0.3,-0.1 0.5,-0.1 0.5,-0.2 h 0.6 c 0.4,0.1 1.2,0.1 2,0.1 -0.1,0 -0.1,0 -0.1,-0.1 2,0.2 3.6,0.4 5.1,0.7 h 0.2 0.1 c 2.4,0.1 5.9,1.2 10.6,3.6 4.3,2 7.5,4 9.8,5.9 2.3,1.9 4.4,3.8 6.2,5.7 2.1,2.4 3.5,4.3 3.9,5.7 0.1,0.2 0.1,0.2 0.2,0.3 h 0.1 c 0.2,0.3 0.3,0.5 0.7,0.8 h 0.1 v 0.1 c 1.7,1.9 2.7,2.9 3,3.1 1.9,1.7 4,2.8 6.3,3.4 1.3,0.5 2.7,0.8 4.2,0.8 h 2.8 c 3,-0.3 5.2,-1.3 6.7,-2.8 m -6.5,39.8 c 0.2,0 0.3,0.1 0.4,0.2 0,-0.2 -0.1,-0.4 -0.3,-0.6 0,0.1 0,0.2 -0.1,0.4 m -34.2,70.8 c 0.7,-1.8 1.3,-3.6 1.7,-5.6 l 0.6,-5.7 v -0.5 l -0.4,-5 c -0.2,-0.9 -0.3,-1.8 -0.6,-2.8 -1,-3.8 -2.7,-7.3 -5.3,-10.4 -0.5,-0.7 -1.1,-1.3 -1.7,-2 -0.2,-0.2 -0.4,-0.4 -0.6,-0.6 -1.7,-1.7 -3.6,-3.2 -5.6,-4.5 -3.1,-1.9 -6.5,-3.1 -10.1,-3.7 -1.7,-0.3 -3.3,-0.4 -5.1,-0.4 -0.8,0 -1.7,0.1 -2.6,0.1 -7.099996,0.5 -13.099996,3.4 -18.199996,8.5 -0.9,1 -1.9,2 -2.6,3 -2.8,3.6 -4.7,7.6 -5.4,12.1 l -0.6,5.7 v 0.5 l 0.6,5.6 c 0.8,4.3 2.6,8.2 5.4,11.7 0.7,1 1.5,1.9 2.3,2.7 l 0.3,0.3 c 5.7,5.7 12.6,8.6 20.799996,8.6 3.2,0 6.2,-0.4 9.1,-1.4 0.7,-0.2 1.6,-0.5 2.3,-0.8 3.4,-1.4 6.5,-3.5 9.4,-6.4 2.7,-2.7 4.8,-5.7 6.3,-9 m 0.8,-37.7 c 0.3,0.2 0.4,0.5 0.7,0.6 6.9,7.3 10.3,16 10.3,26 0,10.4 -3.6,19.3 -11,26.6 -7.1,7.1 -15.6,10.7 -25.6,11 h -1.1 -0.1 c -8.699996,0 -16.899996,-2.3 -24.499996,-6.8 -7,-4.1 -12.8,-8.2 -17.4,-12.2 -5.8,-5 -11.5,-5 -17.3,0 -4.5,4 -10.3,8.1 -17.3,12.2 -7.7,4.5 -15.8,6.8 -24.5,6.8 h -0.2 -1.1 c -9.9,-0.3 -18.5,-3.9 -25.5,-11 -7.4,-7.3 -11.1,-16.2 -11.1,-26.6 0,-10 3.5,-18.7 10.4,-26 0.2,-0.1 0.4,-0.4 0.7,-0.6 7.3,-7.4 16.2,-11 26.6,-11 2.7,0 5.2,0.2 7.6,0.6 1,0.3 2,0.5 3,0.8 l 13.1,3 c 1.2,0.5 2.5,1.1 3.7,1.6 1.9,0.9 3.5,1.8 4.8,2.7 -0.3,-0.7 -0.7,-1.6 -1.2,-2.8 -0.7,-1.7 -1.2,-2.8 -1.4,-3.3 -0.6,-1.6 -2.7,-3.6 -6.5,-6.1 -1.2,-0.9 -2.4,-1.6 -3.4,-2.4 -1.2,-0.5 -1.9,-0.9 -2.2,-1 -0.6,-0.5 -1.2,-0.9 -1.8,-1.3 l -0.3,-0.2 c -0.1,0 -0.2,-0.1 -0.2,-0.1 -1.8,-1.5 -3.2,-3.2 -4.3,-5.1 -0.4,-0.6 -1.2,-2.3 -2.7,-5.3 -0.6,-1.1 -1.3,-2.9 -2.2,-5.2 -0.8,-2.3 -1.6,-4 -2.2,-5.3 -0.5,-0.9 -1.1,-1.7 -1.8,-2.5 -0.6,-0.7 -1.4,-1.4 -2.3,-2 -1.4,-1.1 -2.8,-1.9 -4.2,-2.5 -0.3,-0.1 -0.7,-0.3 -1.1,-0.5 -9.4,-3.2 -17.2,-1.9 -23.7,4.2 -0.5,0.4 -1.1,0.9 -1.6,1.4 -2.7,2.7 -6.7,8.5 -12.1,17.5 -5.5,9.2 -10.7,16.2 -15.6,21.2 -7,7.3 -15.5,13.2 -25.5,17.5 -7.6,2.1 -15.5,2.1 -23.700004,0 -13.7,-3.2 -24.3,-10 -31.8,-20.3 -4.5,-6 -7.5,-12.4 -8.8,-18.8 -0.8,-3.2 -1.2,-6.7 -1.2,-10.3 v -6.3 c 0.1,-1 0.9,-3.8 2.3,-8.5 0.6,-2.3 2.4,-5.1 5.2,-8.5 2.5,-2.9 4.9,-4.7 7.1,-5.6 -0.5,0.7 -0.9,1.5 -1.2,2.3 -0.5,1 -0.9,2.1 -1.2,3.2 -0.1,0.4 -0.2,0.6 -0.2,1 -0.4,0.4 -0.5,1.1 -0.6,2 -0.6,2.1 -1.1,3.7 -1.5,4.8 -0.3,0.7 -0.4,1.3 -0.6,2.1 -0.8,3 -1.2,6.2 -1.2,9.7 0,2.7 0.8,6 2.2,10.1 1.5,4.3 3.1,7.3 4.8,9.2 2.7,2.9 4.2,4.5 4.4,4.7 2,1.9 4.1,3.4 6.4,4.6 5.9,3.1 9.9,4.8 12.2,5.1 1.7,0.4 3.3,0.6 4.9,0.6 4.200004,0 8.300004,-0.5 12.100004,-1.5 12.3,-3.8 21.7,-12.4 28.2,-25.6 1.7,-3.7 4.8,-8.4 9.2,-14.2 1.3,-1.2 3.3,-3.6 5.9,-7 1.5,-1.9 3.5,-4 5.8,-6 3.2,-2.8 8.1,-5.9 14.8,-9.2 6.6,-3.3 11.5,-5.1 14.5,-5.5 2.9,-0.4 5.4,-0.6 7.5,-0.5 2,0 3,-0.1 3,-0.4 -2.6,-0.6 -6,-0.9 -10,-0.9 -6.3,0 -11.4,0.7 -15.2,1.9 -2.2,0.8 -4.7,2.1 -7.6,4 -9.2,6.6 -18.7,8.5 -28.6,5.6 -1.9,-0.7 -3.6,-1.7 -5.2,-2.9 -3.3,-2.3 -5.9,-5.7 -7.6,-9.8 -0.2,-0.4 -0.3,-0.9 -0.5,-1.3 0,-0.1 -0.1,-0.2 -0.2,-0.4 h 0.1 c -1.1,-4.1 -1.6,-8.7 -1.3,-13.8 0.1,-5.4 1.5,-9.7 4,-13.1 2.5,-3.4 4.2,-5.7 5.3,-6.9 3.2,-3.1 6.6,-5.3 10.3,-6.5 2.9,-0.9 5.5,-1.8 7.8,-2.3 -7.6,-1.5 -13.7,-5.2 -18.3,-11.2 -4,-5.2 -6,-10.4 -6,-15.5 0,-2 0.2,-3.7 0.5,-5.2 0.4,-1.5 1,-3.3 1.9,-5.2 0.8,-1.8 1.8,-3.4 2.9,-4.8 2.8,-5 7.2,-8.2 12.8,-9.4 1.6,-0.3 3.4,-0.6 5.2,-0.6 h 4.3 c 3.1,0.5 6.3,1.2 9.7,2.3 1.1,0.3 2.1,0.6 3.1,1 -3.6,-3.8 -6.1,-7.2 -7.7,-10 -6.6,-9.8 -9.2,-19.6 -8.1,-29.3 0.5,-4.8 2,-9.5 4.5,-14.3 6.2,-10.6 16.4,-16.8 30.8,-18.8 4.9,-0.3 9.6,0 14,0.9 8.5,2 15.5,6.3 20.9,13.1 1.8,2.2 3.6,4.9 5.1,7.7 0.2,0.5 0.5,1 0.7,1.5 l 1.3,2.9 c -1.4,-2.2 -2.3,-3.5 -2.7,-4 -0.1,0 -0.1,0 -0.2,-0.1 -3.5,-3.4 -5.5,-5.3 -6.1,-5.7 -0.4,-0.3 -0.8,-0.6 -1.1,-0.8 -0.8,-0.4 -1.5,-0.8 -2.3,-1.3 -6.5,-3.5 -13.6,-5.2 -21.5,-5.2 -1.3,0 -2.5,0 -3.6,0.2 -0.4,0 -0.9,0 -1.3,0.1 -14.8,2.7 -21.9,10.5 -21.1,23.3 v 0.5 c 0.2,6.8 2.8,13.4 7.8,19.8 0.7,0.9 1.4,1.7 2.1,2.4 0.1,0.1 0.1,0.2 0.3,0.3 5.6,5.5 12.9,10.2 22.2,14.3 1.7,1 3.6,2.1 5.5,3.1 0.2,0.1 0.5,0.4 0.8,0.5 1.2,0.6 2.3,1.2 3.6,1.8 3.2,1.6 6.6,3.1 10.2,4.5 3.8,1.6 7.9,3.8 12,6.9 0,0.1 0.1,0.2 0.2,0.2 1.3,1.3 3.3,3.4 6,6.4 3.2,3.6 6,7.6 8.4,12 2,3.6 3.9,7.9 5.7,12.7 0.6,2.2 1.2,4 1.7,5.7 0.1,0.3 0.3,0.7 0.4,1 v 2.3 c 0.1,-0.3 0.2,-0.7 0.4,-1.1 0.2,-0.4 0.2,-0.8 0.4,-1.2 0.2,-0.3 0.3,-0.7 0.3,-1 0.5,-1.7 1.1,-3.5 1.8,-5.7 1.7,-4.8 3.7,-9.1 5.7,-12.7 2.4,-4.4 5.1,-8.4 8.4,-12 2.6,-3 4.6,-5.1 6,-6.4 0,0 0.1,-0.1 0.1,-0.2 4.2,-3.1 8.3,-5.3 12.1,-6.9 3.6,-1.4 7,-2.9 10.2,-4.5 1.199996,-0.6 2.399996,-1.2 3.599996,-1.8 0.2,-0.1 0.6,-0.4 0.8,-0.5 1.9,-1 3.7,-2.1 5.4,-3.1 9.3,-4.1 16.7,-8.8 22.3,-14.3 0.1,-0.1 0.2,-0.2 0.3,-0.3 0.7,-0.7 1.3,-1.5 2.1,-2.4 5,-6.4 7.6,-13 7.7,-19.8 v -0.5 c 0.9,-12.8 -6.2,-20.6 -21.1,-23.3 -0.4,-0.1 -0.8,-0.1 -1.2,-0.1 -1.2,-0.2 -2.3,-0.2 -3.6,-0.2 -7.9,0 -15.1,1.7 -21.599996,5.2 -0.4,0.3 -0.8,0.5 -1.2,0.8 -0.8,0.4 -1.5,0.9 -2.2,1.3 -0.5,0.4 -2.3,2.1 -5.6,5.2 l -0.5,0.5 c 0,0.1 -0.1,0.1 -0.1,0.1 -0.4,0.5 -1.4,1.8 -2.8,4 l 1.4,-2.9 c 0.3,-0.7 0.6,-1.3 1,-2 1.5,-2.9 3.4,-5.5 5.3,-7.8 5.3,-6.4 12.099996,-10.6 20.299996,-12.5 4.5,-0.9 9.2,-1.2 14,-0.9 14.4,2 24.7,8.2 30.9,18.8 2.4,4.8 3.9,9.5 4.5,14.3 1.1,9.7 -1.6,19.5 -8.1,29.3 -1.6,2.8 -4.1,6.2 -7.7,10 0.9,-0.4 1.9,-0.7 3.1,-1 3.3,-1.1 6.6,-1.8 9.6,-2.3 h 4.4 c 1.8,0 3.6,0.3 5.2,0.6 5.6,1.2 9.9,4.4 12.8,9.4 1.1,1.4 2.1,3 2.9,4.8 0.9,1.9 1.5,3.7 1.8,5.2 0.4,1.5 0.5,3.2 0.5,5.2 0,5.1 -2,10.3 -6,15.5 -4.6,6 -10.6,9.7 -18.2,11.2 2.3,0.5 4.8,1.4 7.7,2.3 3.8,1.2 7.2,3.4 10.4,6.5 1,1.2 2.8,3.5 5.2,6.9 2.5,3.4 3.9,7.7 4.1,13.1 0.2,5.1 -0.2,9.7 -1.3,13.8 0,0.2 -0.1,0.3 -0.1,0.4 -0.2,0.4 -0.3,0.9 -0.5,1.3 -1.8,4.1 -4.3,7.5 -7.7,9.8 -1.5,1.2 -3.2,2.2 -5.2,2.9 -9.9,2.9 -19.4,1 -28.5,-5.6 -3,-1.9 -5.5,-3.2 -7.6,-4 -3.9,-1.2 -8.9,-1.9 -15.2,-1.9 -4.1,0 -7.4,0.3 -10,0.9 0,0.3 1,0.4 3,0.4 2,-0.1 4.5,0.1 7.5,0.5 2.9,0.4 7.8,2.2 14.4,5.5 6.8,3.3 11.7,6.4 14.9,9.2 2.3,2 4.2,4.1 5.8,6 2.6,3.4 4.6,5.8 5.9,7 4.4,5.8 7.4,10.5 9.2,14.2 6.5,13.2 15.9,21.8 28.1,25.6 3.9,1 8,1.5 12.2,1.5 1.5,0 3.2,-0.2 4.8,-0.6 2.4,-0.3 6.4,-2 12.2,-5.1 2.3,-1.2 4.4,-2.7 6.4,-4.6 0.3,-0.2 1.8,-1.8 4.4,-4.7 1.7,-1.9 3.4,-4.9 4.9,-9.2 1.4,-4.1 2.1,-7.4 2.1,-10.1 0,-3.5 -0.4,-6.7 -1.1,-9.7 -0.2,-0.8 -0.4,-1.4 -0.7,-2.1 -0.3,-1.1 -0.8,-2.7 -1.5,-4.8 0,-0.9 -0.1,-1.6 -0.5,-2 -0.1,-0.4 -0.1,-0.6 -0.2,-1 -0.4,-1.1 -0.8,-2.2 -1.2,-3.2 -0.3,-0.8 -0.8,-1.6 -1.2,-2.3 2.1,0.9 4.5,2.7 7,5.6 2.9,3.4 4.6,6.2 5.3,8.5 1.3,4.7 2.1,7.5 2.2,8.5 0.1,0.3 0.1,2.4 0.1,6.3 0,3.6 -0.4,7.1 -1.2,10.3 -1.4,6.4 -4.4,12.8 -8.8,18.8 -7.6,10.3 -18.1,17.1 -31.8,20.3 -8.3,2.1 -16.2,2.1 -23.7,0 -10,-4.3 -18.6,-10.2 -25.6,-17.5 -4.9,-5 -10,-12 -15.5,-21.2 -5.5,-9 -9.5,-14.8 -12.1,-17.5 -0.5,-0.5 -1.1,-1 -1.6,-1.4 -6.5,-6.1 -14.4,-7.4 -23.8,-4.2 -0.3,0.2 -0.7,0.4 -1,0.5 -1.5,0.6 -2.9,1.4 -4.2,2.5 -0.9,0.6 -1.8,1.3 -2.4,2 -0.6,0.8 -1.2,1.6 -1.8,2.5 -0.6,1.3 -1.299996,3 -2.199996,5.3 -0.9,2.3 -1.5,4.1 -2.1,5.2 -1.5,3 -2.4,4.7 -2.7,5.3 -1.1,1.9 -2.6,3.6 -4.3,5.1 l -0.2,0.1 -0.3,0.2 c -0.6,0.4 -1.3,0.8 -1.9,1.3 -0.3,0.1 -0.9,0.5 -2.1,1 -1,0.8 -2.2,1.5 -3.4,2.4 -3.8,2.5 -5.9,4.5 -6.5,6.1 -0.2,0.5 -0.7,1.6 -1.4,3.3 -0.6,1.2 -1,2.1 -1.2,2.8 1.2,-0.9 2.8,-1.8 4.7,-2.7 1.3,-0.5 2.5,-1.1 3.8,-1.6 l 13.1,-3 c 1,-0.3 2,-0.5 3,-0.8 2.4,-0.4 4.899996,-0.6 7.499996,-0.6 10.5,0 19.4,3.6 26.7,11"
               id="path3017"
               inkscape:connector-curvature="0"
               style="fill:#13c100;fill-rule:nonzero" />
          </g>
          <g
             id="g3019">
            <path
               d="m 108.92686,624.66856 c 1.3,-0.7 2.5,-1.5 3.6,-2.7 2.5,-2.5 3.8,-5.6 3.8,-9.2 0,-3.6 -1.3,-6.7 -3.8,-9.2 -0.5,-0.5 -1,-0.9 -1.5,-1.4 -2.3,-1.6 -4.9,-2.5 -7.8,-2.5 -1.5,0 -2.9,0.2 -4.200001,0.6 -0.4,0.2 -0.7,0.3 -1,0.4 h 0.1 c 1,0 1.900001,0.3 2.600001,0.7 0.2,0.1 0.4,0.2 0.5,0.3 0.2,0.1 0.3,0.2 0.4,0.3 1,1 1.5,2.2 1.5,3.8 0,0.9 -0.2,1.7 -0.7,2.6 -0.4,0.8 -0.9,1.3 -1.6,1.7 -0.7,0.4 -1.600001,0.7 -2.700001,0.7 -1.7,0 -3,-0.6 -4,-2 -0.6,-1 -1,-2 -1,-3 0,-0.3 0,-0.5 0.1,-0.8 0,-0.3 0.1,-0.5 0.2,-0.8 -2.3,2.4 -3.3,5.3 -3.3,8.6 v 1.7 c 0.4,2.9 1.7,5.4 3.9,7.5 0.6,0.7 1.2,1.3 1.9,1.7 h 0.1 c 2.1,1.5 4.500001,2.3 7.200001,2.3 1.5,0 2.9,-0.3 4.3,-0.7 0.3,-0.1 0.6,-0.3 1,-0.5 0.1,0 0.2,-0.1 0.4,-0.1 m 23.2,10.5 c -0.4,2 -1,3.8 -1.7,5.6 -1.5,3.3 -3.6,6.3 -6.3,9 -2.9,2.9 -6,5 -9.4,6.4 -0.7,0.3 -1.6,0.6 -2.3,0.8 -2.9,1 -5.9,1.4 -9.1,1.4 -8.200001,0 -15.100001,-2.9 -20.800001,-8.6 l -0.3,-0.3 c -0.8,-0.8 -1.6,-1.7 -2.3,-2.7 -2.8,-3.5 -4.6,-7.4 -5.4,-11.7 l -0.6,-5.6 v -0.5 l 0.6,-5.7 c 0.7,-4.5 2.6,-8.5 5.4,-12.1 0.7,-1 1.7,-2 2.6,-3 5.1,-5.1 11.1,-8 18.200001,-8.5 0.9,0 1.8,-0.1 2.6,-0.1 1.8,0 3.4,0.1 5.1,0.4 3.6,0.6 7,1.8 10.1,3.7 2,1.3 3.9,2.8 5.6,4.5 0.2,0.2 0.4,0.4 0.6,0.6 0.6,0.7 1.2,1.3 1.7,2 2.6,3.1 4.3,6.6 5.3,10.4 0.3,1 0.4,1.9 0.6,2.8 l 0.4,5 v 0.5 z"
               id="path3021"
               inkscape:connector-curvature="0"
               style="fill:#ffffff;fill-rule:nonzero" />
          </g>
          <g
             id="g3023">
            <path
               d="m 112.52696,621.96885 c -1.1,1.2 -2.3,2 -3.6,2.7 -0.2,0 -0.3,0.10001 -0.4,0.10001 -0.4,0.2 -0.7,0.39999 -1,0.5 -1.4,0.39999 -2.8,0.7 -4.3,0.7 -2.7,0 -5.100003,-0.8 -7.200003,-2.3 h -0.1 c -0.7,-0.4 -1.3,-1 -1.9,-1.7 -2.2,-2.1 -3.5,-4.6 -3.9,-7.5 v -1.7 c 0,-3.3 1,-6.20001 3.3,-8.60001 -0.1,0.3 -0.2,0.5 -0.2,0.8 -0.1,0.3 -0.1,0.5 -0.1,0.8 0,1 0.4,2 1,3 1,1.4 2.3,2 4,2 1.1,0 2.000003,-0.3 2.700003,-0.7 0.7,-0.4 1.2,-0.9 1.6,-1.7 0.5,-0.9 0.7,-1.7 0.7,-2.6 0,-1.6 -0.5,-2.8 -1.5,-3.8 -0.1,-0.1 -0.2,-0.2 -0.4,-0.3 -0.1,-0.1 -0.3,-0.2 -0.5,-0.3 -0.7,-0.4 -1.600003,-0.7 -2.600003,-0.7 h -0.1 c 0.3,-0.1 0.6,-0.2 1,-0.4 1.300003,-0.4 2.700003,-0.6 4.200003,-0.6 2.9,0 5.5,0.9 7.8,2.5 0.5,0.5 1,0.9 1.5,1.4 2.5,2.5 3.8,5.6 3.8,9.2 0,3.6 -1.3,6.7 -3.8,9.2"
               id="path3025"
               inkscape:connector-curvature="0"
               style="fill:#000000;fill-rule:nonzero" />
          </g>
          <g
             id="g3027">
            <path
               d="m 165.02696,570.16856 c -0.1,-0.1 -0.2,-0.2 -0.4,-0.2 0.1,-0.2 0.1,-0.3 0.1,-0.4 0.2,0.2 0.3,0.4 0.3,0.6"
               id="path3029"
               inkscape:connector-curvature="0"
               style="fill:#678c5d;fill-rule:nonzero" />
          </g>
          <g
             id="g3031">
            <path
               d="m 172.72715,526.06895 c 0,1.5 -0.5,2.9 -1.6,4.1 -1.5,1.5 -3.7,2.5 -6.7,2.8 h -2.8 c -1.5,0 -2.9,-0.3 -4.2,-0.8 -2.3,-0.6 -4.4,-1.7 -6.3,-3.4 -0.3,-0.2 -1.3,-1.2 -3,-3.1 v -0.1 h -0.1 c -0.4,-0.3 -0.5,-0.5 -0.7,-0.8 h -0.1 c -0.1,-0.1 -0.1,-0.1 -0.2,-0.3 -0.4,-1.4 -1.8,-3.3 -3.9,-5.7 -1.8,-1.9 -3.9,-3.8 -6.2,-5.7 -2.3,-1.9 -5.5,-3.9 -9.8,-5.9 -4.7,-2.4 -8.2,-3.5 -10.6,-3.6 h -0.1 -0.2 c -1.5,-0.3 -3.1,-0.5 -5.1,-0.7 0,0.1 0,0.1 0.1,0.1 -0.8,0 -1.6,0 -2,-0.1 h -0.6 c 0,0.1 -0.2,0.1 -0.5,0.2 h -0.5 c -0.1,-0.1 -0.2,-0.1 -0.3,-0.1 0.3,0 0.8,-0.1 1.2,-0.2 0.7,-0.1 1.4,-0.1 2,-0.2 h 5.6 c 0.4,0.1 0.6,0.1 1,0.1 1.1,0.1 2.4,0.3 3.5,0.4 7,0.8 13,1.6 17.7,2.5 4.9,0.8 9.6,1.9 14.2,3.1 6.3,1.8 10.8,4 13.4,6.5 0.2,0.3 0.5,0.6 0.7,0.9 0.4,0.2 0.7,0.5 1,0.7 3.2,2.6 4.9,5.2 5,7.6 0,0.2 0.1,0.3 0.1,0.4 v 0.1 z"
               id="path3033"
               inkscape:connector-curvature="0"
               style="fill:#169300;fill-rule:nonzero" />
          </g>
          <g
             id="g3035">
            <path
               d="m 111.72715,486.06895 c -0.9,0.3 -2.4,0.9 -4.5,1.6 -2,0.7 -3.5,1.3 -4.5,1.7 -2.7,1.3 -5.599998,2.8 -8.299998,4.7 -2.8,1.7 -5.1,3.5 -6.9,5.1 -2.9,2.6 -5.9,6 -9.2,10.2 -0.4,0.5 -1.1,1.3 -1.9,2.6 -0.3,0.3 -0.5,0.7 -0.8,1.1 0,-0.3 0.1,-0.6 0.1,-0.9 0.3,-0.6 0.6,-1.4 1.1,-2.2 0.6,-0.9 1,-1.7 1.3,-2 1,-1.8 2.9,-4.5 5.5,-8.3 1.6,-2.4 4.2,-5.1 7.8,-8.2 l 0.1,-0.2 c 0.3,-0.1 0.6,-0.3 0.9,-0.5 2.4,-1.7 5,-3.2 7.699998,-4.5 3.6,-1.5 7.2,-3 10.8,-4.2 0.7,-0.3 1.5,-0.5 2.2,-0.8 0.8,-0.3 1.9,-0.7 3.2,-1.2 0.1,-0.5 0.2,-1.1 0.3,-1.9 0.8,0.3 1.4,0.5 1.9,0.5 0.5,0.1 0.9,0.2 1.2,0.3 0.5,0 0.9,0 1.2,-0.2 h 0.2 c 0.4,0.1 0.6,0.2 0.9,0.2 h 0.1 c 0.1,0.1 0.1,0.1 0.2,0.1 1.6,0.1 2.9,0.2 4.2,0.4 0.4,0 0.7,0.1 1.1,0.2 h 0.7 c 4.7,0.6 7.8,1 9.2,1.3 h 4.7 c 2.7,0.2 4.7,0.5 5.9,0.6 h 0.5 v 0.1 h -10.1 c -0.4,0 -0.8,0.1 -1.2,0.2 -0.7,0.1 -1.8,0.1 -3.5,0.2 -2.9,0.2 -5.6,0.6 -8.1,0.9 -2.2,0.3 -4.3,0.7 -6.2,1.1 -1.4,0.2 -2.9,0.6 -4.9,1.1 -0.9,0.3 -1.7,0.6 -2.7,0.9 z"
               id="path3037"
               inkscape:connector-curvature="0"
               style="fill:#169300;fill-rule:nonzero" />
          </g>
          <g
             id="g3039">
            <path
               d="m 133.42686,477.26866 c -0.3,0 -0.5,0 -0.8,-0.1 h 1 c 0,0.1 -0.1,0.1 -0.2,0.1"
               id="path3041"
               inkscape:connector-curvature="0"
               style="fill:#678c5d;fill-rule:nonzero" />
          </g>
          <g
             id="g3043">
            <path
               d="m 113.62705,454.06895 c 1.4,-0.4 2.6,-0.9 3.8,-1.2 0.8,-0.4 1.5,-0.7 2.1,-1 2.6,-1.3 5,-2.4 7,-3.4 0.6,-0.3 1.3,-0.6 1.9,-0.9 h -0.3 c 1.4,-0.7 2.5,-1.2 3.4,-1.8 3.6,-2.1 6.5,-3.8 8.6,-4.9 2.6,-0.9 5.5,-1.7 8.5,-2.6 1.5,-0.4 2.9,-0.7 4.1,-1.1 2.1,-0.2 3.4,-0.3 3.9,-0.3 4.5,0 8,1.3 10.5,4 0.4,0.3 0.6,0.8 0.9,1.5 0.1,0 0.1,0.2 0.1,0.2 0,0.2 0,0.4 -0.1,0.6 0.1,0.9 0.1,1.4 0.1,1.4 0,1.5 -0.7,2.8 -2.2,4 -0.9,0.8 -2.2,1.5 -3.8,2.3 -1.2,1 -3.6,2.1 -7.2,3.2 -3.7,1.1 -7,1.9 -9.9,2.3 -3.1,0.5 -6.9,1.2 -11.4,2 -1.7,0.3 -3.6,0.5 -5.7,0.7 -1.5,0.1 -3,0.3 -4.7,0.5 -2.7,0.2 -5.6,0.5 -8.9,0.6 H 99.027054 l -0.5,0.2 h -5.5 l -0.5,0.1 h -8.8 c -2.7,-0.1 -6.1,-0.6 -9.9,-1.5 -1.2,-0.3 -2.2,-0.5 -3.2,-0.8 h 0.6 1.1 10.5 l 1.5,-0.2 h 4 c 3.7,-0.1 7,-0.4 10.1,-0.9 h 2.399996 c 1.8,-0.4 2.9,-0.7 3.4,-0.9 0.2,0 0.3,0 0.3,-0.1 3.4,-0.6 6.5,-1.3 9.1,-2"
               id="path3045"
               inkscape:connector-curvature="0"
               style="fill:#169300;fill-rule:nonzero" />
          </g>
          <g
             id="g3047">
            <path
               d="m 17.627054,614.46885 c 0,-0.5 0.1,-1.1 0.1,-1.7 0,-3.3 -1.1,-6.2 -3.3,-8.6 0.1,0.3 0.1,0.5 0.2,0.8 v 0.8 c 0,1 -0.4,2 -1,3 -1,1.4 -2.2,2 -4,2 -1,0 -1.9,-0.3 -2.6,-0.7 -0.7,-0.4 -1.3,-0.9 -1.6,-1.7 -0.5,-0.9 -0.8,-1.7 -0.8,-2.6 0,-1.6 0.5,-2.8 1.5,-3.8 0.2,-0.1 0.3,-0.2 0.5,-0.3 0.1,-0.1 0.3,-0.2 0.4,-0.3 0.7,-0.4 1.6,-0.7 2.6,-0.7 h 0.2 c -0.3,-0.1 -0.7,-0.2 -1.1,-0.4 -1.2,-0.4 -2.6,-0.6 -4.1,-0.6 -3,0 -5.5,0.9 -7.8,2.5 -0.6,0.5 -1.1,0.9 -1.5,1.4 -2.6,2.5 -3.8,5.6 -3.8,9.2 0,3.6 1.2,6.7 3.8,9.2 1.1,1.2 2.3,2 3.6,2.7 0.1,0 0.2,0.1 0.4,0.1 0.3,0.2 0.7,0.4 1,0.5 1.3,0.4 2.8,0.7 4.3,0.7 2.6,0 5,-0.8 7.2,-2.3 h 0.1 c 0.6,-0.39999 1.2,-1 1.9,-1.7 2.2,-2.1 3.4,-4.6 3.8,-7.5 m 15.7,20.6 c -0.8,4.3 -2.7,8.20001 -5.4,11.70001 -0.8,1 -1.5,1.89999 -2.3,2.7 -0.1,0.1 -0.2,0.2 -0.4,0.3 -5.7,5.7 -12.6,8.6 -20.7,8.6 -3.3,0 -6.3,-0.4 -9.1,-1.4 -0.8,-0.2 -1.6,-0.5 -2.3,-0.8 -3.5,-1.4 -6.6,-3.5 -9.5,-6.4 -2.6,-2.7 -4.7,-5.7 -6.2,-9 -0.8,-1.8 -1.4,-3.6 -1.8,-5.6 l -0.5,-5.7 v -0.5 l 0.4,-5 c 0.1,-0.9 0.3,-1.8 0.6,-2.8 1,-3.8 2.7,-7.3 5.3,-10.4 0.5,-0.7 1.1,-1.3 1.7,-2 0.1,-0.2 0.4,-0.4 0.5,-0.6 1.8,-1.7 3.6,-3.2 5.6,-4.5 3.2,-1.9 6.5,-3.1 10.2,-3.7 1.7,-0.3 3.3,-0.4 5.1,-0.4 0.8,0 1.7,0.1 2.6,0.1 7,0.5 13,3.4 18.1,8.5 1,1 1.9,2 2.7,3 2.8,3.6 4.6,7.6 5.4,12.1 l 0.6,5.7 v 0.5 z"
               id="path3049"
               inkscape:connector-curvature="0"
               style="fill:#ffffff;fill-rule:nonzero" />
          </g>
          <g
             id="g3051">
            <path
               d="m 17.727152,612.76866 c 0,0.6 -0.1,1.2 -0.1,1.7 -0.4,2.9 -1.6,5.4 -3.8,7.5 -0.7,0.7 -1.3,1.3 -1.9,1.7 h -0.1 c -2.2,1.5 -4.6,2.3 -7.2,2.3 -1.5,0 -3,-0.3 -4.3,-0.7 -0.3,-0.1 -0.7,-0.3 -1,-0.5 -0.2,0 -0.3,-0.1 -0.4,-0.1 -1.3,-0.7 -2.5,-1.5 -3.6,-2.7 -2.6,-2.5 -3.8,-5.6 -3.8,-9.2 0,-3.6 1.2,-6.7 3.8,-9.2 0.4,-0.5 0.9,-0.9 1.5,-1.4 2.3,-1.6 4.8,-2.5 7.8,-2.5 1.5,0 2.9,0.2 4.1,0.6 0.4,0.2 0.8,0.3 1.1,0.4 h -0.2 c -1,0 -1.9,0.3 -2.6,0.7 -0.1,0.1 -0.3,0.2 -0.4,0.3 -0.2,0.1 -0.3,0.2 -0.5,0.3 -1,1 -1.5,2.2 -1.5,3.8 0,0.9 0.3,1.7 0.8,2.6 0.3,0.8 0.9,1.3 1.6,1.7 0.7,0.4 1.6,0.7 2.6,0.7 1.8,0 3,-0.6 4,-2 0.6,-1 1,-2 1,-3 v -0.8 c -0.1,-0.3 -0.1,-0.5 -0.2,-0.8 2.2,2.4 3.3,5.3 3.3,8.6"
               id="path3053"
               inkscape:connector-curvature="0"
               style="fill:#000000;fill-rule:nonzero" />
          </g>
          <g
             id="g3055">
            <path
               d="m 53.627054,641.46885 h -0.2 0.1 z"
               id="path3057"
               inkscape:connector-curvature="0"
               style="fill:#678c5d;fill-rule:nonzero" />
          </g>
          <g
             id="g3059">
            <path
               d="m 30.426859,541.76866 c 0,-0.4 -0.2,-0.7 -0.3,-1.1 -1,-5.5 0.1,-10.8 3.5,-16 3.5,-5.3 8.4,-8.5 14.8,-9.5 1.6,-0.4 3.3,-0.5 5.1,-0.5 h 0.2 0.4 0.2 c 1.8,0 3.4,0.1 5.1,0.5 6.3,1 11.2,4.2 14.7,9.5 3.5,5.2 4.6,10.5 3.5,16 -0.1,0.4 -0.2,0.7 -0.2,1.1 -0.2,0.1 -0.2,0.4 -0.3,0.9 -0.2,-1 -0.5,-2 -0.9,-2.6 -1.2,-2.6 -2.7,-5.1 -4.6,-7.4 -5,-6.4 -10.7,-9.7 -17.3,-10 h -0.4 -0.4 c -6.5,0.3 -12.3,3.6 -17.4,10 -1.8,2.3 -3.4,4.8 -4.6,7.4 -0.3,0.6 -0.6,1.6 -0.9,2.6 0,-0.5 -0.1,-0.8 -0.2,-0.9"
               id="path3061"
               inkscape:connector-curvature="0"
               style="fill:#169300;fill-rule:nonzero" />
          </g>
          <g
             id="g3063">
            <path
               d="m 54.82725,559.46885 c 1.3,1.2 3.3,1.8 6,1.6 1.1,-0.1 2.1,-0.29999 3,-0.6 3.8,-1.6 5.4,-4.3 5.1,-8.2 -0.4,-2.2 -1.8,-5.1 -4.3,-8.4 -3.2,-4.3 -6.6,-6.7 -10.3,-7 h -0.4 -0.3 -0.1 c -3.7,0.3 -7.1,2.7 -10.4,7 -2.4,3.3 -3.9,6.2 -4.2,8.4 -0.4,3.9 1.3,6.6 5.1,8.2 0.9,0.3 1.9,0.5 3,0.6 2.6,0.20001 4.6,-0.29999 6,-1.6 -1.9,-1.8 -2.1,-4.3 -0.5,-7.7 0.5,3.6 1,5.8 1.4,6.5 0.2,0.5 0.6,0.9 0.9,1.2 m -12.5,-19 c 0.1,-0.2 0.2,-0.3 0.3,-0.4 2.6,-4 6.3,-6.2 10.9,-6.5 v -0.1 h 0.6 c 0.1,0.1 0.1,0.1 0.2,0 4.6,0.3 8.3,2.5 10.9,6.6 0.1,0.1 0.2,0.20001 0.3,0.4 0.9,1.3 1.9,3.1 3.1,5.3 5.5,10.8 9.3,21.8 11.2,33 -17.2,-2.6 -34.6,-2.6 -51.8,0 1.9,-11.2 5.6,-22.2 11.1,-33 1.3,-2.2 2.3,-4 3.2,-5.3"
               id="path3065"
               inkscape:connector-curvature="0"
               style="fill:#000000;fill-rule:nonzero" />
          </g>
          <g
             id="g3067">
            <path
               d="m 53.026957,549.26866 v 0.3 z m 7.8,11.8 c -2.7,0.2 -4.7,-0.4 -6,-1.6 -0.3,-0.3 -0.7,-0.7 -0.9,-1.2 -0.4,-0.7 -0.9,-2.9 -1.4,-6.5 -1.6,3.4 -1.4,5.9 0.5,7.7 -1.4,1.3 -3.4,1.8 -6,1.6 -1.1,-0.1 -2.1,-0.3 -3,-0.6 -3.8,-1.6 -5.5,-4.3 -5.1,-8.2 0.3,-2.2 1.8,-5.1 4.2,-8.4 3.3,-4.3 6.7,-6.7 10.4,-7 h 0.1 0.3 0.4 c 3.7,0.3 7.1,2.7 10.3,7 2.5,3.3 3.9,6.2 4.3,8.4 0.3,3.9 -1.3,6.6 -5.1,8.2 -0.9,0.3 -1.9,0.5 -3,0.6"
               id="path3069"
               inkscape:connector-curvature="0"
               style="fill:#d30000;fill-rule:nonzero" />
          </g>
          <g
             id="g3071">
            <path
               d="m 53.026957,549.56895 v -0.3 z"
               id="path3073"
               inkscape:connector-curvature="0"
               style="fill:#000000;fill-rule:nonzero" />
          </g>
          <g
             id="g3075">
            <path
               d="m -56.872946,569.96885 c -0.1,0 -0.2,0.1 -0.4,0.2 0.1,-0.2 0.2,-0.39999 0.3,-0.6 0.1,0.1 0.1,0.20001 0.1,0.4"
               id="path3077"
               inkscape:connector-curvature="0"
               style="fill:#678c5d;fill-rule:nonzero" />
          </g>
          <g
             id="g3079">
            <path
               d="m -46.772848,511.96886 c -0.4,0.1 -0.8,0.19999 -1.2,0.3 0.3,-0.10001 0.6,-0.10001 1.1,-0.20001 0,0 0.1,0 0.1,-0.1 m -18.2,14.1 v -1.2 -0.1 c 0.1,-0.1 0.1,-0.2 0.1,-0.4 0.2,-2.4 1.9,-5 5,-7.6 0.4,-0.2 0.6,-0.5 1,-0.7 0.3,-0.3 0.5,-0.6 0.8,-0.9 2.6,-2.5 7.1,-4.7 13.4,-6.5 4.6,-1.2 9.3,-2.3 14.2,-3.1 4.7,-0.9 10.6,-1.7 17.6,-2.5 1.5,-0.1 3,-0.4 4.5,-0.5 h 5.6 c 0.2,0 0.4,0 0.5,0.1 0.4,0 1,0.1 1.5,0.1 0.3,0.1 0.5,0.1 0.8,0.1 0,0.1 0.1,0.1 0.1,0.1 h 0.4 c -0.1,0 -0.2,0 -0.3,0.1 h -2.6 c -0.2,0 -0.5,0 -0.7,0.1 h -0.5 c -0.8,-0.1 -1.8,0 -2.9,0.4 -0.8,0.1 -1.6,0.4 -2.5,0.7 -1.9,0.4 -4,1.2 -6.3,2.3 -0.6,0 -1.1,0.1 -1.6,0.1 0.3,0.10001 0.6,0.2 1,0.10001 -1.5,0.8 -3.2,1.7 -5,2.8 -0.2,0.1 -0.5,0.1 -0.9,0.2 -0.7,0.39999 -1.5,0.89999 -2.2,1.39999 -1.4,0.80001 -2.4,1.60001 -3.2,2.3 -2.2,1.3 -4.3,3.1 -6.5,5.2 0,0 0,0.10001 0.1,0.20001 -0.4,0.29999 -0.8,0.6 -1.2,0.9 -0.2,0.29999 -0.4,0.39999 -0.6,0.7 -0.5,0.6 -1.1,1.1 -1.5,1.7 -1,1 -1.9,1.9 -2.6,2.6 -2.3,2.4 -3.5,3.8 -3.8,4 -2,1.7 -4.1,2.8 -6.3,3.4 -1.3,0.5 -2.8,0.8 -4.3,0.8 h -2.7 c -3,-0.3 -5.3,-1.3 -6.7,-2.8 -1.1,-1.2 -1.7,-2.6 -1.7,-4.1"
               id="path3081"
               inkscape:connector-curvature="0"
               style="fill:#169300;fill-rule:nonzero" />
          </g>
          <g
             id="g3083">
            <path
               d="m -47.973043,512.26866 c 0.4,-0.1 0.8,-0.2 1.2,-0.3 0,0.1 -0.1,0.1 -0.1,0.1 -0.5,0.1 -0.8,0.1 -1.1,0.2"
               id="path3085"
               inkscape:connector-curvature="0"
               style="fill:#59a056;fill-rule:nonzero" />
          </g>
          <g
             id="g3087">
            <path
               d="m -60.272848,443.16856 c 0,-0.2 0,-0.4 -0.1,-0.6 0.1,0 0.1,-0.2 0.1,-0.2 0.3,-0.7 0.6,-1.2 0.9,-1.5 2.5,-2.7 6,-4 10.6,-4 0.5,0 1.8,0.1 3.8,0.3 1.2,0.4 2.6,0.7 4.1,1.1 3,0.9 6,1.7 8.6,2.6 2,1.1 4.9,2.8 8.6,4.9 0.9,0.6 2,1.1 3.3,1.8 h -0.2 c 1.2,0.6 2.5,1.1 4,1.9 1.4,0.7 3.1,1.5 4.8,2.4 0.7,0.3 1.4,0.6 2.2,1 1.1,0.3 2.3,0.8 3.7,1.2 h 0.1 c 2.7,0.7 5.7,1.4 9,2 0.1,0.1 0.2,0.1 0.3,0.1 0.6,0.2 1.7,0.5 3.5,0.9 h 2.4 c 0.5,0.1 0.9,0.1 1.3,0.1 2.7,0.4 5.6,0.7 8.8,0.8 h 4 l 1.5,0.2 h 10.5 1 0.6 c -0.9,0.3 -2,0.5 -3.1,0.8 -3.9,0.9 -7.2,1.4 -10,1.5 h -8.8 l -0.4,-0.1 h -5.6 l -0.4,-0.2 h -15.3 c -3.3,-0.1 -6.3,-0.4 -8.9,-0.6 -0.9,-0.1 -1.7,-0.2 -2.5,-0.2 -3,-0.3 -5.6,-0.7 -7.9,-1 -4.6,-0.8 -8.3,-1.5 -11.4,-2 -2.9,-0.4 -6.2,-1.2 -9.9,-2.3 -3.7,-1.1 -6,-2.2 -7.3,-3.2 -1.5,-0.8 -2.8,-1.5 -3.7,-2.3 -1.5,-1.2 -2.3,-2.5 -2.3,-4 0,0 0.1,-0.5 0.1,-1.4"
               id="path3089"
               inkscape:connector-curvature="0"
               style="fill:#169300;fill-rule:nonzero" />
          </g>
          <g
             id="g3091">
            <path
               d="m 32.127054,512.16856 v 0.9 c -0.2,-0.4 -0.5,-0.8 -0.7,-1.1 -0.9,-1.3 -1.5,-2.1 -1.9,-2.6 -3.4,-4.2 -6.4,-7.6 -9.3,-10.2 -1.7,-1.6 -4.1,-3.4 -6.8,-5.1 -0.7,-0.4 -1.4,-0.9 -2.1,-1.4 -2.1,-1.2 -4.2,-2.4 -6.3,-3.3 -0.9,-0.4 -2.4,-1 -4.4,-1.7 -2.1,-0.7 -3.6,-1.3 -4.5,-1.6 h -0.1 -0.1 c -1,-0.3 -1.9,-0.6 -2.8,-0.9 -1.9,-0.5 -3.5,-0.9 -4.8,-1.1 -1.2,-0.3 -2.6,-0.5 -3.9,-0.8 -3.2,-0.5 -6.6,-0.9 -10.4,-1.2 -1.8,-0.1 -2.9,-0.1 -3.5,-0.2 -0.5,-0.1 -0.9,-0.2 -1.2,-0.2 h -10.2 v -0.1 h 0.5 c 1.3,-0.1 3.3,-0.4 5.9,-0.6 h 4.7 c 1.3,-0.2 3.8,-0.5 7.5,-1 0.5,-0.1 1,-0.2 1.6,-0.3 h 0.8 c 0.8,-0.2 1.6,-0.3 2.5,-0.4 0.3,-0.1 0.6,-0.1 0.9,-0.1 h 0.2 c 0.4,0 0.9,-0.1 1.4,-0.1 h 0.4 c 0,0 0.1,0 0.1,-0.1 h 0.1 c 0.3,0 0.6,-0.1 0.9,-0.2 h 0.3 c 0.5,0.3 1.3,0.2 2.3,-0.1 0.5,0 1.2,-0.2 2,-0.5 0,0.9 0.2,1.6 0.4,2.2 0.8,0.3 1.6,0.5 2.7,0.8 0.2,0.1 0.4,0.1 0.6,0.2 1.6,0.4 2.5,0.6 2.6,0.7 1.4,0.4 2.3,0.8 2.9,1.2 2.4,1 4.8,2 7.3,3 0.9,0.4 1.7,0.8 2.5,1.3 1.8,0.9 3.5,2 5.2,3.2 0.2,0.2 0.6,0.4 0.8,0.5 l 0.2,0.2 c 3.6,3.1 6.2,5.8 7.8,8.2 2.6,3.8 4.4,6.5 5.5,8.3 0.3,0.3 0.7,1.1 1.3,2 0.5,0.8 0.8,1.6 1,2.2 z"
               id="path3093"
               inkscape:connector-curvature="0"
               style="fill:#678c5d;fill-rule:nonzero" />
          </g>
          <g
             id="g3095">
            <path
               d="m -25.573141,477.26866 c -0.1,0 -0.2,0 -0.3,-0.1 h 1 c -0.2,0.1 -0.5,0.1 -0.7,0.1"
               id="path3097"
               inkscape:connector-curvature="0"
               style="fill:#678c5d;fill-rule:nonzero" />
          </g>
          <g
             id="g3099">
            <path
               d="m 176.72715,535.86876 c 2.4,2.7 4.9,6.5 7.4,11.7 1.5,2.9 3,6.1 4.4,9.5 0,0.1 0.1,0.1 0.1,0.1 0.3,0.6 0.5,1.1 0.6,1.6 0.1,0.3 0.2,0.5 0.3,0.8 0.2,0.6 0.4,1.2 0.6,1.8 0.4,0.8 0.8,1.6 1.1,2.3 0.8,2.4 1.5,4.3 2,5.8 0.6,1.4 1.2,2.8 1.8,4.1 4.2,11.3 11.6,15.8 22.1,13.5 2.8,-0.8 5.7,-2 8.6,-3.9 1.8,-1.1 3.5,-2.4 5,-3.7 9.7,-10.4 13,-23.3 10.1,-38.5 0.4,1 0.8,2.1 1.2,3.2 0.1,0.4 0.1,0.6 0.2,1 0.4,0.4 0.5,1.1 0.5,2 0.7,2.1 1.2,3.7 1.5,4.8 0.3,0.7 0.5,1.3 0.7,2.1 0.7,3 1.1,6.2 1.1,9.7 0,2.7 -0.7,6 -2.1,10.1 -1.5,4.3 -3.2,7.3 -4.9,9.2 -2.6,2.9 -4.1,4.5 -4.4,4.7 -2,1.9 -4.1,3.4 -6.4,4.6 -5.8,3.1 -9.8,4.8 -12.2,5.1 -1.6,0.4 -3.3,0.6 -4.8,0.6 -4.2,0 -8.3,-0.5 -12.2,-1.5 -12.2,-3.8 -21.6,-12.4 -28.1,-25.6 -1.8,-3.7 -4.8,-8.4 -9.2,-14.2 -1.3,-1.2 -3.3,-3.6 -5.9,-7 -1.6,-1.9 -3.5,-4 -5.8,-6 -3.2,-2.8 -8.1,-5.9 -14.9,-9.2 -6.6,-3.3 -11.5,-5.1 -14.4,-5.5 -3,-0.4 -5.5,-0.6 -7.5,-0.5 -2,0 -3,-0.1 -3,-0.4 2.6,-0.6 5.9,-0.9 10,-0.9 6.3,0 11.3,0.7 15.2,1.9 2.1,0.8 4.6,2.1 7.6,4 9.1,6.6 18.6,8.5 28.5,5.6 2,-0.7 3.7,-1.7 5.2,-2.9"
               id="path3101"
               inkscape:connector-curvature="0"
               style="fill:#169300;fill-rule:nonzero" />
          </g>
          <g
             id="g3103">
            <path
               d="m 133.42686,413.66856 c -0.8,0.9 -1.4,1.7 -2.1,2.4 -0.1,0.1 -0.2,0.2 -0.3,0.3 -5.6,5.5 -13,10.2 -22.3,14.3 -1.7,1 -3.5,2.1 -5.4,3.1 -0.2,0.1 -0.6,0.4 -0.8,0.5 -1.2,0.6 -2.4,1.2 -3.600001,1.8 -3.2,1.6 -6.6,3.1 -10.2,4.5 -3.8,1.6 -7.9,3.8 -12.1,6.9 0,0.1 -0.1,0.2 -0.1,0.2 -1.4,1.3 -3.4,3.4 -6,6.4 -3.3,3.6 -6,7.6 -8.4,12 -2,3.6 -4,7.9 -5.7,12.7 -0.7,2.2 -1.3,4 -1.8,5.7 0,0.3 -0.1,0.7 -0.3,1 -0.2,0.4 -0.2,0.8 -0.4,1.2 -0.2,0.4 -0.3,0.8 -0.4,1.1 v -2.3 c -0.1,-0.3 -0.3,-0.7 -0.4,-1 -0.5,-1.7 -1.1,-3.5 -1.7,-5.7 -1.8,-4.8 -3.7,-9.1 -5.7,-12.7 -2.4,-4.4 -5.2,-8.4 -8.4,-12 -2.7,-3 -4.7,-5.1 -6,-6.4 -0.1,0 -0.2,-0.1 -0.2,-0.2 -4.1,-3.1 -8.2,-5.3 -12,-6.9 -3.6,-1.4 -7,-2.9 -10.2,-4.5 -1.3,-0.6 -2.4,-1.2 -3.6,-1.8 -0.3,-0.1 -0.6,-0.4 -0.8,-0.5 -1.9,-1 -3.8,-2.1 -5.5,-3.1 -9.3,-4.1 -16.6,-8.8 -22.2,-14.3 -0.2,-0.1 -0.2,-0.2 -0.3,-0.3 -0.7,-0.7 -1.4,-1.5 -2.1,-2.4 -5,-6.4 -7.6,-13 -7.8,-19.8 v -0.5 c -0.8,-12.8 6.3,-20.6 21.1,-23.3 0.4,-0.1 0.9,-0.1 1.3,-0.1 1.1,-0.2 2.3,-0.2 3.6,-0.2 7.9,0 15,1.7 21.5,5.2 0.8,0.5 1.5,0.9 2.3,1.3 0.3,0.2 0.7,0.5 1.1,0.8 0.6,0.4 2.6,2.3 6.1,5.7 0.1,0.1 0.1,0.1 0.2,0.1 0.4,0.5 1.3,1.8 2.7,4 l -3.9,-2.9 c -0.3,-0.1 -0.6,-0.3 -1,-0.6 -3.2,-1.5 -6.2,-2.9 -8.9,-3.9 -3,-1.1 -5.6,-1.8 -7.8,-2.2 -15.3,-3.5 -23.5,0.2 -24.8,11.1 -0.3,1.3 -0.5,2.5 -0.5,3.6 v 1.9 c 0.3,4.9 1.6,9 4.1,12.1 2.4,3.1 6.3,5.9 11.7,8.7 3.3,1.7 9.4,4.4 18.2,8.1 8.8,3.9 16.6,8.1 23.7,12.5 6.1,3.8 11.6,8.9 16.6,15.6 5,-6.7 10.5,-11.8 16.6,-15.6 7,-4.4 14.9,-8.6 23.6,-12.5 8.900001,-3.7 14.900001,-6.4 18.300001,-8.1 5.4,-2.8 9.3,-5.6 11.7,-8.7 2.4,-3.1 3.8,-7.2 4,-12.1 v -1.9 c 0,-1.1 -0.1,-2.3 -0.5,-3.6 -1.2,-10.9 -9.5,-14.6 -24.7,-11.1 -1.8,0.3 -3.900001,0.9 -6.300001,1.7 -2.9,1 -6,2.3 -9.6,4 -0.6,0.4 -1.3,0.7 -1.9,1 l -3.9,2.9 c 1.4,-2.2 2.4,-3.5 2.8,-4 0,0 0.1,0 0.1,-0.1 l 0.5,-0.5 c 3.3,-3.1 5.1,-4.8 5.6,-5.2 0.7,-0.4 1.4,-0.9 2.2,-1.3 0.4,-0.3 0.8,-0.5 1.2,-0.8 6.500001,-3.5 13.700001,-5.2 21.600001,-5.2 1.3,0 2.4,0 3.6,0.2 0.4,0 0.8,0 1.2,0.1 14.9,2.7 22,10.5 21.1,23.3 v 0.5 c -0.1,6.8 -2.7,13.4 -7.7,19.8"
               id="path3105"
               inkscape:connector-curvature="0"
               style="fill:#169300;fill-rule:nonzero" />
          </g>
          <g
             id="g3107">
            <path
               d="m 82.426859,668.66856 c 0,-1.6 -0.6,-2.9 -1.7,-4 -1.1,-1.2 -2.5,-1.7 -4.1,-1.7 -1.6,0 -3,0.5 -4,1.7 -1.2,1.1 -1.7,2.4 -1.7,4 0,1.6 0.5,3 1.7,4.1 1,1.1 2.4,1.7 4,1.7 1.6,0 3,-0.6 4.1,-1.7 1.1,-1.1 1.7,-2.5 1.7,-4.1 m -47.2,-4 c -1.1,-1.2 -2.5,-1.7 -4.1,-1.7 -1.5,0 -2.9,0.5 -4,1.7 -1.1,1.1 -1.7,2.4 -1.7,4 0,1.6 0.6,3 1.7,4.1 1.1,1.1 2.5,1.7 4,1.7 1.6,0 3,-0.6 4.1,-1.7 1.2,-1.1 1.7,-2.5 1.7,-4.1 0,-1.6 -0.5,-2.9 -1.7,-4 m 14.3,-6.6 c 0.1,0.6 0.4,1.1 0.9,1.5 0,0.1 0,0.1 0.1,0.1 0.8,0.8 1.9,1.3 3.1,1.3 1.3,0 2.3,-0.5 3.1,-1.3 0.9,-0.9 1.4,-1.9 1.4,-3.2 0,-1.2 -0.5,-2.2 -1.4,-3.1 -0.8,-0.9 -1.8,-1.3 -3.1,-1.3 -1.2,0 -2.3,0.4 -3.1,1.3 l -0.1,0.1 c -0.5,0.5 -0.8,0.9 -0.9,1.5 -0.3,0.5 -0.4,1 -0.4,1.5 0,0.6 0.1,1.2 0.4,1.6 m 7.8,17.6 c 0.1,-0.2 0.1,-0.4 0.1,-0.7 0,-1 -0.3,-1.8 -1,-2.5 -0.7,-0.6 -1.4,-1 -2.3,-1 h -0.2 c -0.9,0 -1.8,0.3 -2.4,1 -0.8,0.7 -1.1,1.5 -1.1,2.5 v 0.2 c 0.1,0.8 0.4,1.6 1.1,2.3 0.6,0.7 1.5,1 2.4,1 0.7,0 1.4,-0.2 2,-0.7 0.2,0 0.3,-0.2 0.5,-0.3 0.5,-0.5 0.8,-1.2 0.9,-1.8 m -29.4,-15.2 c 7,-4.1 12.8,-8.2 17.3,-12.2 5.8,-5 11.5,-5 17.3,0 4.6,4 10.4,8.1 17.4,12.2 7.6,4.5 15.8,6.8 24.500001,6.8 h 0.1 1.1 c -1.8,1.5 -3.8,3 -6.000001,4.3 -11.6,7.2 -25.7,10.8 -42.3,10.8 -1.1,0 -2.1,0 -3.2,-0.1 -1.2,0.1 -2.4,0.1 -3.6,0.1 -16.6,0 -30.7,-3.6 -42.4,-10.8 -2.1,-1.3 -4.1,-2.8 -6,-4.3 h 1.1 0.2 c 8.7,0 16.8,-2.3 24.5,-6.8"
               id="path3109"
               inkscape:connector-curvature="0"
               style="fill:#169300;fill-rule:nonzero" />
          </g>
          <g
             id="g3111">
            <path
               d="m 57.426859,674.96885 c 0,0.3 0,0.5 -0.1,0.7 -0.1,0.60001 -0.4,1.3 -0.9,1.8 -0.2,0.1 -0.3,0.3 -0.5,0.3 -0.6,0.5 -1.3,0.7 -2,0.7 -0.9,0 -1.8,-0.3 -2.4,-1 -0.7,-0.7 -1,-1.5 -1.1,-2.3 v -0.2 c 0,-1 0.3,-1.8 1.1,-2.5 0.6,-0.7 1.5,-1 2.4,-1 h 0.2 c 0.9,0 1.6,0.4 2.3,1 0.7,0.7 1,1.5 1,2.5"
               id="path3113"
               inkscape:connector-curvature="0"
               style="fill:#13c100;fill-rule:nonzero" />
          </g>
          <g
             id="g3115">
            <path
               d="m 50.426859,659.56895 c -0.5,-0.4 -0.8,-0.9 -0.9,-1.5 -0.3,-0.4 -0.4,-1 -0.4,-1.6 0,-0.5 0.1,-1 0.4,-1.5 0.1,-0.6 0.4,-1 0.9,-1.5 l 0.1,-0.1 c 0.8,-0.9 1.9,-1.3 3.1,-1.3 1.3,0 2.3,0.4 3.1,1.3 0.9,0.9 1.4,1.9 1.4,3.1 0,1.3 -0.5,2.3 -1.4,3.2 -0.8,0.8 -1.8,1.3 -3.1,1.3 -1.2,0 -2.3,-0.5 -3.1,-1.3 -0.1,0 -0.1,0 -0.1,-0.1"
               id="path3117"
               inkscape:connector-curvature="0"
               style="fill:#13c100;fill-rule:nonzero" />
          </g>
          <g
             id="g3119">
            <path
               d="m 31.127054,662.96885 c 1.6,0 3,0.5 4.1,1.7 1.2,1.10001 1.7,2.4 1.7,4 0,1.60001 -0.5,3 -1.7,4.10001 -1.1,1.1 -2.5,1.7 -4.1,1.7 -1.5,0 -2.9,-0.6 -4,-1.7 -1.1,-1.10001 -1.7,-2.5 -1.7,-4.10001 0,-1.6 0.6,-2.89999 1.7,-4 1.1,-1.2 2.5,-1.7 4,-1.7"
               id="path3121"
               inkscape:connector-curvature="0"
               style="fill:#13c100;fill-rule:nonzero" />
          </g>
          <g
             id="g3123">
            <path
               d="m 80.727152,664.66856 c 1.1,1.1 1.7,2.4 1.7,4 0,1.6 -0.6,3 -1.7,4.1 -1.1,1.1 -2.5,1.7 -4.1,1.7 -1.6,0 -3,-0.6 -4,-1.7 -1.2,-1.1 -1.7,-2.5 -1.7,-4.1 0,-1.6 0.5,-2.9 1.7,-4 1,-1.2 2.4,-1.7 4,-1.7 1.6,0 3,0.5 4.1,1.7"
               id="path3125"
               inkscape:connector-curvature="0"
               style="fill:#13c100;fill-rule:nonzero" />
          </g>
          <g
             id="g3127">
            <path
               d="m 2.127054,573.26866 c 0.9,0 1.8,-0.3 2.4,-1 0.6,-0.6 1,-1.5 1,-2.4 0,-0.9 -0.4,-1.8 -1,-2.4 -0.6,-0.7 -1.5,-1 -2.4,-1 -1,0 -1.9,0.3 -2.5,1 -0.6,0.6 -1,1.5 -1,2.4 0,0.9 0.4,1.8 1,2.4 0.6,0.7 1.5,1 2.5,1 m -3.5,14.4 c 1.1,1 2.4,1.6 3.9,1.6 1.5,0 2.8,-0.6 3.9,-1.6 1,-1 1.6,-2.4 1.6,-3.9 0,-1.5 -0.6,-2.7 -1.6,-3.8 -1.1,-1 -2.4,-1.6 -3.9,-1.6 -1.5,0 -2.8,0.6 -3.9,1.6 -1,1.1 -1.5,2.3 -1.5,3.8 0,1.5 0.5,2.9 1.5,3.9 m 15.2,5.8 c -1,-0.3 -2,-0.5 -3,-0.8 -2.4,-0.4 -4.9,-0.6 -7.6,-0.6 -10.4,0 -19.3,3.6 -26.6,11 -0.3,0.2 -0.5,0.5 -0.7,0.6 0.3,-1 1.1,-3.2 2.1,-6.8 0.5,-1.8 1.5,-4.2 3,-7.2 0.8,-1.6 2.1,-4 3.7,-7 1.8,-3.5 4.8,-8.4 8.9,-14.4 2.3,-3.6 3.7,-7 4.5,-10 v -0.2 c 0.3,-0.9 0.5,-1.6 0.6,-2.4 1.4,0.6 2.8,1.4 4.2,2.5 0.9,0.6 1.7,1.3 2.3,2 0.7,0.8 1.3,1.6 1.8,2.5 0.6,1.3 1.4,3 2.2,5.3 0.9,2.3 1.6,4.1 2.2,5.2 1.5,3 2.3,4.7 2.7,5.3 1.1,1.9 2.5,3.6 4.3,5.1 0,0 0.1,0.1 0.2,0.1 l 0.3,0.2 c 0.6,0.4 1.2,0.8 1.8,1.3 0.3,0.1 1,0.5 2.2,1 1,0.8 2.2,1.5 3.4,2.4 3.8,2.5 5.9,4.5 6.5,6.1 0.2,0.5 0.7,1.6 1.4,3.3 0.5,1.2 0.9,2.1 1.2,2.8 -1.3,-0.9 -2.9,-1.8 -4.8,-2.7 -1.2,-0.5 -2.5,-1.1 -3.7,-1.6 z"
               id="path3129"
               inkscape:connector-curvature="0"
               style="fill:#169300;fill-rule:nonzero" />
          </g>
          <g
             id="g3131">
            <path
               d="m 2.526957,589.26866 c -1.5,0 -2.8,-0.6 -3.9,-1.6 -1,-1 -1.5,-2.4 -1.5,-3.9 0,-1.5 0.5,-2.7 1.5,-3.8 1.1,-1 2.4,-1.6 3.9,-1.6 1.5,0 2.8,0.6 3.9,1.6 1,1.1 1.6,2.3 1.6,3.8 0,1.5 -0.6,2.9 -1.6,3.9 -1.1,1 -2.4,1.6 -3.9,1.6"
               id="path3133"
               inkscape:connector-curvature="0"
               style="fill:#13c100;fill-rule:nonzero" />
          </g>
          <g
             id="g3135">
            <path
               d="m 4.526957,572.26866 c -0.6,0.7 -1.5,1 -2.4,1 -1,0 -1.9,-0.3 -2.5,-1 -0.6,-0.6 -1,-1.5 -1,-2.4 0,-0.9 0.4,-1.8 1,-2.4 0.6,-0.7 1.5,-1 2.5,-1 0.9,0 1.8,0.3 2.4,1 0.6,0.6 1,1.5 1,2.4 0,0.9 -0.4,1.8 -1,2.4"
               id="path3137"
               inkscape:connector-curvature="0"
               style="fill:#13c100;fill-rule:nonzero" />
          </g>
          <g
             id="g3139">
            <path
               d="m -27.372946,534.56895 c -6.7,3.3 -11.6,6.4 -14.8,9.2 -2.3,2 -4.3,4.1 -5.8,6 -2.6,3.4 -4.6,5.8 -5.9,7 -4.4,5.8 -7.5,10.5 -9.2,14.2 -6.5,13.2 -15.9,21.8 -28.2,25.6 -3.8,1 -7.9,1.5 -12.100004,1.5 -1.6,0 -3.2,-0.2 -4.9,-0.6 -2.3,-0.3 -6.3,-2 -12.2,-5.1 -2.3,-1.2 -4.4,-2.7 -6.4,-4.6 -0.2,-0.2 -1.7,-1.8 -4.4,-4.7 -1.7,-1.9 -3.3,-4.9 -4.8,-9.2 -1.4,-4.1 -2.2,-7.4 -2.2,-10.1 0,-3.5 0.4,-6.7 1.2,-9.7 0.2,-0.8 0.3,-1.4 0.6,-2.1 0.4,-1.1 0.9,-2.7 1.5,-4.8 0.1,-0.9 0.2,-1.6 0.6,-2 0,-0.4 0.1,-0.6 0.2,-1 0.3,-1.1 0.7,-2.2 1.2,-3.2 -3,15.2 0.4,28.1 10,38.5 1.6,1.3 3.2,2.6 5,3.7 3,1.9 5.9,3.1 8.6,3.9 10.500004,2.3 18.000004,-2.2 22.100004,-13.5 0.7,-1.3 1.3,-2.7 1.8,-4.1 0.6,-1.5 1.2,-3.4 2,-5.8 0.4,-0.7 0.7,-1.5 1.1,-2.3 0.3,-0.6 0.5,-1.2 0.7,-1.8 0.1,-0.3 0.2,-0.5 0.3,-0.8 0.1,-0.5 0.3,-1 0.5,-1.6 0.1,0 0.1,0 0.2,-0.1 1.3,-3.4 2.8,-6.6 4.3,-9.5 2.6,-5.2 5,-9 7.4,-11.7 1.6,1.2 3.3,2.2 5.2,2.9 9.9,2.9 19.4,1 28.6,-5.6 2.9,-1.9 5.4,-3.2 7.6,-4 3.8,-1.2 8.9,-1.9 15.2,-1.9 4,0 7.4,0.3 10,0.9 0,0.3 -1,0.4 -3,0.4 -2.1,-0.1 -4.6,0.1 -7.5,0.5 -3,0.4 -7.9,2.2 -14.5,5.5"
               id="path3141"
               inkscape:connector-curvature="0"
               style="fill:#169300;fill-rule:nonzero" />
          </g>
          <g
             id="g3143">
            <path
               d="m 226.32725,503.06895 c 0.1,-0.1 0.1,-0.2 0.1,-0.3 v 0.1 c 0,0.1 0,0.1 -0.1,0.2"
               id="path3145"
               inkscape:connector-curvature="0"
               style="fill:#59a056;fill-rule:nonzero" />
          </g>
          <g
             id="g3147">
            <path
               d="m 182.62705,443.86876 c 0,0.1 0,0.3 0.1,0.5 -0.1,-0.2 -0.1,-0.2 -0.1,-0.4 z"
               id="path3149"
               inkscape:connector-curvature="0"
               style="fill:#59a056;fill-rule:nonzero" />
          </g>
          <g
             id="g3151">
            <path
               d="m -118.47304,503.06895 c -0.1,-0.1 -0.1,-0.1 -0.1,-0.2 v -0.1 c 0,0.1 0,0.2 0.1,0.3"
               id="path3153"
               inkscape:connector-curvature="0"
               style="fill:#59a056;fill-rule:nonzero" />
          </g>
          <g
             id="g3155">
            <path
               d="m -74.872946,444.36876 v -0.5 0.1 z"
               id="path3157"
               inkscape:connector-curvature="0"
               style="fill:#59a056;fill-rule:nonzero" />
          </g>
          <g
             id="g3159">
            <path
               d="m 12.426859,398.86876 c 0,-0.1 -0.1,-0.4 -0.2,-0.5 0.4,0.4 0.9,0.6 1.2,1 -0.3,-0.2 -0.7,-0.4 -1,-0.5"
               id="path3161"
               inkscape:connector-curvature="0"
               style="fill:#59a056;fill-rule:nonzero" />
          </g>
          <g
             id="g3163">
            <path
               d="m 16.727152,402.46886 c 0,0.19999 0.2,0.3 0.3,0.39999 h -0.2 c -0.1,-0.1 -0.1,-0.2 -0.1,-0.39999"
               id="path3165"
               inkscape:connector-curvature="0"
               style="fill:#59a056;fill-rule:nonzero" />
          </g>
          <g
             id="g3167">
            <path
               d="m 95.426859,398.86876 c -0.4,0.1 -0.8,0.3 -1,0.5 0.3,-0.4 0.7,-0.6 1.1,-1 0,0.1 -0.1,0.4 -0.1,0.5"
               id="path3169"
               inkscape:connector-curvature="0"
               style="fill:#59a056;fill-rule:nonzero" />
          </g>
          <g
             id="g3171">
            <path
               d="m 91.026957,402.86876 h -0.2 c 0.1,-0.1 0.2,-0.2 0.3,-0.4 0,0.2 -0.1,0.3 -0.1,0.4"
               id="path3173"
               inkscape:connector-curvature="0"
               style="fill:#59a056;fill-rule:nonzero" />
          </g>
          <g
             id="g3175">
            <g
               id="g3177" />
            <g
               id="g3183">
              <g
                 clip-path="url(#clipPath3179)"
                 id="g3185"
                 style="opacity:0.69999701">
                <g
                   id="g3187">
                  <path
                     d="m 107.32725,502.96886 c 0.1,0 0.2,0 0.3,0.1 h 0.5 c 0.3,-0.1 0.5,-0.1 0.5,-0.2 h 2.3 c 2,0.2 3.8,0.3 5.3,0.7 h 0.2 0.1 c -2.8,4.2 -6.1,8.2 -9.9,12.09999 -14.2,14.20001 -31.5,21.4 -51.6,21.4 -20.1,0 -37.4,-7.2 -51.6,-21.4 -3.8,-3.89999 -7.2,-7.89999 -9.9,-12.1 1.1,-0.4 2.1,-0.5 2.9,-0.4 h 0.5 c 0.2,-0.1 0.5,-0.1 0.7,-0.1 h 2.6 c 0.1,-0.1 0.2,-0.1 0.3,-0.1 1.3,0.2 2.5,0.3 3.6,0.5 0.1,0.2 0.4,0.4 0.5,0.7 7.5,9.6 13.8,15.7 19,18.3 -3.2,-5.6 -6,-11.1 -8.1,-16.5 1.2,0.3 2.1,0.6 2.7,0.7 2.9,1 6.2,2.5 9.9,4.3 0.4,0.1 1.8,1.1 4.1,2.8 0,-0.2 0,-0.5 -0.1,-0.7 v -0.9 h -0.1 c -0.2,-0.6 -0.5,-1.4 -1,-2.2 -0.6,-0.9 -1,-1.7 -1.3,-2 -1.1,-1.8 -2.9,-4.5 -5.5,-8.3 -1.6,-2.4 -4.2,-5.1 -7.8,-8.2 l -0.2,-0.2 c -0.2,-0.1 -0.6,-0.3 -0.8,-0.5 -1.7,-1.2 -3.4,-2.3 -5.2,-3.2 -0.8,-5 -1.2,-10 -1.2,-15 0.3,-0.1 0.6,-0.2 0.9,-0.4 1.8,-0.8 6.2,-2.5 13,-5.3 1.8,-0.7 3.3,-1.5 4.6,-2.2 0.2,0 0.5,-0.1 0.7,-0.2 1,-0.6 2.1,-1.2 3.3,-1.8 1.7,-1 3.6,-2.5 5.5,-4.4 l 0.1,-0.1 h -0.6 -1 -10.5 l -1.5,-0.2 h -4 c -3.2,-0.1 -6.1,-0.4 -8.8,-0.8 0.9,-3.9 2,-7.8 3.5,-11.8 7.6,-19.5 21.9,-30.7 42.9,-33.6 0.3,-0.1 0.5,-0.1 0.8,-0.1 3,-0.4 6.2,-0.7 9.7,-0.8 h 1.8 c 5.6,0.1 11.6,0.6 18,1.5 -2,-1.2 -3.9,-2.5 -5.7,-3.6 1.2,-0.3 2.4,-0.6 3.5,-1 4.6,-1.4 7.9,-3 10,-4.8 0.8,0.5 1.6,1.1 2.4,1.7 3.1,2.2 6.1,4.8 9,7.7 10.5,10.5 17,22.5 19.9,36.1 -2,1 -4.4,2.1 -7,3.4 -0.6,0.3 -1.3,0.6 -2.1,1 -1.2,0.3 -2.4,0.8 -3.8,1.2 -2.6,0.7 -5.7,1.4 -9.1,2 0,0.1 -0.1,0.1 -0.3,0.1 -0.5,0.2 -1.6,0.5 -3.4,0.9 h -2.4 c -3.1,0.5 -6.4,0.8 -10.1,0.9 h -4 l -1.5,0.2 h -10.5 -1.1 -0.6 l 0.1,0.1 c 2,1.9 3.9,3.4 5.6,4.4 1.2,0.6 2.2,1.2 3.3,1.8 0.2,0.1 0.5,0.2 0.7,0.2 1.3,0.7 2.8,1.5 4.6,2.2 6.7,2.8 11.1,4.5 13,5.3 3,1.4 7,2.8 12,4.4 4.3,1.1 7.2,1.8 8.6,2.1 0.5,0.1 0.9,0.2 1.2,0.3 -0.1,0 -0.2,0 -0.3,0.1 -2.8,0.8 -4.9,1.6 -6.3,2.2 -0.7,0.3 -1.5,0.5 -2.2,0.8 -3.6,1.2 -7.2,2.7 -10.8,4.2 -2.7,1.3 -5.3,2.8 -7.7,4.5 -0.3,0.2 -0.6,0.4 -0.9,0.5 l -0.1,0.2 c -3.6,3.1 -6.2,5.8 -7.8,8.2 -2.6,3.8 -4.5,6.5 -5.5,8.3 -0.3,0.3 -0.7,1.1 -1.3,2 -0.5,0.8 -0.8,1.6 -1.1,2.2 0,0.3 -0.1,0.6 -0.1,0.9 0,0.2 0,0.5 -0.1,0.7 2.4,-1.7 3.8,-2.7 4.1,-2.8 3.8,-1.8 7.1,-3.3 10,-4.3 1.4,-0.5 5.3,-1.5 11.5,-2.9 1.5,-0.2 3.6,-0.5 6.2,-0.8"
                     id="path3189"
                     inkscape:connector-curvature="0"
                     style="fill:#e3eff8;fill-rule:nonzero" />
                </g>
              </g>
            </g>
          </g>
          <g
             id="g3191">
            <g
               id="g3193" />
            <g
               id="g3199">
              <g
                 clip-path="url(#clipPath3195)"
                 id="g3201"
                 style="opacity:0.69999701">
                <g
                   id="g3203">
                  <path
                     d="m 4.627054,504.16856 c -0.1,-0.3 -0.4,-0.5 -0.5,-0.7 0.9,0.1 1.8,0.2 2.5,0.3 3.9,0.9 6.9,1.6 8.9,2.2 2.1,5.4 4.9,10.9 8.1,16.5 -5.2,-2.6 -11.5,-8.7 -19,-18.3"
                     id="path3205"
                     inkscape:connector-curvature="0"
                     style="fill:#bacbe6;fill-rule:nonzero" />
                </g>
              </g>
            </g>
          </g>
          <g
             id="g3207">
            <g
               id="g3209" />
            <g
               id="g3215">
              <g
                 clip-path="url(#clipPath3211)"
                 id="g3217"
                 style="opacity:0.69999701">
                <g
                   id="g3219">
                  <path
                     d="m 10.227152,487.56895 c -0.8,-0.5 -1.6,-0.9 -2.5,-1.3 -2.5,-1 -4.9,-2 -7.3,-3 -0.6,-0.4 -1.5,-0.8 -2.9,-1.2 -0.1,-0.1 -1,-0.3 -2.6,-0.7 -0.3,-1.2 -0.4,-2.6 -0.7,-3.9 1.1,-0.3 2.3,-0.6 3.7,-0.9 4.6,-1.5 8.2,-2.8 11.1,-4 0,5 0.4,10 1.2,15"
                     id="path3221"
                     inkscape:connector-curvature="0"
                     style="fill:#bacbe6;fill-rule:nonzero" />
                </g>
              </g>
            </g>
          </g>
          <g
             id="g3223">
            <g
               id="g3225" />
            <g
               id="g3231">
              <g
                 clip-path="url(#clipPath3227)"
                 id="g3233"
                 style="opacity:0.69999701">
                <g
                   id="g3235">
                  <path
                     d="m -5.772848,477.46886 c 0.3,1.3 0.4,2.69999 0.7,3.89999 -0.2,-0.1 -0.4,-0.1 -0.6,-0.2 -1.6,-0.5 -2.8,-0.8 -3.8,-1 -0.7,-0.19999 -1.4,-0.5 -2.4,-0.8 -0.5,-0.2 -1,-0.39999 -1.5,-0.6 h 0.3 c 0.5,0.3 1.3,0.2 2.3,-0.1 1,-0.2 2.7,-0.6 5,-1.2"
                     id="path3237"
                     inkscape:connector-curvature="0"
                     style="fill:#e3eff8;fill-rule:nonzero" />
                </g>
              </g>
            </g>
          </g>
          <g
             id="g3239">
            <g
               id="g3241" />
            <g
               id="g3247">
              <g
                 clip-path="url(#clipPath3243)"
                 id="g3249"
                 style="opacity:0.69999701">
                <g
                   id="g3251">
                  <path
                     d="m -9.573141,452.86876 c -0.8,-0.4 -1.5,-0.7 -2.2,-1 -1.7,-0.9 -3.4,-1.7 -4.8,-2.4 2.6,-14.1 9.3,-26.4 20,-37.1 3.1,-3.1 6.4,-6 9.8,-8.4 0.1,-0.1 0.2,-0.1 0.2,-0.1 0.3,-0.2 0.6,-0.4 0.9,-0.6 h 0.1 c 0,-0.1 0.1,-0.1 0.2,-0.2 2,1.8 5.4,3.3 9.9,4.7 1.2,0.4 2.5,0.7 3.8,1.1 -0.4,0.3 -0.8,0.5 -1.2,0.9 -0.1,0 -0.2,-0.1 -0.4,-0.1 -0.1,0.1 -0.3,0.2 -0.5,0.2 -5.3,2.9 -10.2,6.5 -14.8,11.2 -9.5,9.5 -15.3,20.4 -17.2,33 h -0.1 c -1.4,-0.4 -2.6,-0.9 -3.7,-1.2"
                     id="path3253"
                     inkscape:connector-curvature="0"
                     style="fill:#e3eff8;fill-rule:nonzero" />
                </g>
              </g>
            </g>
          </g>
          <g
             id="g3255">
            <g
               id="g3257" />
            <g
               id="g3263">
              <g
                 clip-path="url(#clipPath3259)"
                 id="g3265"
                 style="opacity:0.69999701">
                <g
                   id="g3267">
                  <path
                     d="m 3.227152,456.06895 c -3.3,-0.6 -6.3,-1.3 -9,-2 1.9,-12.6 7.7,-23.5 17.2,-33 4.6,-4.7 9.5,-8.3 14.8,-11.2 0.2,0 0.4,-0.1 0.5,-0.2 0.2,0 0.3,0.1 0.4,0.1 0.4,-0.4 0.8,-0.6 1.2,-0.9 3.9,0.9 8.2,1.6 12.7,2.1 4.4,0.4 9,0.7 13.9,0.7 h 3 c -0.3,0 -0.5,0 -0.8,0.1 -21,2.9 -35.3,14.1 -42.9,33.6 -1.5,4 -2.6,7.9 -3.5,11.8 -0.4,0 -0.8,0 -1.3,-0.1 h -2.4 c -1.8,-0.4 -2.9,-0.7 -3.5,-0.9 -0.1,0 -0.2,0 -0.3,-0.1"
                     id="path3269"
                     inkscape:connector-curvature="0"
                     style="fill:#bacbe6;fill-rule:nonzero" />
                </g>
              </g>
            </g>
          </g>
          <g
             id="g3271">
            <path
               d="m 18.127054,400.86876 -1.4,0.8 c -0.2,0.2 -0.6,0.3 -0.8,0.5 -0.3,0.2 -0.5,0.3 -0.8,0.5 -0.1,0.2 -0.4,0.2 -0.5,0.4 -0.8,-0.7 -1.4,-1.3 -1.9,-2 -0.6,-0.9 -0.8,-1.9 -0.8,-2.9 v -0.1 c 0,-0.8 0.2,-1.7 0.7,-2.6 0,-0.2 0,-0.5 0.1,-0.7 0,0.1 0.2,0.2 0.2,0.3 0.2,-0.4 0.6,-0.8 1,-1.2 1.3,-1.2 3.3,-2.5 6,-3.5 1.3,-0.6 2.8,-1.1 4.6,-1.7 4,-1.3 8.4,-2.3 13.2,-2.9 5.7,-0.6 11.9,-0.9 18.4,-0.9 3.5,0 6.8,0.1 10,0.3 7.1,0.5 13.5,1.7 19.1,3.5 1.4,0.5 2.7,0.8 3.9,1.3 h -0.1 c 4.1,1.9 6.6,3.5 7.6,4.8 0.1,0.1 0.2,0.2 0.3,0.3 0.2,0.4 0.5,0.8 0.7,1.3 0.2,0.5 0.3,1.1 0.3,1.8 0,1.7 -0.9,3.3 -2.7,4.8 -0.5,-0.3 -1,-0.6 -1.4,-1 -0.2,-0.1 -0.3,-0.1 -0.4,-0.2 l -0.2,-0.1 c -0.1,-0.1 -0.3,-0.2 -0.5,-0.3 -0.6,-0.5 -1.2,-0.9 -1.9,-1.2 l -0.7,-0.4 -1.3,-0.7 -0.1,-0.1 c -0.4,-0.1 -0.8,-0.3 -1.2,-0.6 -0.1,0 -0.4,-0.1 -0.5,-0.2 -0.1,-0.1 -0.4,-0.2 -0.5,-0.3 -1.6,-0.7 -3.2,-1.4 -4.8,-2 -18.3,-5.5 -36.1,-5.5 -53.4,0 -1,0.4 -2,0.8 -3,1.2 -1.8,0.8 -3.6,1.8 -5.3,2.7 -0.1,0.1 -0.1,0.1 -0.2,0.1 -0.6,0.3 -1.2,0.6 -1.7,1"
               id="path3273"
               inkscape:connector-curvature="0"
               style="fill:#ffed00;fill-rule:nonzero" />
          </g>
          <g
             id="g3275">
            <path
               d="m 16.727152,401.66856 1.4,-0.8 c 0.5,-0.4 1.1,-0.7 1.7,-1 0.1,0 0.1,0 0.2,-0.1 1.7,-0.9 3.5,-1.9 5.3,-2.7 1,-0.4 2,-0.8 3,-1.2 17.3,-5.5 35.1,-5.5 53.4,0 1.6,0.6 3.2,1.3 4.8,2 0.1,0.1 0.4,0.2 0.5,0.3 0.1,0.1 0.4,0.2 0.5,0.2 0.4,0.3 0.8,0.5 1.2,0.6 l 0.1,0.1 1.3,0.7 0.7,0.4 c 0.7,0.3 1.3,0.7 1.9,1.2 0.2,0.1 0.4,0.2 0.5,0.3 l 0.2,0.1 c 0.1,0.1 0.2,0.1 0.4,0.2 0.4,0.4 0.9,0.7 1.4,1 -2.1,1.8 -5.4,3.4 -10,4.8 -1.1,0.4 -2.3,0.7 -3.5,1 -1.3,-0.9 -2.7,-1.5 -4.2,-1.9 0.2,0.1 0.5,0.2 0.6,0.3 -2.5,-1 -5,-1.9 -7.5,-2.6 -10.7,-2.9 -21.2,-2.9 -31.5,0 -3.4,0.9 -6.7,2.3 -10,3.8 -0.2,0.1 -0.5,0.3 -0.7,0.4 0,0.1 0,0.1 -0.1,0.1 -1.3,-0.4 -2.6,-0.7 -3.8,-1.1 -4.5,-1.4 -7.9,-2.9 -9.9,-4.7 0.1,-0.2 0.4,-0.2 0.5,-0.4 0.3,-0.2 0.5,-0.3 0.8,-0.5 0.2,-0.2 0.6,-0.3 0.8,-0.5"
               id="path3277"
               inkscape:connector-curvature="0"
               style="fill:#f2e029;fill-rule:nonzero" />
          </g>
          <g
             id="g3279">
            <path
               d="m 90.026957,390.16856 v 0.1 c 0.8,0.1 0.9,0.1 0,-0.1 m -76.1,3.7 c 1.6,-2.1 1.8,-4.4 0.6,-6.7 1.6,-1.3 4,-2.6 7.1,-3.8 0.4,0.3 0.7,0.5 1,0.6 l 3.9,2.9 -1.3,-2.9 c -0.2,-0.5 -0.5,-1 -0.7,-1.5 8.4,-2.7 18.5,-4 30.4,-4 11.1,0 20.7,1.2 28.7,3.5 -0.4,0.7 -0.7,1.3 -1,2 l -1.4,2.9 3.9,-2.9 c 0.6,-0.3 1.3,-0.6 1.9,-1 3.4,1.2 6,2.5 7.9,3.9 -0.9,2.5 -0.3,5.1 1.7,7.9 -1,-1.3 -3.5,-2.9 -7.6,-4.8 h 0.1 -0.1 0.1 c -1.2,-0.5 -2.5,-0.8 -3.9,-1.3 -5.6,-1.8 -12,-3 -19.1,-3.5 -3.2,-0.2 -6.5,-0.3 -10,-0.3 -6.5,0 -12.7,0.3 -18.4,0.9 -4.8,0.6 -9.2,1.6 -13.2,2.9 -1.8,0.6 -3.3,1.1 -4.6,1.7 -2.7,1 -4.7,2.3 -6,3.5"
               id="path3281"
               inkscape:connector-curvature="0"
               style="fill:#e3d33c;fill-rule:nonzero" />
          </g>
          <g
             id="g3283">
            <path
               d="m 90.026957,390.26866 v -0.1 c 0.9,0.2 0.8,0.2 0,0.1"
               id="path3285"
               inkscape:connector-curvature="0"
               style="fill:#ffed00;fill-rule:nonzero" />
          </g>
          <g
             id="g3287">
            <path
               d="m 11.926859,382.36876 v -0.1 c 0,-1 0.3,-1.9 0.8,-2.8 2.7,1 5.7,2.4 8.9,3.9 -3.1,1.2 -5.5,2.5 -7.1,3.8 -1.8,-1.4 -2.6,-3 -2.6,-4.8"
               id="path3289"
               inkscape:connector-curvature="0"
               style="fill:#ffed00;fill-rule:nonzero" />
          </g>
          <g
             id="g3291">
            <path
               d="m 24.526957,382.46886 c -1.5,-2.80001 -3.3,-5.5 -5.1,-7.7 1.5,-0.7 3.2,-1.3 5.1,-1.9 8.4,-2.6 18.5,-4 30.4,-4 11.8,0 22,1.4 30.3,4 1.4,0.4 2.5,0.8 3.7,1.3 -1.9,2.3 -3.8,4.9 -5.3,7.8 -8,-2.3 -17.6,-3.5 -28.7,-3.5 -11.9,0 -22,1.3 -30.4,4"
               id="path3293"
               inkscape:connector-curvature="0"
               style="fill:#ffed00;fill-rule:nonzero" />
          </g>
          <g
             id="g3295">
            <g
               id="g3297" />
            <g
               id="g3303">
              <g
                 clip-path="url(#clipPath3299)"
                 id="g3305"
                 style="opacity:0.69999701">
                <g
                   id="g3307">
                  <path
                     d="m 69.426859,410.86876 h -1.8 c -3.5,0.1 -6.7,0.4 -9.7,0.8 h -3 c -4.9,0 -9.5,-0.3 -13.9,-0.7 -4.5,-0.5 -8.8,-1.2 -12.7,-2.1 0.1,0 0.1,0 0.1,-0.1 0.2,-0.1 0.5,-0.3 0.7,-0.4 3.3,-1.5 6.6,-2.9 10,-3.8 10.3,-2.9 20.8,-2.9 31.5,0 2.5,0.7 5,1.6 7.5,2.6 -0.1,-0.1 -0.4,-0.2 -0.6,-0.3 1.5,0.4 2.9,1 4.2,1.9 -3.8,1 -7.9,1.7 -12.3,2.1"
                     id="path3309"
                     inkscape:connector-curvature="0"
                     style="fill:#8eafd8;fill-rule:nonzero" />
                </g>
              </g>
            </g>
          </g>
          <g
             id="g3311">
            <path
               d="m 89.026957,389.96886 h 0.1 z"
               id="path3313"
               inkscape:connector-curvature="0"
               style="fill:#ffed00;fill-rule:nonzero" />
          </g>
          <g
             id="g3315">
            <path
               d="m 95.227152,387.16856 c -0.1,-0.1 -0.2,-0.2 -0.3,-0.3 -1.9,-1.4 -4.5,-2.7 -7.9,-3.9 3.6,-1.7 6.7,-3 9.6,-4 0.9,1 1.3,2.2 1.3,3.4 v 0.5 c -0.2,1.5 -1,3 -2.7,4.3"
               id="path3317"
               inkscape:connector-curvature="0"
               style="fill:#ffed00;fill-rule:nonzero" />
          </g>
          <g
             id="g3319">
            <g
               id="g3321" />
            <g
               id="g3327">
              <g
                 clip-path="url(#clipPath3323)"
                 id="g3329"
                 style="opacity:0.69999701">
                <g
                   id="g3331">
                  <path
                     d="m 69.426859,410.86876 c 4.4,-0.4 8.5,-1.1 12.3,-2.1 1.8,1.1 3.7,2.4 5.7,3.6 -6.4,-0.9 -12.4,-1.4 -18,-1.5"
                     id="path3333"
                     inkscape:connector-curvature="0"
                     style="fill:#bacbe6;fill-rule:nonzero" />
                </g>
              </g>
            </g>
          </g>
          <g
             id="g3335">
            <path
               d="m 142.62705,478.46886 h 1.1 l -0.1,0.1 c -0.3,0 -0.6,0 -1,-0.1"
               id="path3337"
               inkscape:connector-curvature="0"
               style="fill:#678c5d;fill-rule:nonzero" />
          </g>
          <g
             id="g3339">
            <path
               d="m -46.67275,512.06895 c -0.5,0.1 -0.9,0.1 -1.3,0.2 0.5,-0.1 1,-0.2 1.4,-0.3 l 0.2,-0.1 c 0,0.1 -0.1,0.1 -0.1,0.1 -0.1,0.1 -0.1,0.1 -0.2,0.1"
               id="path3341"
               inkscape:connector-curvature="0"
               style="fill:#59a056;fill-rule:nonzero" />
          </g>
          <g
             id="g3343">
            <path
               d="m -35.872946,478.46886 h 1 c -0.3,0.1 -0.6,0.1 -1,0.1 z"
               id="path3345"
               inkscape:connector-curvature="0"
               style="fill:#678c5d;fill-rule:nonzero" />
          </g>
        </g>
      </g>
    </g>
  </g>
</svg>
