<?xml version="1.0" encoding="UTF-8" standalone="no"?>
<!-- Created with Inkscape (http://www.inkscape.org/) -->

<svg
   xmlns:dc="http://purl.org/dc/elements/1.1/"
   xmlns:cc="http://creativecommons.org/ns#"
   xmlns:rdf="http://www.w3.org/1999/02/22-rdf-syntax-ns#"
   xmlns:svg="http://www.w3.org/2000/svg"
   xmlns="http://www.w3.org/2000/svg"
   xmlns:sodipodi="http://sodipodi.sourceforge.net/DTD/sodipodi-0.dtd"
   xmlns:inkscape="http://www.inkscape.org/namespaces/inkscape"
   width="25"
   height="25"
   viewBox="0 0 6.6145832 6.6145835"
   version="1.1"
   id="svg8"
   inkscape:version="0.92.0 r15299"
   sodipodi:docname="icon_openssl.svg">
  <defs
     id="defs2">
    <clipPath
       clipPathUnits="userSpaceOnUse"
       id="clipPath3594">
      <ellipse
         id="circle3596"
         cy="267.70319"
         cx="243.366"
         style="display:inline;fill:#f0a30a;fill-opacity:1"
         rx="325.30957"
         ry="324.48868" />
    </clipPath>
  </defs>
  <sodipodi:namedview
     id="base"
     pagecolor="#ffffff"
     bordercolor="#666666"
     borderopacity="1.0"
     inkscape:pageopacity="0.0"
     inkscape:pageshadow="2"
     inkscape:zoom="17.921941"
     inkscape:cx="14.295525"
     inkscape:cy="22.390567"
     inkscape:document-units="px"
     inkscape:current-layer="layer1"
     showgrid="true"
     units="px"
     inkscape:window-width="1107"
     inkscape:window-height="580"
     inkscape:window-x="72"
     inkscape:window-y="394"
     inkscape:window-maximized="0"
     inkscape:pagecheckerboard="true"
     borderlayer="true">
    <inkscape:grid
       type="xygrid"
       id="grid4485" />
  </sodipodi:namedview>
  <metadata
     id="metadata5">
    <rdf:RDF>
      <cc:Work
         rdf:about="">
        <dc:format>image/svg+xml</dc:format>
        <dc:type
           rdf:resource="http://purl.org/dc/dcmitype/StillImage" />
        <dc:title></dc:title>
      </cc:Work>
    </rdf:RDF>
  </metadata>
  <g
     inkscape:label="Layer 1"
     inkscape:groupmode="layer"
     id="layer1"
     transform="translate(0,-290.3854)">
    <g
       id="g4640"
       transform="matrix(0.05714755,0,0,0.05714755,3.3951896,276.65248)">
      <circle
         id="circle3938"
         cy="297.44095"
         cx="-1.7638946"
         r="56.444439"
         style="display:inline;fill:#f0a30a;fill-opacity:1;stroke-width:0.28222221" />
      <g
         clip-path="url(#clipPath3594)"
         transform="matrix(0.17350994,0,0,0.17394889,-43.99031,250.87431)"
         id="g3611"
         style="display:inline;fill:#b47a08;fill-opacity:1">
        <g
           style="fill:#b47a08;fill-opacity:1"
           id="g3422">
          <g
             style="fill:#b47a08;fill-opacity:1"
             id="g3424">
            <path
               inkscape:connector-curvature="0"
               style="fill:#b47a08;fill-opacity:1"
               d="m 403.88,196.563 h -9.484 l 353.55339,353.55339 h 9.484 z"
               id="path3426" />
            <path
               inkscape:connector-curvature="0"
               style="fill:#b47a08;fill-opacity:1"
               d="m 394.396,196.563 v -44.388 l 353.55339,353.55339 v 44.388 z"
               id="path3428" />
            <path
               inkscape:connector-curvature="0"
               style="fill:#b47a08;fill-opacity:1"
               d="m 394.396,152.175 c 0,-42.18808 -17.20382,-80.806849 -44.98003,-108.583061 L 702.96936,397.14533 c 27.77621,27.77621 44.98003,66.39498 44.98003,108.58306 z"
               id="path3430" />
            <path
               inkscape:connector-curvature="0"
               style="fill:#b47a08;fill-opacity:1"
               d="M 349.41597,43.591939 C 323.13902,17.314985 287.40019,0.74169672 247.814,0.03 l 353.55339,353.55339 c 39.58619,0.7117 75.32502,17.28499 101.60197,43.56194 z"
               id="path3432" />
            <path
               inkscape:connector-curvature="0"
               style="fill:#b47a08;fill-opacity:1"
               d="m 247.814,0.03 c -2.225,-0.04 -6.671,-0.04 -8.895,0 l 353.55339,353.55339 c 2.224,-0.04 6.67,-0.04 8.895,0 z"
               id="path3434" />
            <path
               inkscape:connector-curvature="0"
               style="fill:#b47a08;fill-opacity:1"
               d="M 238.919,0.03 C 157.486,1.494 92.336,70.076 92.336,152.175 l 353.55339,353.55339 c 0,-82.099 65.15,-150.681 146.583,-152.145 z"
               id="path3436" />
            <path
               inkscape:connector-curvature="0"
               style="fill:#b47a08;fill-opacity:1"
               d="m 92.336,152.175 v 44.388 l 353.55339,353.55339 v -44.388 z"
               id="path3438" />
            <path
               inkscape:connector-curvature="0"
               style="fill:#b47a08;fill-opacity:1"
               d="m 92.336,196.563 h -9.485 l 353.55339,353.55339 h 9.485 z"
               id="path3440" />
            <path
               inkscape:connector-curvature="0"
               style="fill:#b47a08;fill-opacity:1"
               d="m 82.851,196.563 c -14.616,0 -26.538,15.082 -26.538,33.709 l 353.55339,353.55339 c 0,-18.627 11.922,-33.709 26.538,-33.709 z"
               id="path3442" />
            <path
               inkscape:connector-curvature="0"
               style="fill:#b47a08;fill-opacity:1"
               d="m 56.313,230.272 v 222.632 l 353.55339,353.55339 v -222.632 z"
               id="path3444" />
            <path
               inkscape:connector-curvature="0"
               style="fill:#b47a08;fill-opacity:1"
               d="m 56.313,452.904 c 0,10.77665 3.999545,20.41838 10.205749,26.62459 L 420.07214,833.08198 c -6.2062,-6.20621 -10.20575,-15.84794 -10.20575,-26.62459 z"
               id="path3446" />
            <path
               inkscape:connector-curvature="0"
               style="fill:#b47a08;fill-opacity:1"
               d="m 66.518749,479.52859 c 4.508873,4.50887 10.18246,7.20441 16.333251,7.20441 l 353.55339,353.55339 c -6.15079,0 -11.82438,-2.69554 -16.33325,-7.20441 z"
               id="path3448" />
            <path
               inkscape:connector-curvature="0"
               style="fill:#b47a08;fill-opacity:1"
               d="M 82.852,486.733 H 403.88 l 353.55339,353.55339 h -321.028 z"
               id="path3450" />
            <path
               inkscape:connector-curvature="0"
               style="fill:#b47a08;fill-opacity:1"
               d="m 403.88,486.733 c 14.616,0 26.539,-15.223 26.539,-33.829 l 353.55339,353.55339 c 0,18.606 -11.923,33.829 -26.539,33.829 z"
               id="path3452" />
            <path
               inkscape:connector-curvature="0"
               style="fill:#b47a08;fill-opacity:1"
               d="M 430.419,452.904 V 230.272 l 353.55339,353.55339 v 222.632 z"
               id="path3454" />
            <path
               inkscape:connector-curvature="0"
               style="fill:#b47a08;fill-opacity:1"
               d="m 430.419,230.272 c 0,-10.75237 -3.973,-20.32404 -10.14393,-26.49497 l 353.55339,353.55339 c 6.17093,6.17093 10.14393,15.7426 10.14393,26.49497 z"
               id="path3456" />
            <path
               inkscape:connector-curvature="0"
               style="fill:#b47a08;fill-opacity:1"
               d="M 420.27507,203.77703 C 415.75629,199.25825 410.05893,196.563 403.88,196.563 l 353.55339,353.55339 c 6.17893,0 11.87629,2.69525 16.39507,7.21403 z"
               id="path3458" />
            <path
               inkscape:connector-curvature="0"
               style="fill:#b47a08;fill-opacity:1"
               d="m 273.442,341.362 v 67.271 l 353.55339,353.55339 v -67.271 z"
               id="path3460" />
            <path
               inkscape:connector-curvature="0"
               style="fill:#b47a08;fill-opacity:1"
               d="m 273.442,408.633 c 0,7.703 -6.449,14.222 -14.158,14.222 l 353.55339,353.55339 c 7.709,0 14.158,-6.519 14.158,-14.222 z"
               id="path3462" />
            <path
               inkscape:connector-curvature="0"
               style="fill:#b47a08;fill-opacity:1"
               d="M 259.284,422.855 H 227.45 l 353.55339,353.55339 h 31.834 z"
               id="path3464" />
            <path
               inkscape:connector-curvature="0"
               style="fill:#b47a08;fill-opacity:1"
               d="m 227.45,422.855 c -3.83837,0 -7.3642,-1.61572 -9.93735,-4.18887 l 353.55339,353.55339 c 2.57315,2.57315 6.09898,4.18887 9.93735,4.18887 z"
               id="path3466" />
            <path
               inkscape:connector-curvature="0"
               style="fill:#b47a08;fill-opacity:1"
               d="M 217.51265,418.66613 C 214.91719,416.07067 213.291,412.50112 213.291,408.633 l 353.55339,353.55339 c 0,3.86812 1.62619,7.43768 4.22165,10.03313 z"
               id="path3468" />
            <path
               inkscape:connector-curvature="0"
               style="fill:#b47a08;fill-opacity:1"
               d="m 213.291,408.633 v -67.271 l 353.55339,353.55339 v 67.271 z"
               id="path3470" />
            <path
               inkscape:connector-curvature="0"
               style="fill:#b47a08;fill-opacity:1"
               d="m 213.291,341.362 c -0.0737,-0.0725 -0.14701,-0.14528 -0.22006,-0.21833 l 353.55339,353.55339 c 0.073,0.0731 0.1464,0.14583 0.22006,0.21833 z"
               id="path3472" />
            <path
               inkscape:connector-curvature="0"
               style="fill:#b47a08;fill-opacity:1"
               d="M 213.07094,341.14367 C 205.72866,333.80139 201.461,323.7141 201.461,312.567 l 353.55339,353.55339 c 0,11.1471 4.26766,21.23439 11.60994,28.57667 z"
               id="path3474" />
            <path
               inkscape:connector-curvature="0"
               style="fill:#b47a08;fill-opacity:1"
               d="m 201.461,312.567 c 0,-21.334 16.491,-39.666 37.459,-40.513 l 353.55339,353.55339 c -20.968,0.847 -37.459,19.179 -37.459,40.513 z"
               id="path3476" />
            <path
               inkscape:connector-curvature="0"
               style="fill:#b47a08;fill-opacity:1"
               d="m 238.92,272.054 c 2.222,-0.09 6.673,-0.09 8.895,0 l 353.55339,353.55339 c -2.222,-0.09 -6.673,-0.09 -8.895,0 z"
               id="path3478" />
            <path
               inkscape:connector-curvature="0"
               style="fill:#b47a08;fill-opacity:1"
               d="m 247.815,272.054 c 9.86611,0.39854 18.74101,4.66826 25.37314,11.30039 l 353.55339,353.55339 c -6.63213,-6.63213 -15.50703,-10.90185 -25.37314,-11.30039 z"
               id="path3480" />
            <path
               inkscape:connector-curvature="0"
               style="fill:#b47a08;fill-opacity:1"
               d="m 273.18814,283.35439 c 7.46283,7.46283 12.08586,17.91693 12.08586,29.21261 l 353.55339,353.55339 c 0,-11.29567 -4.62303,-21.74978 -12.08586,-29.21261 z"
               id="path3482" />
            <path
               inkscape:connector-curvature="0"
               style="fill:#b47a08;fill-opacity:1"
               d="m 285.274,312.567 c -0.002,11.258 -4.355,21.435 -11.832,28.795 l 353.55339,353.55339 c 7.477,-7.36 11.83,-17.537 11.832,-28.795 z"
               id="path3484" />
            <path
               inkscape:connector-curvature="0"
               style="fill:#b47a08;fill-opacity:1"
               d="m 331.886,196.563 h -84.072 l 353.55339,353.55339 h 84.072 z"
               id="path3486" />
            <path
               inkscape:connector-curvature="0"
               style="fill:#b47a08;fill-opacity:1"
               d="m 247.814,196.563 h -8.895 l 353.55339,353.55339 h 8.895 z"
               id="path3488" />
            <path
               inkscape:connector-curvature="0"
               style="fill:#b47a08;fill-opacity:1"
               d="m 238.919,196.563 h -84.072 l 353.55339,353.55339 h 84.072 z"
               id="path3490" />
            <path
               inkscape:connector-curvature="0"
               style="fill:#b47a08;fill-opacity:1"
               d="m 154.847,196.563 v -44.388 l 353.55339,353.55339 v 44.388 z"
               id="path3492" />
            <path
               inkscape:connector-curvature="0"
               style="fill:#b47a08;fill-opacity:1"
               d="m 154.847,152.175 c 0,-48.905 39.744,-89.342 88.519,-89.342 l 353.55339,353.55339 c -48.775,0 -88.519,40.437 -88.519,89.342 z"
               id="path3494" />
            <path
               inkscape:connector-curvature="0"
               style="fill:#b47a08;fill-opacity:1"
               d="m 243.366,62.833 c 24.19876,0 46.17508,9.953381 62.17778,25.956082 L 659.09717,442.34247 c -16.0027,-16.0027 -37.97902,-25.95608 -62.17778,-25.95608 z"
               id="path3496" />
            <path
               inkscape:connector-curvature="0"
               style="fill:#b47a08;fill-opacity:1"
               d="M 305.54378,88.789082 C 321.7961,105.04141 331.887,127.53326 331.887,152.175 l 353.55339,353.55339 c 0,-24.64174 -10.0909,-47.13359 -26.34322,-63.38592 z"
               id="path3498" />
            <path
               inkscape:connector-curvature="0"
               style="fill:#b47a08;fill-opacity:1"
               d="m 331.887,152.175 v 44.388 l 353.55339,353.55339 v -44.388 z"
               id="path3500" />
          </g>
          <path
             id="path3613"
             d="m 403.88,196.563 h -9.484 V 152.175 C 394.396,70.076 329.245,1.494 247.814,0.03 c -2.225,-0.04 -6.671,-0.04 -8.895,0 C 157.486,1.494 92.336,70.076 92.336,152.175 v 44.388 h -9.485 c -14.616,0 -26.538,15.082 -26.538,33.709 v 222.632 c 0,18.606 11.922,33.829 26.539,33.829 H 403.88 c 14.616,0 26.539,-15.223 26.539,-33.829 V 230.272 c 0,-18.626 -11.922,-33.709 -26.539,-33.709 z M 273.442,341.362 v 67.271 c 0,7.703 -6.449,14.222 -14.158,14.222 H 227.45 c -7.71,0 -14.159,-6.519 -14.159,-14.222 v -67.271 c -7.477,-7.36 -11.83,-17.537 -11.83,-28.795 0,-21.334 16.491,-39.666 37.459,-40.513 2.222,-0.09 6.673,-0.09 8.895,0 20.968,0.847 37.459,19.179 37.459,40.513 -0.002,11.258 -4.355,21.435 -11.832,28.795 z m 58.444,-144.799 h -84.072 -8.895 -84.072 v -44.388 c 0,-48.905 39.744,-89.342 88.519,-89.342 48.775,0 88.521,40.437 88.521,89.342 v 44.388 z"
             inkscape:connector-curvature="0"
             style="fill:#b47a08;fill-opacity:1" />
        </g>
      </g>
      <g
         style="display:inline;fill:#ffffff"
         id="g3373"
         transform="matrix(0.17350994,0,0,0.17394889,-43.99031,250.87431)">
        <path
           style="fill:#ffffff"
           inkscape:connector-curvature="0"
           d="m 403.88,196.563 h -9.484 V 152.175 C 394.396,70.076 329.245,1.494 247.814,0.03 c -2.225,-0.04 -6.671,-0.04 -8.895,0 C 157.486,1.494 92.336,70.076 92.336,152.175 v 44.388 h -9.485 c -14.616,0 -26.538,15.082 -26.538,33.709 v 222.632 c 0,18.606 11.922,33.829 26.539,33.829 H 403.88 c 14.616,0 26.539,-15.223 26.539,-33.829 V 230.272 c 0,-18.626 -11.922,-33.709 -26.539,-33.709 z M 273.442,341.362 v 67.271 c 0,7.703 -6.449,14.222 -14.158,14.222 H 227.45 c -7.71,0 -14.159,-6.519 -14.159,-14.222 v -67.271 c -7.477,-7.36 -11.83,-17.537 -11.83,-28.795 0,-21.334 16.491,-39.666 37.459,-40.513 2.222,-0.09 6.673,-0.09 8.895,0 20.968,0.847 37.459,19.179 37.459,40.513 -0.002,11.258 -4.355,21.435 -11.832,28.795 z m 58.444,-144.799 h -84.072 -8.895 -84.072 v -44.388 c 0,-48.905 39.744,-89.342 88.519,-89.342 48.775,0 88.521,40.437 88.521,89.342 v 44.388 z"
           id="path3375" />
      </g>
    </g>
  </g>
</svg>
