<?xml version="1.0" encoding="UTF-8"?>
<!-- Generator: Adobe Illustrator 13.0.0, SVG Export Plug-In  -->
<!DOCTYPE svg PUBLIC "-//W3C//DTD SVG 1.1//EN" "http://www.w3.org/Graphics/SVG/1.1/DTD/svg11.dtd" [
	<!ENTITY ns_flows "http://ns.adobe.com/Flows/1.0/">
]>
<svg version="1.1" xmlns="http://www.w3.org/2000/svg" xmlns:xlink="http://www.w3.org/1999/xlink" xmlns:a="http://ns.adobe.com/AdobeSVGViewerExtensions/3.0/" x="0px" y="0px" width="484px" height="673px" viewBox="-17.645 -22.745 484 673" enable-background="new -17.645 -22.745 484 673" xml:space="preserve">
<defs>
</defs>
<path fill="none" stroke="#000000" stroke-width="6" d="M245.258,307.409c17.445,8.534,28.099,19.926,28.099,32.438  c0,12.512-10.652,23.903-28.095,32.436"/>
<line fill="none" stroke="#963C96" stroke-width="9" x1="166.957" y1="339.848" x2="166.957" y2="39.848"/>
<line fill="none" stroke="#963C96" stroke-width="9" x1="166.957" y1="589.848" x2="166.957" y2="339.848"/>
<line fill="none" stroke="#E12828" stroke-width="9" x1="166.957" y1="339.848" x2="397.925" y2="244.177"/>
<line fill="none" stroke="#2828FF" stroke-width="9" x1="166.957" y1="339.848" x2="397.927" y2="435.518"/>
<polygon fill="#963C96" points="166.957,39.848 187.061,56.991 166.957,0 146.853,56.991 "/>
<polygon fill="#E12828" points="397.925,244.177 389.779,269.311 434.739,228.928 374.394,232.164 "/>
<polygon fill="#2828FF" points="397.927,435.518 374.396,447.531 434.741,450.767 389.782,410.385 "/>
<g>
	<path fill="#2828FF" d="M70.85,164.157l-0.366-0.122c-1.335,1.302-2.633,2.246-3.894,2.832c-1.262,0.586-2.6,0.879-4.016,0.879   c-2.083,0-3.735-0.549-4.956-1.648s-1.831-2.567-1.831-4.407c0-2.393,1.176-4.276,3.528-5.652c2.352-1.375,5.92-2.242,10.706-2.6   v-2.319c0-1.514-0.171-2.681-0.513-3.503c-0.342-0.822-0.781-1.399-1.318-1.733c-0.537-0.333-1.18-0.5-1.929-0.5   c-0.749,0-1.396,0.13-1.941,0.391c-0.545,0.261-1.038,0.753-1.477,1.477c-0.439,0.725-0.765,1.729-0.977,3.015h-4.614v-4.443   c1.872-0.83,3.455-1.453,4.749-1.868s2.498-0.72,3.613-0.916c1.115-0.195,2.185-0.293,3.21-0.293c1.969,0,3.544,0.261,4.724,0.781   c1.18,0.521,2.063,1.367,2.649,2.539s0.879,2.792,0.879,4.858v9.521c0,1.384,0.041,2.364,0.122,2.942   c0.081,0.578,0.208,0.997,0.378,1.257c0.171,0.261,0.391,0.464,0.659,0.61s0.761,0.31,1.477,0.488v1.611H70.63L70.85,164.157z    M70.044,155.832c-2.523,0.065-4.391,0.537-5.603,1.416c-1.213,0.879-1.819,2.165-1.819,3.857c0,1.009,0.276,1.778,0.83,2.307   c0.553,0.529,1.318,0.793,2.295,0.793c0.749,0,1.457-0.199,2.124-0.598c0.667-0.398,1.196-0.932,1.587-1.599   c0.391-0.667,0.586-1.375,0.586-2.124V155.832z"/>
	<path d="M101.807,153.097l10.962,11.084l-2.441,2.441L99.39,155.465l-11.279,11.06l-2.271-2.295l11.157-11.133l-11.108-10.962   l2.441-2.441l11.06,11.035l11.06-11.035l2.295,2.271L101.807,153.097z"/>
	<path fill="#E12828" d="M121.411,140.817c0-1.546-0.024-2.669-0.073-3.369c-0.049-0.7-0.151-1.241-0.305-1.624   c-0.155-0.382-0.391-0.684-0.708-0.903s-0.875-0.411-1.672-0.574v-1.611l6.812-0.342h3.003v13.989l0.024,0.024   c1.448-1.351,2.763-2.299,3.943-2.844c1.18-0.545,2.388-0.818,3.625-0.818c2.897,0,5.07,1.021,6.519,3.064   c1.448,2.043,2.173,5.099,2.173,9.167c0,4.248-0.957,7.438-2.869,9.57c-1.913,2.132-4.741,3.198-8.484,3.198   c-2.572,0-4.924-0.464-7.056-1.392l-1.807,1.392l-3.125-0.439V140.817z M128.467,159.347c0,2.002,0.346,3.479,1.038,4.431   c0.691,0.952,1.762,1.428,3.21,1.428c1.497,0,2.641-0.785,3.43-2.356c0.789-1.57,1.184-3.813,1.184-6.726   c0-3.206-0.35-5.599-1.05-7.178c-0.7-1.579-1.791-2.368-3.271-2.368c-0.716,0-1.424,0.188-2.124,0.562   c-0.7,0.375-1.278,0.908-1.733,1.599c-0.456,0.692-0.684,1.453-0.684,2.283V159.347z"/>
</g>
<g>
	<path fill="#2828FF" d="M288.357,428.148l-0.366-0.122c-1.335,1.303-2.633,2.246-3.894,2.832c-1.262,0.586-2.6,0.879-4.016,0.879   c-2.083,0-3.735-0.549-4.956-1.648c-1.221-1.098-1.831-2.566-1.831-4.406c0-2.393,1.176-4.276,3.528-5.652   c2.352-1.375,5.92-2.241,10.706-2.6v-2.319c0-1.514-0.171-2.681-0.513-3.503s-0.781-1.4-1.318-1.734   c-0.537-0.333-1.18-0.5-1.929-0.5c-0.749,0-1.396,0.131-1.941,0.391c-0.545,0.261-1.038,0.753-1.477,1.477   c-0.439,0.725-0.765,1.73-0.977,3.016h-4.614v-4.443c1.872-0.83,3.455-1.453,4.749-1.867c1.294-0.416,2.498-0.721,3.613-0.916   c1.115-0.195,2.185-0.293,3.21-0.293c1.969,0,3.544,0.261,4.724,0.781c1.18,0.521,2.063,1.367,2.649,2.539s0.879,2.791,0.879,4.858   v9.521c0,1.384,0.041,2.364,0.122,2.942c0.081,0.578,0.208,0.996,0.378,1.257s0.391,0.464,0.659,0.61s0.761,0.31,1.477,0.488v1.611   h-9.082L288.357,428.148z M287.552,419.823c-2.523,0.065-4.391,0.537-5.603,1.416c-1.213,0.879-1.819,2.165-1.819,3.857   c0,1.01,0.276,1.778,0.83,2.307c0.553,0.529,1.318,0.794,2.295,0.794c0.749,0,1.457-0.199,2.124-0.599   c0.667-0.398,1.196-0.932,1.587-1.599s0.586-1.375,0.586-2.124V419.823z"/>
</g>
<g>
	<path d="M310.648,320.541c3.157,0,5.599,0.92,7.324,2.759c1.725,1.839,2.588,4.468,2.588,7.886c0,2.49-0.419,5.278-1.257,8.362   c-0.838,3.084-2.047,5.774-3.625,8.069c-1.579,2.295-3.447,4.045-5.603,5.249c-2.157,1.205-4.439,1.807-6.848,1.807   c-3.271,0-5.77-0.911-7.495-2.734c-1.726-1.823-2.588-4.427-2.588-7.813c0-2.441,0.407-5.192,1.221-8.252   c0.813-3.06,2.01-5.77,3.589-8.13c1.579-2.36,3.455-4.15,5.627-5.371S308.109,320.541,310.648,320.541z M314.945,337.923h-16.333   c-0.586,2.653-0.879,5.005-0.879,7.056c0,2.507,0.468,4.391,1.404,5.652c0.936,1.262,2.332,1.892,4.187,1.892   c1.66,0,3.243-0.586,4.749-1.758c1.505-1.172,2.848-2.873,4.028-5.103C313.281,343.433,314.229,340.853,314.945,337.923z    M299.174,335.677h16.235c0.342-1.888,0.513-3.727,0.513-5.518c0-2.425-0.46-4.276-1.379-5.554   c-0.92-1.277-2.307-1.917-4.163-1.917c-2.376,0-4.537,1.131-6.482,3.394C301.953,328.345,300.378,331.543,299.174,335.677z"/>
</g>
<g>
	<path fill="#E12828" d="M272.903,248.311c0-1.546-0.024-2.669-0.073-3.369c-0.049-0.7-0.151-1.241-0.305-1.624   c-0.155-0.382-0.391-0.684-0.708-0.903s-0.875-0.411-1.672-0.574v-1.611l6.812-0.342h3.003v13.989l0.024,0.024   c1.448-1.351,2.763-2.299,3.943-2.844c1.18-0.545,2.388-0.818,3.625-0.818c2.897,0,5.07,1.021,6.519,3.064   c1.448,2.043,2.173,5.099,2.173,9.167c0,4.248-0.957,7.438-2.869,9.57c-1.913,2.132-4.741,3.198-8.484,3.198   c-2.572,0-4.924-0.464-7.056-1.392l-1.807,1.392l-3.125-0.439V248.311z M279.959,266.841c0,2.002,0.346,3.479,1.038,4.431   c0.691,0.952,1.762,1.428,3.21,1.428c1.497,0,2.641-0.785,3.43-2.356c0.789-1.57,1.184-3.813,1.184-6.726   c0-3.206-0.35-5.599-1.05-7.178c-0.7-1.579-1.791-2.368-3.271-2.368c-0.716,0-1.424,0.188-2.124,0.562   c-0.7,0.375-1.278,0.908-1.733,1.599c-0.456,0.692-0.684,1.453-0.684,2.283V266.841z"/>
</g>
<g>
	<path fill="#E12828" d="M58.203,424.801c0-1.545-0.024-2.668-0.073-3.369c-0.049-0.699-0.151-1.24-0.305-1.623   c-0.155-0.383-0.391-0.684-0.708-0.903s-0.875-0.411-1.672-0.573v-1.611l6.812-0.342h3.003v13.988l0.024,0.025   c1.448-1.352,2.763-2.299,3.943-2.845c1.18-0.545,2.388-0.817,3.625-0.817c2.897,0,5.07,1.021,6.519,3.063   c1.448,2.043,2.173,5.099,2.173,9.167c0,4.248-0.957,7.439-2.869,9.57c-1.913,2.133-4.741,3.199-8.484,3.199   c-2.572,0-4.924-0.465-7.056-1.393l-1.807,1.393l-3.125-0.439V424.801z M65.259,443.333c0,2.002,0.346,3.479,1.038,4.431   c0.691,0.952,1.762,1.429,3.21,1.429c1.497,0,2.641-0.785,3.43-2.356c0.789-1.57,1.184-3.813,1.184-6.726   c0-3.207-0.35-5.6-1.05-7.178c-0.7-1.579-1.791-2.369-3.271-2.369c-0.716,0-1.424,0.188-2.124,0.563   c-0.7,0.374-1.278,0.907-1.733,1.599c-0.456,0.692-0.684,1.452-0.684,2.282V443.333z"/>
	<path d="M104.614,437.083l10.962,11.084l-2.441,2.441l-10.938-11.158L90.918,450.51l-2.271-2.295l11.157-11.133L88.696,426.12   l2.441-2.441l11.06,11.035l11.06-11.035l2.295,2.271L104.614,437.083z"/>
	<path fill="#2828FF" d="M136.865,448.141l-0.366-0.121c-1.335,1.302-2.633,2.246-3.894,2.832c-1.262,0.586-2.6,0.879-4.016,0.879   c-2.083,0-3.735-0.55-4.956-1.648s-1.831-2.567-1.831-4.406c0-2.393,1.176-4.277,3.528-5.652c2.352-1.375,5.92-2.242,10.706-2.6   v-2.32c0-1.514-0.171-2.681-0.513-3.503c-0.342-0.821-0.781-1.399-1.318-1.733s-1.18-0.5-1.929-0.5   c-0.749,0-1.396,0.13-1.941,0.391c-0.545,0.26-1.038,0.752-1.477,1.477s-0.765,1.729-0.977,3.016h-4.614v-4.443   c1.872-0.83,3.455-1.453,4.749-1.868s2.498-0.72,3.613-0.915c1.115-0.195,2.185-0.293,3.21-0.293c1.969,0,3.544,0.26,4.724,0.781   c1.18,0.521,2.063,1.367,2.649,2.539s0.879,2.791,0.879,4.857v9.521c0,1.385,0.041,2.365,0.122,2.942   c0.081,0.578,0.208,0.997,0.378,1.257c0.171,0.262,0.391,0.465,0.659,0.611s0.761,0.309,1.477,0.488v1.611h-9.082L136.865,448.141z    M136.06,439.817c-2.523,0.064-4.391,0.537-5.603,1.416c-1.213,0.879-1.819,2.164-1.819,3.857c0,1.009,0.276,1.777,0.83,2.307   c0.553,0.529,1.318,0.793,2.295,0.793c0.749,0,1.457-0.199,2.124-0.598c0.667-0.398,1.196-0.932,1.587-1.6   c0.391-0.666,0.586-1.375,0.586-2.123V439.817z"/>
	<path d="M3.638,484.616v-3.248h30.078v3.248H3.638z M3.638,494.747V491.5h30.078v3.246H3.638z"/>
	<path d="M51.318,491.377H39.99v-3.783h11.328V491.377z"/>
	<path fill="#2828FF" d="M70.85,499.141l-0.366-0.121c-1.335,1.302-2.633,2.246-3.894,2.832c-1.262,0.586-2.6,0.879-4.016,0.879   c-2.083,0-3.735-0.55-4.956-1.648s-1.831-2.567-1.831-4.406c0-2.393,1.176-4.277,3.528-5.652c2.352-1.375,5.92-2.242,10.706-2.6   v-2.32c0-1.514-0.171-2.681-0.513-3.503c-0.342-0.821-0.781-1.399-1.318-1.733s-1.18-0.5-1.929-0.5   c-0.749,0-1.396,0.13-1.941,0.391c-0.545,0.26-1.038,0.752-1.477,1.477s-0.765,1.729-0.977,3.016h-4.614v-4.443   c1.872-0.83,3.455-1.453,4.749-1.868s2.498-0.72,3.613-0.915c1.115-0.195,2.185-0.293,3.21-0.293c1.969,0,3.544,0.26,4.724,0.781   c1.18,0.521,2.063,1.367,2.649,2.539s0.879,2.791,0.879,4.857v9.521c0,1.385,0.041,2.365,0.122,2.942   c0.081,0.578,0.208,0.997,0.378,1.257c0.171,0.262,0.391,0.465,0.659,0.611s0.761,0.309,1.477,0.488v1.611H70.63L70.85,499.141z    M70.044,490.817c-2.523,0.064-4.391,0.537-5.603,1.416c-1.213,0.879-1.819,2.164-1.819,3.857c0,1.009,0.276,1.777,0.83,2.307   c0.553,0.529,1.318,0.793,2.295,0.793c0.749,0,1.457-0.199,2.124-0.598c0.667-0.398,1.196-0.932,1.587-1.6   c0.391-0.666,0.586-1.375,0.586-2.123V490.817z"/>
	<path d="M101.807,488.083l10.962,11.084l-2.441,2.441L99.39,490.45L88.11,501.51l-2.271-2.295l11.157-11.133L85.889,477.12   l2.441-2.441l11.06,11.035l11.06-11.035l2.295,2.271L101.807,488.083z"/>
	<path fill="#E12828" d="M121.411,475.801c0-1.545-0.024-2.668-0.073-3.369c-0.049-0.699-0.151-1.24-0.305-1.623   c-0.155-0.383-0.391-0.684-0.708-0.903s-0.875-0.411-1.672-0.573v-1.611l6.812-0.342h3.003v13.988l0.024,0.025   c1.448-1.352,2.763-2.299,3.943-2.845c1.18-0.545,2.388-0.817,3.625-0.817c2.897,0,5.07,1.021,6.519,3.063   c1.448,2.043,2.173,5.099,2.173,9.167c0,4.248-0.957,7.439-2.869,9.57c-1.913,2.133-4.741,3.199-8.484,3.199   c-2.572,0-4.924-0.465-7.056-1.393l-1.807,1.393l-3.125-0.439V475.801z M128.467,494.333c0,2.002,0.346,3.479,1.038,4.431   c0.691,0.952,1.762,1.429,3.21,1.429c1.497,0,2.641-0.785,3.43-2.356c0.789-1.57,1.184-3.813,1.184-6.726   c0-3.207-0.35-5.6-1.05-7.178c-0.7-1.579-1.791-2.369-3.271-2.369c-0.716,0-1.424,0.188-2.124,0.563   c-0.7,0.374-1.278,0.907-1.733,1.599c-0.456,0.692-0.684,1.452-0.684,2.282V494.333z"/>
</g>
<g enable-background="new    ">
	<path fill="#808080" d="M145.557,306.348h-11.841v-1.611c0.749-0.179,1.27-0.443,1.563-0.793c0.293-0.35,0.492-0.822,0.598-1.416   c0.105-0.594,0.159-1.664,0.159-3.21v-6.519c0-1.188-0.033-2.217-0.098-3.088c-0.065-0.871-0.179-1.546-0.342-2.026   c-0.163-0.48-0.366-0.871-0.61-1.172c-0.244-0.301-0.529-0.533-0.854-0.696c-0.326-0.163-0.781-0.244-1.367-0.244   c-0.619,0-1.262,0.191-1.929,0.574c-0.667,0.383-1.229,0.912-1.685,1.587c-0.456,0.676-0.684,1.396-0.684,2.161v9.399   c0,1.546,0.049,2.621,0.146,3.223c0.098,0.603,0.297,1.079,0.598,1.428c0.301,0.35,0.834,0.615,1.599,0.793v1.611h-11.792v-1.611   c0.781-0.211,1.322-0.488,1.624-0.83c0.301-0.342,0.504-0.806,0.61-1.392c0.105-0.586,0.159-1.652,0.159-3.198v-10.034   c0-1.204-0.021-2.095-0.061-2.673c-0.041-0.578-0.139-1.042-0.293-1.392c-0.155-0.35-0.391-0.635-0.708-0.854   s-0.867-0.411-1.648-0.574v-1.66l6.689-0.195h3.076l-0.366,3.516l0.293,0.073c1.563-1.399,2.934-2.38,4.114-2.942   c1.18-0.562,2.38-0.842,3.601-0.842c1.334,0,2.441,0.191,3.32,0.574c0.879,0.383,1.591,0.94,2.136,1.672   c0.545,0.732,0.936,1.628,1.172,2.686c0.236,1.058,0.354,2.287,0.354,3.687v8.936c0,1.546,0.049,2.612,0.146,3.198   s0.301,1.054,0.61,1.404c0.309,0.35,0.879,0.631,1.709,0.842V306.348z"/>
	<path fill="#808080" d="M133.948,271.143l8.301,7.69l-1.318,1.392l-8.618-5.933h-0.269l-8.765,5.933l-1.318-1.392l8.716-7.69   H133.948z"/>
</g>
<line fill="none" stroke="#808080" stroke-width="11" x1="166.957" y1="339.848" x2="166.957" y2="236.852"/>
<polygon fill="#808080" points="166.957,236.852 187.061,253.996 166.957,197.004 146.853,253.996 "/>
<polygon fill="#963C96" points="166.957,589.848 146.853,572.705 166.957,629.696 187.061,572.705 "/>
<polyline fill="none" stroke="#000000" stroke-width="6" points="166.957,299.922 212.791,281.389 212.791,320.862 "/>
<polyline fill="none" stroke="#000000" stroke-width="6" points="166.957,299.922 205.927,316.516 205.927,355.99 "/>
<circle cx="166.957" cy="339.848" r="13.702"/>
</svg>