<?xml version="1.0" encoding="UTF-8" standalone="no"?>
<!-- Created with Inkscape (http://www.inkscape.org/) -->

<svg
   xmlns:dc="http://purl.org/dc/elements/1.1/"
   xmlns:cc="http://creativecommons.org/ns#"
   xmlns:rdf="http://www.w3.org/1999/02/22-rdf-syntax-ns#"
   xmlns:svg="http://www.w3.org/2000/svg"
   xmlns="http://www.w3.org/2000/svg"
   xmlns:xlink="http://www.w3.org/1999/xlink"
   xmlns:sodipodi="http://sodipodi.sourceforge.net/DTD/sodipodi-0.dtd"
   xmlns:inkscape="http://www.inkscape.org/namespaces/inkscape"
   width="25"
   height="25"
   viewBox="0 0 6.6145832 6.6145835"
   version="1.1"
   id="svg8"
   inkscape:version="0.92.0 r15299"
   sodipodi:docname="icon_cpp.svg">
  <defs
     id="defs2">
    <linearGradient
       inkscape:collect="always"
       id="linearGradient883">
      <stop
         style="stop-color:#f2f2f2;stop-opacity:1;"
         offset="0"
         id="stop879" />
      <stop
         style="stop-color:#ffffff;stop-opacity:1"
         offset="1"
         id="stop881" />
    </linearGradient>
    <linearGradient
       inkscape:collect="always"
       xlink:href="#linearGradient883"
       id="linearGradient885"
       x1="88.557823"
       y1="216.82378"
       x2="64.592651"
       y2="-58.775745"
       gradientUnits="userSpaceOnUse" />
  </defs>
  <sodipodi:namedview
     id="base"
     pagecolor="#ffffff"
     bordercolor="#666666"
     borderopacity="1.0"
     inkscape:pageopacity="0.0"
     inkscape:pageshadow="2"
     inkscape:zoom="18.876775"
     inkscape:cx="10.096807"
     inkscape:cy="7.9131776"
     inkscape:document-units="px"
     inkscape:current-layer="g21"
     showgrid="true"
     units="px"
     inkscape:window-width="994"
     inkscape:window-height="791"
     inkscape:window-x="26"
     inkscape:window-y="26"
     inkscape:window-maximized="0"
     inkscape:object-paths="true"
     inkscape:snap-bbox="true"
     inkscape:bbox-paths="true"
     inkscape:bbox-nodes="true"
     inkscape:snap-bbox-edge-midpoints="false"
     inkscape:snap-bbox-midpoints="false"
     inkscape:snap-intersection-paths="true"
     inkscape:snap-smooth-nodes="true"
     inkscape:snap-midpoints="true">
    <inkscape:grid
       type="xygrid"
       id="grid4485" />
  </sodipodi:namedview>
  <metadata
     id="metadata5">
    <rdf:RDF>
      <cc:Work
         rdf:about="">
        <dc:format>image/svg+xml</dc:format>
        <dc:type
           rdf:resource="http://purl.org/dc/dcmitype/StillImage" />
        <dc:title />
      </cc:Work>
    </rdf:RDF>
  </metadata>
  <g
     inkscape:label="Layer 1"
     inkscape:groupmode="layer"
     id="layer1"
     transform="translate(0,-290.3854)">
    <g
       transform="matrix(0.01598337,0,0,0.01598337,0.83996153,290.56386)"
       style="fill:#257ab8;fill-rule:evenodd;stroke:none;stroke-width:1"
       id="Shape" />
    <g
       style="fill:#257ab8;fill-rule:evenodd;stroke:none;stroke-width:1"
       transform="matrix(0.02208065,0,0,0.02208065,0.95500236,291.94779)"
       id="g21">
      <path
         style="fill:url(#linearGradient885);fill-rule:evenodd;stroke:none;stroke-width:11.98258781px;stroke-linecap:butt;stroke-linejoin:miter;stroke-opacity:1;fill-opacity:1"
         d="M 4.679707,-58.775746 H 124.50559 L 208.3837,13.119782 V 216.82378 H 4.679707 Z"
         id="path869"
         inkscape:connector-curvature="0" />
      <path
         style="color:#000000;clip-rule:nonzero;display:inline;overflow:visible;visibility:visible;opacity:1;isolation:auto;mix-blend-mode:normal;color-interpolation:sRGB;color-interpolation-filters:linearRGB;solid-color:#000000;solid-opacity:1;vector-effect:none;fill:#257ab8;fill-opacity:1;fill-rule:evenodd;stroke:none;stroke-width:0.08345442;stroke-linecap:butt;stroke-linejoin:miter;stroke-miterlimit:4;stroke-dasharray:none;stroke-dashoffset:0;stroke-opacity:1;color-rendering:auto;image-rendering:auto;shape-rendering:auto;text-rendering:auto;enable-background:accumulate;font-variant-east_asian:normal"
         d="M 4 0 C 3.4460001 0 3 0.4460001 3 1 L 3 24 C 3 24.554 3.4460001 25 4 25 L 21 25 C 21.554 25 22 24.554 22 24 L 22 7 L 15 0 L 4 0 z M 5 2 L 14 2 L 14 8 L 20 8 L 20 23 L 5 23 L 5 2 z "
         transform="matrix(11.982588,0,0,11.982588,-43.250645,-70.758334)"
         id="rect42" />
      <path
         d="m 102.03666,147.38767 c -6.541708,2.91367 -18.918081,5.33833 -32.982769,5.33833 -38.334939,0 -62.8289442,-23.29062 -62.8289442,-60.645118 0,-34.688177 23.7723002,-63.067343 67.9223702,-63.067343 9.701103,0 20.376145,1.694825 28.135883,4.608492 l -5.820008,27.406858 c -4.36359,-1.937292 -10.915879,-3.636184 -20.616982,-3.636184 -19.407089,0 -32.019418,13.826289 -31.779393,33.233378 0,21.831757 14.55613,33.229307 32.508419,33.229307 8.731238,0 15.524366,-1.44991 21.104356,-3.63862 z"
         id="path15"
         inkscape:connector-curvature="0"
         style="stroke-width:0.8136462" />
      <polygon
         points="161.267,82.484 135.024,82.484 135.024,70.674 161.267,70.674 161.267,43.302 173.576,43.302 173.576,70.674 199.816,70.674 199.816,82.484 173.576,82.484 173.576,110.111 161.267,110.111 "
         id="polygon17"
         transform="matrix(0.81364618,0,0,0.81364618,-19.805106,28.461073)" />
      <polygon
         points="248.438,43.302 248.438,70.674 274.678,70.674 274.678,82.484 248.438,82.484 248.438,110.111 236.135,110.111 236.135,82.484 209.884,82.484 209.884,70.674 236.135,70.674 236.135,43.302 "
         id="polygon19"
         transform="matrix(0.81364618,0,0,0.81364618,-20.997475,28.461073)" />
    </g>
  </g>
</svg>
