<?xml version="1.0" encoding="UTF-8" standalone="no"?>
<!-- Created with Inkscape (http://www.inkscape.org/) -->

<svg
   width="25"
   height="25"
   viewBox="0 0 6.6145832 6.6145835"
   version="1.1"
   id="svg8"
   inkscape:version="1.3 (0e150ed6c4, 2023-07-21)"
   sodipodi:docname="icon_apptainer.svg"
   xml:space="preserve"
   xmlns:inkscape="http://www.inkscape.org/namespaces/inkscape"
   xmlns:sodipodi="http://sodipodi.sourceforge.net/DTD/sodipodi-0.dtd"
   xmlns="http://www.w3.org/2000/svg"
   xmlns:svg="http://www.w3.org/2000/svg"
   xmlns:rdf="http://www.w3.org/1999/02/22-rdf-syntax-ns#"
   xmlns:cc="http://creativecommons.org/ns#"
   xmlns:dc="http://purl.org/dc/elements/1.1/"><defs
     id="defs2">&#10;	&#10;	&#10;	&#10;	&#10;	&#10;	&#10;	&#10;	&#10;	&#10;</defs><sodipodi:namedview
     id="base"
     pagecolor="#ffffff"
     bordercolor="#666666"
     borderopacity="1.0"
     inkscape:pageopacity="0.0"
     inkscape:pageshadow="2"
     inkscape:zoom="13.348997"
     inkscape:cx="3.5208638"
     inkscape:cy="12.735039"
     inkscape:document-units="px"
     inkscape:current-layer="layer1"
     showgrid="true"
     units="px"
     inkscape:window-width="2560"
     inkscape:window-height="1009"
     inkscape:window-x="-8"
     inkscape:window-y="-8"
     inkscape:window-maximized="1"
     inkscape:snap-bbox="true"
     inkscape:bbox-paths="true"
     inkscape:snap-bbox-midpoints="true"
     inkscape:snap-bbox-edge-midpoints="true"
     inkscape:bbox-nodes="true"
     inkscape:showpageshadow="0"
     inkscape:pagecheckerboard="1"
     inkscape:deskcolor="#d1d1d1"><inkscape:grid
       type="xygrid"
       id="grid4485"
       originx="0"
       originy="0"
       spacingy="1"
       spacingx="1"
       units="px"
       visible="true" /></sodipodi:namedview><metadata
     id="metadata5"><rdf:RDF><cc:Work
         rdf:about=""><dc:format>image/svg+xml</dc:format><dc:type
           rdf:resource="http://purl.org/dc/dcmitype/StillImage" /><dc:title /></cc:Work></rdf:RDF></metadata><g
     inkscape:label="Layer 1"
     inkscape:groupmode="layer"
     id="layer1"
     transform="translate(0,-290.3854)"><g
       id="g1"
       transform="matrix(0.20551438,0,0,0.20551438,12.113315,235.4835)"><path
         class="st0"
         d="m -32.856608,298.50911 c -0.238125,-0.13229 -0.396875,-0.34395 -0.529166,-0.635 l -6.35,-14.23458 c -0.264584,-0.55562 -0.47625,-1.03187 -0.661459,-1.40229 -0.238125,-0.52917 -0.264583,-0.68792 -0.264583,-0.79375 0,-0.26458 0.105833,-0.44979 0.3175,-0.58208 v -0.50271 h -5.23875 v 0.50271 c 0.07937,0.0794 0.15875,0.13229 0.211667,0.21166 0.07937,0.0794 0.105833,0.21167 0.105833,0.34396 0,0.13229 -0.07937,0.34396 -0.211667,0.66146 -0.132291,0.29104 -0.3175,0.68792 -0.529166,1.16417 l -6.244167,14.1552 c -0.105833,0.21167 -0.238125,0.50271 -0.47625,0.87313 -0.211666,0.34396 -0.555625,0.55562 -1.005416,0.58208 v 0.47625 h 5.979583 v -0.47625 c -0.661459,-0.0265 -0.978959,-0.23812 -0.978959,-0.68791 0,-0.21167 0.132292,-0.55563 0.370417,-1.0848 0.211667,-0.42333 0.449792,-0.92604 0.687917,-1.4552 2.963333,1.16416 6.297083,1.19062 9.286875,0.10583 0.238125,0.52917 0.449791,0.97896 0.635,1.34937 0.211666,0.42334 0.3175,0.7673 0.3175,1.05834 0,0.29104 -0.105834,0.47625 -0.291042,0.58208 -0.132292,0.0794 -0.291042,0.13229 -0.423333,0.13229 v 0.47625 h 6.138333 v -0.47625 c -0.343958,-0.10583 -0.635,-0.21166 -0.846667,-0.34396 z m -13.520208,-5.68854 3.33375,-7.43479 3.413125,7.54063 c -2.169583,0.74083 -4.550833,0.71437 -6.746875,-0.10584 z"
         id="path1"
         style="stroke-width:0.264583" /><path
         class="st1"
         d="m -54.737649,284.77724 c 0,-1.11125 0.15875,-2.16958 0.423333,-3.175 l -3.386666,-1.50813 c -0.449792,1.50813 -0.687917,3.01625 -0.687917,4.55084 -0.02646,4.23333 1.74625,8.33437 4.815417,11.24479 l 0.238125,-0.42333 1.375833,-3.09563 c -1.74625,-2.06375 -2.778125,-4.68312 -2.778125,-7.59354 z"
         id="path2"
         style="stroke-width:0.264583" /><path
         class="st2"
         d="m -28.041191,280.14703 -3.360208,1.50813 c 0.264583,1.00541 0.423333,2.06375 0.423333,3.14854 0,2.88396 -1.031875,5.52979 -2.751667,7.59354 l 1.375834,3.09562 0.211666,0.39688 c 3.069167,-2.91042 4.841875,-7.01146 4.815417,-11.24479 0,-1.50813 -0.238125,-3.01625 -0.714375,-4.49792 z"
         id="path3"
         style="stroke-width:0.264583" /><path
         class="st3"
         d="m -56.960149,278.24203 3.360208,1.48167 c 1.772709,-3.75709 5.423958,-6.40292 9.736667,-6.77334 v -3.73062 c -5.635625,0.37042 -10.742083,3.88937 -13.096875,9.02229 z"
         id="path4"
         style="stroke-width:0.264583" /><path
         class="st4"
         d="m -28.755566,278.26849 c -2.354792,-5.15938 -7.46125,-8.70479 -13.096875,-9.04875 v 3.73062 c 4.339167,0.37042 7.990417,3.04271 9.763125,6.7998 z"
         id="path5"
         style="stroke-width:0.264583" /></g></g><style
     type="text/css"
     id="style1">&#10;	.st0{fill:#231F20;}&#10;	.st1{fill:#969696;}&#10;	.st2{fill:#FC9114;}&#10;	.st3{fill:#0096D7;}&#10;	.st4{fill:#6DB413;}&#10;</style></svg>
