<?xml version="1.0" encoding="UTF-8" standalone="no"?>
<!-- Created with Inkscape (http://www.inkscape.org/) -->

<svg
   xmlns:dc="http://purl.org/dc/elements/1.1/"
   xmlns:cc="http://creativecommons.org/ns#"
   xmlns:rdf="http://www.w3.org/1999/02/22-rdf-syntax-ns#"
   xmlns:svg="http://www.w3.org/2000/svg"
   xmlns="http://www.w3.org/2000/svg"
   xmlns:xlink="http://www.w3.org/1999/xlink"
   xmlns:sodipodi="http://sodipodi.sourceforge.net/DTD/sodipodi-0.dtd"
   xmlns:inkscape="http://www.inkscape.org/namespaces/inkscape"
   width="25"
   height="25"
   viewBox="0 0 6.6145832 6.6145835"
   version="1.1"
   id="svg8"
   inkscape:version="0.92.3 (2405546, 2018-03-11)"
   sodipodi:docname="icon_linux.svg">
  <defs
     id="defs2">
    <linearGradient
       id="linearGradient5300"
       inkscape:collect="always">
      <stop
         id="stop5302"
         offset="0"
         style="stop-color:#ffffff;stop-opacity:1;" />
      <stop
         id="stop5304"
         offset="1"
         style="stop-color:#ffffff;stop-opacity:1" />
    </linearGradient>
    <linearGradient
       gradientUnits="userSpaceOnUse"
       y2="910.94086"
       x2="404.46509"
       y1="537.5885"
       x1="417.19299"
       id="linearGradient5306"
       xlink:href="#linearGradient5300"
       inkscape:collect="always" />
  </defs>
  <sodipodi:namedview
     id="base"
     pagecolor="#ffffff"
     bordercolor="#666666"
     borderopacity="1.0"
     inkscape:pageopacity="0.0"
     inkscape:pageshadow="2"
     inkscape:zoom="13.348997"
     inkscape:cx="6.7493421"
     inkscape:cy="18.126313"
     inkscape:document-units="px"
     inkscape:current-layer="layer1"
     showgrid="true"
     units="px"
     inkscape:window-width="1853"
     inkscape:window-height="1025"
     inkscape:window-x="67"
     inkscape:window-y="27"
     inkscape:window-maximized="1"
     inkscape:snap-bbox="true"
     inkscape:bbox-paths="true"
     inkscape:snap-bbox-midpoints="true"
     inkscape:snap-bbox-edge-midpoints="true"
     inkscape:bbox-nodes="true">
    <inkscape:grid
       type="xygrid"
       id="grid4485" />
  </sodipodi:namedview>
  <metadata
     id="metadata5">
    <rdf:RDF>
      <cc:Work
         rdf:about="">
        <dc:format>image/svg+xml</dc:format>
        <dc:type
           rdf:resource="http://purl.org/dc/dcmitype/StillImage" />
        <dc:title />
      </cc:Work>
    </rdf:RDF>
  </metadata>
  <g
     inkscape:label="Layer 1"
     inkscape:groupmode="layer"
     id="layer1"
     transform="translate(0,-290.3854)">
    <g
       style="display:inline"
       inkscape:label="Layer 1"
       id="layer7"
       transform="matrix(0.007149,0,0,0.007149,0.68887056,290.05669)">
      <path
         inkscape:connector-curvature="0"
         id="path5266"
         d="m 520.33858,933.80257 c -10.1359,-1.53537 -20.16361,-5.54025 -28.40036,-11.34261 -3.74654,-2.63925 -9.90345,-8.45226 -12.94454,-12.22148 -5.01551,-6.2165 -9.86851,-14.91378 -11.85572,-21.24728 l -1.14705,-3.65575 -4.21811,0.21167 c -4.48721,0.22514 -16.98984,-0.22002 -23.37433,-0.83227 -5.52453,-0.52977 -13.46484,-1.54389 -25.85624,-3.30236 -18.11218,-2.57028 -20.33673,-2.7714 -30.56705,-2.76354 -15.79226,0.0122 -27.2145,1.41388 -56.53227,6.93792 -13.6447,2.57092 -18.85324,3.32828 -24.62358,3.5805 l -4.82556,0.21093 -1.2426,2.47999 c -7.75997,15.48736 -23.24562,26.90243 -42.01513,30.97099 -9.11629,1.97606 -21.6921,2.60662 -31.45624,1.57722 -19.24836,-2.02926 -36.80716,-7.38783 -57.10544,-17.42734 -12.99019,-6.42491 -20.7665,-9.27261 -32.49969,-11.90145 -10.58201,-2.37088 -18.72255,-3.60687 -39.475165,-5.99365 -25.65808,-2.95093 -35.58444,-5.00521 -44.83407,-9.27855 -6.42632,-2.96899 -12.54236,-8.19753 -15.52067,-13.26852 -3.39268,-5.77647 -4.62042,-10.97217 -4.61587,-19.53398 0.005,-9.08747 1.69608,-17.71642 5.93023,-30.25706 2.46438,-7.29895 2.7621,-9.30475 2.509,-16.90354 -0.15658,-4.701 -0.61029,-8.89784 -1.96382,-18.16556 -2.68102,-18.35714 -2.99202,-24.64341 -1.58589,-32.05593 2.3338,-12.30281 10.28303,-22.9123 22.05659,-29.43803 3.94401,-2.18605 7.44704,-3.67528 14.4442,-6.14066 16.01149,-5.64149 20.76303,-8.04836 25.56562,-12.9502 2.93487,-2.9955 4.08019,-4.42914 11.113385,-13.91104 7.04975,-9.50419 9.11917,-12.06522 13.02832,-16.12334 l 3.08045,-3.19784 -0.5682,-4.66226 c -0.78275,-6.42261 -1.06603,-21.11195 -0.5451,-28.26439 1.90453,-26.14898 9.34157,-53.65168 22.59045,-83.54112 17.32616,-39.08782 44.48844,-81.64124 78.89146,-123.59433 8.44004,-10.29228 15.27574,-20.8169 21.89526,-33.7111 11.95001,-23.27752 17.68556,-45.08706 20.25737,-77.02897 0.49589,-6.15892 0.29221,-12.70599 -1.08133,-34.7591 -1.51568,-24.33532 -1.7459,-30.25782 -1.75542,-45.15884 -0.009,-13.63531 0.28095,-20.64021 1.25282,-30.29812 5.39764,-53.6382 27.88301,-87.6931 68.4529,-103.67436 18.33023,-7.220627 41.49722,-10.851977 65.50084,-10.267037 21.66512,0.52795 38.22869,4.21793 54.32202,12.101687 9.72382,4.76349 17.59702,10.39893 25.35605,18.14921 23.16987,23.14379 36.19877,59.20306 39.95803,110.58951 1.02782,14.04955 1.23924,23.24855 1.23641,53.79801 -0.003,36.67917 0.12943,38.66995 3.49722,52.41811 4.66495,19.04333 13.74424,37.07723 29.97817,59.54464 6.07471,8.40729 17.08748,22.51891 25.21772,32.31374 37.54745,45.23477 62.5171,87.12333 75.93709,127.39041 13.52237,40.57429 15.00989,79.61491 4.36368,114.52598 -0.79101,2.59384 -1.50334,4.95186 -1.58295,5.24007 -0.10274,0.37197 0.55852,0.80686 2.27932,1.49894 3.54588,1.42617 9.47166,5.49047 12.76354,8.75412 6.56668,6.51043 10.60758,14.87117 14.13173,29.23898 0.77532,3.16098 2.2745,9.28424 3.33153,13.6073 3.0232,12.36446 5.60879,19.1073 8.99513,23.45831 0.83551,1.07351 3.07058,3.74095 4.96678,5.92763 25.61743,29.54199 27.94667,51.14137 7.3056,67.74626 -6.48699,5.21852 -12.27063,8.48877 -34.85755,19.70961 -9.41466,4.67703 -19.00398,9.56388 -21.30961,10.85965 -16.60884,9.3342 -26.66062,17.30961 -37.40094,29.67519 -20.95733,24.12873 -44.47251,38.81852 -69.99192,43.7236 -4.1102,0.79003 -5.84222,0.92655 -12.954,1.02112 -5.84163,0.0777 -9.15922,-0.0349 -11.5025,-0.38969 z m 15.86922,-10.65641 c 14.06361,-1.32196 28.45147,-6.80468 42.61921,-16.24067 10.50424,-6.99602 18.54687,-14.37179 30.30862,-27.79566 9.52731,-10.87366 20.56499,-19.54317 36.4149,-28.60202 5.19077,-2.96672 9.71431,-5.25509 34.40977,-17.40712 16.71417,-8.22463 24.24949,-13.4821 28.35487,-19.78359 4.81653,-7.39296 3.42368,-16.84468 -4.32547,-29.35248 -3.35504,-5.41532 -7.68448,-11.02726 -15.61246,-20.23727 -5.20112,-6.04215 -8.51235,-13.74033 -11.73817,-27.28974 -5.1484,-21.62467 -6.1773,-25.11794 -9.1786,-31.16201 -3.26505,-6.57531 -7.97049,-11.23394 -14.57385,-14.42887 -5.9997,-2.90286 -7.85294,-3.22918 -19.33714,-3.40482 l -9.90502,-0.15151 -3.54448,3.51207 c -11.39813,11.29388 -27.72796,20.3711 -42.32098,23.52482 -5.13597,1.10995 -13.56748,1.11295 -17.40251,0.006 -6.15589,-1.7766 -10.08325,-4.03587 -14.6696,-8.43896 -8.30068,-7.96898 -14.02815,-20.65567 -15.85878,-35.12821 -0.31622,-2.50007 -0.61787,-4.60298 -0.67031,-4.67313 -0.24737,-0.33089 -4.96308,2.67621 -7.54769,4.81297 -6.15578,5.08922 -10.84564,12.55942 -14.19796,22.61511 -4.51858,13.55406 -6.91678,30.65117 -8.59241,61.25655 -1.21245,22.14508 -1.91825,25.58773 -12.92746,63.05546 -7.37089,25.08556 -10.00891,38.74432 -10.05296,52.05133 -0.0349,10.5203 1.31473,16.43903 5.44436,23.87702 6.32892,11.39921 14.89192,19.874 24.74737,24.49242 9.15069,4.28816 19.21424,5.92068 30.15675,4.89209 z m -294.39064,-9.78802 c 11.09708,-1.20508 21.30565,-4.66935 29.06328,-9.86264 3.3659,-2.25327 8.82903,-7.71555 11.08028,-11.07859 3.51699,-5.25386 5.93863,-11.226 7.43676,-18.34023 0.95197,-4.52064 1.31238,-12.77399 0.71857,-16.45503 -1.56028,-9.67211 -7.91138,-22.83338 -17.93593,-37.16831 -4.23223,-6.052 -9.43754,-12.82458 -20.67428,-26.89901 -16.53786,-20.7143 -21.94843,-28.24371 -26.73485,-37.20447 -1.0263,-1.92136 -9.009,-16.54114 -17.73934,-32.48841 -17.46656,-31.9053 -17.87892,-32.56128 -25.22701,-40.1307 -6.05911,-6.24162 -11.17443,-10.12555 -16.61088,-12.61224 -7.51254,-3.43633 -16.29942,-4.50056 -22.95269,-2.78 -7.95692,2.05771 -14.89634,8.00151 -24.64976,21.11317 -10.52387,14.14738 -12.63327,16.75567 -16.56307,20.48045 -5.918945,5.61012 -11.463235,8.53083 -25.435205,13.39909 -15.32001,5.33796 -19.81293,7.74094 -24.90492,13.32011 -3.76783,4.1283 -6.33851,9.01533 -7.35046,13.97362 -1.5561,7.6245 -1.17326,13.11683 2.61493,37.51464 0.44573,2.87069 0.77524,7.17596 0.89571,11.70282 0.23927,8.99167 -0.11117,11.19446 -3.36231,21.13493 -3.96865,12.13425 -5.47518,20.26051 -5.14874,27.77235 0.30333,6.98023 1.78885,11.16386 5.31724,14.97493 6.85288,7.40194 17.72703,10.67708 45.40098,13.67423 30.037015,3.25303 41.896535,5.29795 56.068705,9.66785 7.72457,2.38182 11.50093,3.94032 22.70695,9.37126 5.66801,2.74699 12.55302,5.88086 15.30002,6.96423 13.09972,5.16618 25.91174,8.47294 37.89425,9.78044 5.28023,0.57616 16.24956,0.66877 20.79177,0.17551 z M 378.3131,848.38271 c 31.76078,-2.08757 63.02627,-13.22655 92.80944,-33.06534 2.43995,-1.62529 4.57769,-3.1389 4.75051,-3.3636 0.41316,-0.53721 5.97888,-20.16754 7.74241,-27.30755 2.87784,-11.65153 3.2306,-14.43034 4.39016,-34.58444 2.3755,-41.28791 6.97624,-61.84483 17.32065,-77.39159 2.73165,-4.10541 9.2367,-10.72589 13.02045,-13.25142 2.58077,-1.72259 10.09824,-5.58927 10.8802,-5.59633 0.19535,-0.003 0.63775,-1.83489 0.9831,-4.07362 1.08829,-7.05446 3.04529,-12.07144 6.34876,-16.27565 7.87736,-10.02519 23.30122,-11.7003 44.18959,-4.79924 11.41817,3.77233 26.98868,11.48564 35.72786,17.69885 3.69658,2.6281 9.88126,8.80716 11.38984,11.37943 2.8631,4.88193 3.79269,10.17062 2.70779,15.40531 -0.31287,1.50959 -0.56887,2.8122 -0.56887,2.89468 0,0.0825 1.53272,0.10494 3.40605,0.05 l 3.40604,-0.1 0.57508,-2.2707 c 3.64007,-14.37277 -3.22694,-26.84957 -21.53185,-39.12174 -6.7076,-4.49695 -20.25254,-11.88237 -26.63477,-14.52263 -1.30006,-0.53784 -2.49431,-1.08801 -2.65385,-1.22265 -0.15954,-0.13463 0.0351,-1.74571 0.43255,-3.58019 8.92132,-41.17682 -7.26231,-92.18537 -42.80359,-134.91123 -4.24844,-5.10725 -15.60341,-16.8166 -16.62079,-17.13949 -0.36719,-0.11654 -1.06286,0.0509 -1.55714,0.37474 -1.86092,1.21929 -0.42259,3.72568 5.81176,10.12733 7.98003,8.19417 12.30112,13.59266 18.59472,23.23096 22.2452,34.06738 30.85159,71.29449 23.81265,103.00189 -0.84582,3.81008 -3.32395,12.00391 -3.89344,12.87351 -0.20859,0.31853 -1.32162,0.20587 -4.63145,-0.46884 -2.44942,-0.49935 -6.33968,-0.98877 -8.8859,-1.11799 l -4.52909,-0.22979 -0.47004,-2.44537 c -6.19522,-32.23067 -18.21342,-65.33545 -36.19279,-99.69502 -12.72214,-24.31268 -20.57313,-41.4936 -33.22244,-72.70316 -11.50634,-28.38961 -24.02647,-65.23832 -29.52529,-86.89776 -0.2073,-0.81658 -0.48876,-1.48133 -0.62546,-1.47723 -0.13669,0.004 -0.67541,0.61116 -1.19714,1.34903 -1.59738,2.25912 -5.78629,6.55946 -8.57383,8.80192 -7.44733,5.99107 -15.16664,10.14185 -25.58603,13.75799 -4.68909,1.6274 -8.62252,3.61912 -14.60623,7.39597 -13.41415,8.46688 -19.95913,11.98312 -26.48176,14.2271 -8.55345,2.94264 -17.88742,4.15938 -26.27385,3.42495 -8.09483,-0.70889 -13.60744,-2.23312 -19.9726,-5.52237 -5.01357,-2.59082 -8.70194,-5.31058 -16.17164,-11.9248 -8.1431,-7.21049 -10.17147,-8.8097 -14.84562,-11.70457 -2.10492,-1.30365 -5.0578,-3.2269 -6.56198,-4.27388 -3.06512,-2.13347 -3.27843,-2.08773 -3.28951,0.70541 -0.009,2.31538 -1.23412,12.56403 -2.12943,17.81622 -2.58221,15.14823 -6.10504,28.73981 -12.17838,46.98593 -8.03792,24.14832 -17.25971,46.42175 -35.65257,86.11176 -14.30895,30.87733 -17.12416,37.40914 -21.36755,49.57658 -8.86399,25.41645 -14.51166,53.46733 -15.53228,77.14568 -0.13044,3.02614 -0.34034,5.50207 -0.46645,5.50207 -0.12611,0 -1.34815,-1.68992 -2.71564,-3.75538 -17.57163,-26.54013 -19.7813,-59.93783 -6.55932,-99.13981 3.33519,-9.88853 6.36784,-16.95798 12.35683,-28.80514 2.96243,-5.86014 7.37395,-14.58485 9.80339,-19.38824 4.90073,-9.68955 7.36478,-15.52042 7.36478,-17.42787 0,-2.54066 -0.96622,-1.56332 -4.96912,5.02638 -17.97547,29.5918 -29.15249,52.46843 -36.43994,74.58361 -10.0413,30.47227 -11.08878,56.76707 -3.11923,78.30171 4.22578,11.41853 10.20601,20.63028 19.3749,29.84438 5.91923,5.94842 10.38671,9.57004 17.56439,14.2388 2.85522,1.85718 8.80317,5.76285 13.21767,8.67922 36.777,24.29634 60.51851,51.08006 64.97289,73.29847 0.61376,3.06146 0.53115,8.99953 -0.16281,11.70281 -1.5575,6.06706 -5.27478,10.55888 -11.09339,13.40472 -4.22264,2.06529 -7.9028,3.00301 -12.7961,3.26051 -2.16153,0.11375 -3.92862,0.30134 -3.92688,0.4169 0.002,0.11556 1.4346,2.01792 3.18412,4.22748 5.5976,7.06954 13.36793,17.56348 16.92602,22.85881 l 3.45422,5.14075 4.02377,2.53294 c 8.22374,5.17677 16.50938,9.42143 24.46003,12.53075 14.94459,5.84445 27.66228,8.61183 45.06457,9.80615 3.85052,0.26424 11.82434,0.19979 16.94885,-0.13705 z M 361.71359,390.2592 c 10.69295,-1.44319 18.23487,-4.55363 31.61507,-13.03874 11.27976,-7.15309 15.7865,-9.57315 20.96026,-11.25537 23.56633,-7.66242 40.05395,-24.85499 38.22416,-39.85843 -0.74235,-6.08678 -4.83802,-11.72862 -11.68231,-16.09252 -3.49289,-2.22707 -11.79648,-5.70078 -23.22314,-9.71515 -11.8188,-4.15213 -14.97957,-5.56237 -22.10805,-9.86397 -15.32657,-9.24864 -26.83823,-13.29638 -39.20073,-13.78377 -8.00224,-0.31549 -14.65307,0.87121 -21.91146,3.90962 -7.11131,2.97686 -13.60842,7.49851 -21.97606,15.29422 -3.86674,3.60243 -8.25085,7.14605 -15.02153,12.14167 -13.48759,9.95157 -15.20071,11.33514 -16.90997,13.65701 -6.95896,9.45308 -2.60582,22.5691 11.15598,33.61304 3.19913,2.56732 5.2777,3.9848 11.38903,7.76675 4.02729,2.49226 8.4597,6.0033 14.4943,11.48134 10.22259,9.27978 15.66377,12.57965 24.26689,14.71694 6.12289,1.52111 13.46476,1.89962 19.92756,1.02736 z m -18.5149,-24.30479 c -7.94505,-0.97017 -14.92166,-3.05028 -22.18295,-6.61396 -7.71136,-3.78456 -14.39933,-8.37362 -22.07301,-15.14572 -7.74862,-6.83825 -10.78437,-10.00663 -11.41697,-11.91579 -1.11638,-3.36916 -0.41171,-6.08811 1.45634,-5.61927 1.61865,0.40626 2.69145,1.47616 4.09076,4.07972 1.50715,2.80419 4.21284,5.64492 10.81393,11.35365 12.02831,10.40228 22.04045,15.84311 34.42117,18.70526 2.84599,0.65793 4.36365,0.7686 10.6548,0.77699 6.66631,0.009 7.73477,-0.0759 11.70281,-0.92875 8.19789,-1.76195 17.72897,-5.2815 27.42302,-10.1265 10.99058,-5.493 15.6052,-8.37342 27.24834,-17.00822 7.41187,-5.4968 7.9998,-6.02093 10.68541,-9.5255 2.21407,-2.88923 3.58696,-3.69372 5.56292,-3.25973 4.39195,0.96464 -0.96661,7.69631 -13.80296,17.33987 -7.88696,5.92522 -12.78618,8.87072 -24.59223,14.78529 -12.20886,6.11637 -17.76365,8.41215 -25.88708,10.69909 -7.77003,2.18745 -17.73595,3.18121 -24.1043,2.40357 z m -12.66652,-68.34159 c -2.3038,-0.95548 -2.14759,-3.17109 0.3384,-4.79986 0.72819,-0.4771 2.58159,-1.28725 4.11868,-1.80034 2.26438,-0.75588 3.21698,-0.89927 5.02005,-0.75563 2.2969,0.18297 3.95883,1.01982 4.17154,2.10055 0.18245,0.92693 -1.16614,1.90929 -3.201,2.33172 -1.20498,0.25016 -2.82094,0.98494 -4.29426,1.95262 -2.6105,1.71457 -3.87815,1.9146 -6.15341,0.97094 z m 40.81444,-0.85793 c -1.15464,-0.82682 -2.84998,-1.65513 -3.98692,-1.94794 -2.61086,-0.67238 -3.55008,-1.30806 -3.55008,-2.40275 0,-0.69948 0.30774,-1.02206 1.48469,-1.5563 2.69008,-1.22107 6.81627,-0.65752 10.82339,1.47825 3.41153,1.81834 3.9239,4.20316 1.15187,5.3614 -2.16464,0.90444 -3.69371,0.66367 -5.92295,-0.93266 z m -71.72867,1.68832 c 2.25712,-1.70964 4.18896,-3.24614 4.29298,-3.41444 0.10401,-0.1683 -0.45911,-0.89164 -1.25138,-1.60741 -5.43764,-4.91258 -8.79471,-15.45242 -8.25918,-25.93043 1.07743,-21.08051 15.85622,-26.93944 24.07231,-9.54327 2.30793,4.88664 3.12098,8.72486 3.32676,15.70477 0.0977,3.31434 0.2341,6.02607 0.30308,6.02607 0.069,0 0.87448,-0.46042 1.79002,-1.02316 2.65388,-1.63124 7.31748,-3.76824 11.09672,-5.08485 l 3.49338,-1.21703 -0.0214,-6.90494 c -0.0238,-7.6668 -0.57215,-12.05716 -2.25222,-18.03301 -4.13933,-14.72313 -12.74224,-25.66061 -22.84771,-29.04788 -3.12614,-1.04785 -8.05556,-1.28745 -11.20976,-0.54485 -4.81205,1.13292 -10.26785,5.06762 -14.15393,10.20775 -4.00835,5.30184 -7.40855,13.71593 -8.94247,22.12893 -0.96596,5.29791 -0.8802,17.6914 0.16185,23.38813 2.03825,11.14283 6.44875,21.02892 12.28212,27.53023 l 1.80445,2.01107 1.10528,-0.76862 c 0.60791,-0.42274 2.95202,-2.16742 5.20915,-3.87706 z m 141.76314,1.06021 c 7.95079,-11.2915 11.78718,-25.67824 10.79778,-40.49261 -0.65249,-9.77004 -2.37598,-16.26347 -6.62906,-24.97587 -4.86492,-9.96578 -11.63285,-17.06141 -20.43141,-21.42079 -5.28024,-2.61617 -8.31777,-3.29922 -14.67218,-3.29936 -7.63747,-1.7e-4 -12.59286,1.44153 -18.72189,5.44689 -4.07412,2.66244 -10.27762,8.79042 -12.84724,12.69083 -4.23541,6.42881 -7.77062,15.32237 -9.17456,23.0805 -0.60829,3.36132 -0.76132,5.62126 -0.79087,11.6786 -0.0202,4.13092 0.0838,8.07583 0.231,8.76645 0.2537,1.19026 0.37202,1.27867 2.2707,1.69669 3.54251,0.77993 11.67443,3.41738 15.56899,5.04954 l 3.78452,1.58603 -0.26145,-1.47526 c -0.4432,-2.50071 -0.25599,-10.39147 0.32506,-13.70209 0.713,-4.0625 1.65607,-6.93727 3.55266,-10.82947 2.65759,-5.45401 6.52836,-9.3605 10.91279,-11.01346 2.87166,-1.08264 7.19444,-0.87468 9.96171,0.47924 8.73998,4.27606 14.14542,18.23576 12.50672,32.29892 -0.91611,7.86203 -2.5807,12.00334 -6.45447,16.05797 l -2.66262,2.78694 0.96487,0.36263 c 0.53068,0.19946 3.37726,1.25183 6.32574,2.33861 2.94848,1.08678 7.11433,2.73512 9.25745,3.66298 2.14312,0.92785 4.0104,1.70316 4.1495,1.7229 0.13907,0.0197 1.05542,-1.10383 2.03626,-2.49681 z"
         style="fill:#000000" />
      <path
         inkscape:connector-curvature="0"
         id="path5272"
         d="m 348.21263,845.62593 c -35.03621,-6.2041 -56.3833,-18.18574 -72.3385,-40.60201 -8.50458,-11.94852 -8.84502,-13.16178 -3.69325,-13.16178 3.12118,0 9.20412,-3.03572 13.51764,-6.74608 22.00814,-18.93058 -3.2578,-60.04708 -60.86423,-99.04739 -40.25687,-27.25438 -53.34575,-50.36399 -50.46599,-89.10226 1.40216,-18.86172 12.10812,-58.9622 14.97598,-56.09434 0.58109,0.58108 -0.94881,10.51645 -3.39978,22.0786 -5.59841,26.40991 -3.57061,49.17653 6.25948,70.27659 8.76558,18.8151 10.17077,17.01754 14.86073,-19.01037 3.68938,-28.34151 13.12462,-55.60337 39.34524,-113.68274 23.26668,-51.53631 33.51385,-80.32901 40.10307,-112.68229 l 4.8038,-23.58685 18.20033,13.94979 c 21.64308,16.58852 35.58098,21.7835 52.29701,19.49231 12.84199,-1.76019 75.12497,-32.33185 84.39014,-41.42298 5.29956,-5.20001 5.61671,-4.63921 17.29732,30.58557 15.78893,47.61419 20.195,58.30593 48.09899,116.71718 13.49626,28.25158 26.94826,61.22759 31.15289,76.36753 4.06997,14.65517 7.89442,28.23675 8.49877,30.18129 0.60568,1.94879 5.55735,3.53553 11.03319,3.53553 8.42458,0 10.26498,-1.18211 12.1096,-7.77817 4.3831,-15.67321 2.00538,-55.04324 -4.38653,-72.6321 -7.77274,-21.38852 -5.51407,-24.24848 3.29345,-4.1702 10.15219,23.14373 14.3291,43.98327 13.89516,69.32614 l -0.39264,22.92944 13.72975,6.43066 c 24.79846,11.61499 40.94111,32.07631 35.16895,44.57776 -1.81255,3.92569 -2.49861,3.08089 -3.29976,-4.06329 -1.86473,-16.62824 -30.73513,-36.67172 -62.69387,-43.52564 -12.2894,-2.63561 -15.8707,-2.33333 -24.95705,2.1065 -6.98995,3.41548 -11.57347,8.09676 -13.43709,13.72372 -1.55564,4.697 -9.39649,14.87934 -17.42413,22.62742 -17.75825,17.13978 -22.1381,30.21976 -26.50061,79.1412 -3.36003,37.6794 -9.98591,66.01362 -16.71094,71.46103 -8.87722,7.19074 -50.05418,25.62235 -63.81512,28.56491 -21.65821,4.63126 -43.85435,5.85563 -58.652,3.23532 z"
         style="fill:#ffb046;fill-opacity:1;stroke:#000000;stroke-width:14.42497826;stroke-miterlimit:4;stroke-dasharray:none;stroke-opacity:1" />
      <path
         inkscape:connector-curvature="0"
         id="path5274"
         d="m 511.14366,919.05998 c -11.86831,-3.66514 -28.29774,-22.36661 -32.1202,-36.56214 -3.63179,-13.48743 -1.01878,-31.06861 11.36888,-76.49356 4.68717,-17.18762 9.35009,-43.99663 11.0689,-63.63961 3.5445,-40.50724 6.49355,-52.16823 16.07217,-63.55178 8.40859,-9.99303 12.3678,-10.89052 12.3678,-2.80358 0,8.62602 10.14102,26.83858 18.6873,33.56109 14.43889,11.35762 43.90562,5.92043 65.1596,-12.02323 7.05983,-5.96026 11.83862,-7.5084 23.1768,-7.5084 21.09621,0 27.16627,6.5485 36.70656,39.59982 5.69401,19.72629 10.8787,31.00807 19.49759,42.42641 25.72878,34.08556 23.40671,40.14247 -25.01492,65.249 -28.53768,14.79675 -39.18689,22.26484 -61.05977,42.8201 -14.57143,13.69365 -33.03932,28.21456 -41.03975,32.26869 -16.06215,8.13931 -40.47902,11.10167 -54.87096,6.65719 z"
         style="fill:#ffbc00;fill-opacity:1;stroke:#000000;stroke-width:14.42497826;stroke-miterlimit:4;stroke-dasharray:none;stroke-opacity:1" />
      <path
         inkscape:connector-curvature="0"
         id="path5276"
         d="m 213.35845,910.38537 c -8.4234,-1.45493 -27.51528,-7.8774 -42.42641,-14.27216 -25.82224,-11.0741 -33.65567,-12.90036 -97.042707,-22.62419 -25.221879,-3.86915 -33.306011,-10.23536 -33.306011,-26.22831 0,-6.64021 1.913071,-18.32116 4.251269,-25.95767 3.569129,-11.65669 3.730711,-18.26912 1.007019,-41.2103 -4.313271,-36.32991 -1.146974,-42.43847 28.381726,-54.75523 22.607055,-9.42966 25.774096,-11.91959 47.844034,-37.61501 13.7387,-15.9956 15.97613,-17.48272 26.30341,-17.48272 23.38586,0 31.91558,8.39866 59.80196,58.88314 11.40844,20.65342 30.63852,50.25372 42.73351,65.77844 25.52515,32.76321 38.57866,56.0335 38.57866,68.77357 0,4.95713 -2.86378,14.69203 -6.36396,21.6331 -10.84777,21.5118 -36.66847,30.7935 -69.7625,25.07734 z"
         style="fill:#ffbc00;fill-opacity:1;stroke:#000000;stroke-width:14.42497826;stroke-miterlimit:4;stroke-dasharray:none;stroke-opacity:1" />
      <path
         inkscape:connector-curvature="0"
         id="path5296"
         d="m 347.75905,390.06637 c -8.97034,-1.17905 -21.39904,-8.01256 -32.75,-18.00648 -3.1625,-2.78441 -8.93171,-7.172 -12.82048,-9.75019 -13.47319,-8.93251 -18.35191,-13.66891 -22.33591,-21.68434 -1.99495,-4.01364 -2.09361,-4.42597 -2.09361,-8.75 0,-5.2325 0.91851,-7.81117 3.99537,-11.21689 1.02193,-1.13115 7.06603,-5.96613 13.43134,-10.74439 6.36531,-4.77827 14.16079,-11.00062 17.32329,-13.82744 10.27093,-9.18072 16.34664,-13.23568 24.03674,-16.04222 6.19831,-2.26211 10.29411,-2.95692 17.43046,-2.95692 13.56424,0 22.78004,2.98138 40.7828,13.19354 8.41179,4.77164 11.48681,6.10784 29,12.60148 17.73625,6.57634 23.33643,10.39688 27.10273,18.48991 1.83274,3.93822 1.89436,9.89216 0.14968,14.46507 -1.40041,3.67055 -4.55219,8.62455 -7.70021,12.10327 -5.79891,6.40808 -17.32503,13.53477 -28.27798,17.48449 -5.42401,1.95595 -11.66192,5.1695 -19.13667,9.85855 -5.08562,3.19031 -17.47624,8.91861 -27.13755,12.54593 -6.96876,2.61642 -13.12342,3.27193 -21,2.23663 z m 7.03816,-24.0263 c 11.38052,-1.14065 20.39859,-4.14379 36.72161,-12.22877 13.25826,-6.56697 18.62166,-9.73863 26.42728,-15.62782 13.57271,-10.24036 18.90063,-17.59598 12.74536,-17.59598 -1.37851,0 -2.13931,0.38152 -3.35741,1.68367 -0.86625,0.92602 -2.63218,2.81709 -3.9243,4.20237 -2.83082,3.03495 -16.51241,13.0812 -23.85273,17.51482 -11.03196,6.66339 -25.36056,12.90797 -35.78654,15.59619 -5.4086,1.39455 -6.46667,1.50286 -14.67022,1.50169 -9.93292,-10e-4 -13.90944,-0.75758 -22.0281,-4.1888 -11.70119,-4.94531 -28.34446,-17.93401 -33.857,-26.42261 -2.18609,-3.36629 -3.70259,-4.37941 -5.51456,-3.68409 -0.65516,0.25141 -0.77027,0.86998 -0.59999,3.22412 0.26234,3.62686 1.59397,5.36936 9.46621,12.38706 13.41363,11.95758 25.04383,18.79 37.40483,21.97431 8.38318,2.15959 12.55438,2.49284 20.82556,1.66384 z M 336.60199,296.9026 c 1.74679,-0.92669 3.87965,-1.83944 4.73968,-2.02834 1.88017,-0.41295 3.30394,-1.84911 2.89351,-2.91867 -1.25458,-3.26939 -11.96639,-1.71146 -14.82847,2.15666 -1.18756,1.60499 -0.75039,2.86775 1.30217,3.76128 2.16796,0.94377 2.3362,0.91605 5.89311,-0.97093 z m 40.67312,0.96041 c 1.41266,-0.59024 1.73394,-0.99279 1.73394,-2.1725 0,-1.66162 -0.84091,-2.52909 -3.98529,-4.11118 -2.57916,-1.29771 -7.60665,-1.84296 -9.65252,-1.04687 -2.9054,1.13056 -2.01865,3.40131 1.77087,4.53476 1.16432,0.34824 2.7121,1.0563 3.43952,1.57345 2.80978,1.99758 4.2212,2.25533 6.69348,1.22234 z"
         style="fill:#ff942a;fill-opacity:1;stroke:#000000;stroke-width:2.54999995;stroke-miterlimit:4;stroke-dasharray:none;stroke-opacity:1" />
      <path
         inkscape:connector-curvature="0"
         id="path5298"
         d="m 327.81805,831.43238 c -19.11207,-6.72535 -37.82096,-19.07729 -42.69783,-28.1898 -2.29016,-4.27922 -1.20522,-6.65235 5.6961,-12.45942 23.45311,-19.7345 6.65437,-59.49088 -40.53354,-95.92786 -12.08781,-9.33381 -28.33657,-21.86117 -36.10836,-27.83854 l -14.13054,-10.86801 5.64917,-6.10255 c 3.77567,-4.07873 6.76846,-13.58638 9.02419,-28.66852 4.74049,-31.69566 11.51814,-52.26563 35.90013,-108.95593 25.67278,-59.69149 35.19613,-85.33602 41.72432,-112.35546 l 4.93649,-20.43158 8.90598,6.67348 c 17.79316,13.3329 33.7803,19.68412 49.20432,19.54743 12.43857,-0.11023 21.01887,-3.17257 52.97689,-18.9076 20.97391,-10.32683 38.79603,-18.77605 39.60471,-18.77605 0.80869,0 1.47034,1.29319 1.47034,2.87375 0,7.65083 28.11459,78.93132 49.85255,126.39393 13.39252,29.24123 29.0839,67.70551 34.86976,85.47618 l 10.51968,32.31031 -11.55854,12.01642 c -27.62765,28.72203 -41.96526,49.0214 -47.06511,66.6354 -1.50684,5.20445 -4.66144,26.00892 -7.0102,46.23217 -2.34873,20.22326 -6.20284,43.5007 -8.56467,51.72766 -4.97267,17.32135 -10.0017,21.22237 -45.0851,34.97257 -18.65799,7.31262 -27.58921,9.06336 -50.91169,9.97991 -24.07172,0.94599 -31.02243,0.14792 -46.66905,-5.35789 z"
         style="fill:url(#linearGradient5306);fill-opacity:1;stroke:#000000;stroke-width:14.42497826;stroke-miterlimit:4;stroke-dasharray:none;stroke-opacity:1" />
    </g>
  </g>
</svg>
